%TF.GenerationSoftware,KiCad,Pcbnew,10.0.3*%
%TF.CreationDate,2026-07-23T13:12:38-04:00*%
%TF.ProjectId,Anypad,416e7970-6164-42e6-9b69-6361645f7063,1*%
%TF.SameCoordinates,Original*%
%TF.FileFunction,Legend,Top*%
%TF.FilePolarity,Positive*%
%FSLAX46Y46*%
G04 Gerber Fmt 4.6, Leading zero omitted, Abs format (unit mm)*
G04 Created by KiCad (PCBNEW 10.0.3) date 2026-07-23 13:12:38*
%MOMM*%
%LPD*%
G01*
G04 APERTURE LIST*
%ADD10C,0.481244*%
%ADD11C,0.186593*%
%ADD12C,0.359748*%
%ADD13C,0.300000*%
%ADD14C,0.360778*%
%ADD15C,0.369050*%
%ADD16C,0.532570*%
%ADD17C,0.200000*%
%ADD18C,0.250000*%
%ADD19C,0.187500*%
%ADD20C,0.375000*%
%ADD21C,0.150000*%
%ADD22C,0.100000*%
%ADD23C,0.101600*%
%ADD24C,0.120000*%
%ADD25C,0.040000*%
%ADD26C,0.127000*%
%ADD27C,0.254000*%
%ADD28C,0.025400*%
%ADD29C,0.000000*%
G04 APERTURE END LIST*
D10*
X154827017Y-117961603D02*
X154559660Y-118496313D01*
X155094370Y-118228956D01*
X154827017Y-117961603D01*
G36*
X155094370Y-118228956D02*
G01*
X154559660Y-118496313D01*
X154827017Y-117961603D01*
X155094370Y-118228956D01*
G37*
D11*
X135152802Y-122794878D02*
X138300000Y-122770000D01*
X136645544Y-120232338D02*
X135152802Y-122794878D01*
X136653318Y-120799890D02*
X136657985Y-121961433D01*
X136778785Y-122409254D02*
G75*
G02*
X136599383Y-122409254I-89701J0D01*
G01*
X136599383Y-122409254D02*
G75*
G02*
X136778785Y-122409254I89701J0D01*
G01*
X138300000Y-122770000D02*
X136645544Y-120232338D01*
D12*
X139396805Y-130976690D02*
G75*
G02*
X141820062Y-131023585I1219695J393390D01*
G01*
X139415680Y-132066834D02*
X139396805Y-130976690D01*
D13*
X139900000Y-127425000D02*
X140530000Y-128110000D01*
D12*
X139901344Y-130915637D02*
X140309056Y-130915637D01*
X140309056Y-131251405D01*
X139901344Y-131251405D01*
X139901344Y-130915637D01*
D13*
X140030000Y-126050000D02*
X141850000Y-128060000D01*
D12*
X140087214Y-132630440D02*
X140099203Y-132066834D01*
D13*
X140094373Y-124951726D02*
X141094373Y-124951726D01*
D12*
X140099203Y-132066834D02*
X139415680Y-132066834D01*
D14*
X140741073Y-117159450D02*
X141342379Y-114754264D01*
D12*
X140932620Y-130879663D02*
X141340335Y-130879663D01*
X141340335Y-131215431D01*
X140932620Y-131215431D01*
X140932620Y-130879663D01*
D13*
X141110000Y-128060000D02*
X139950000Y-126790000D01*
D12*
X141178450Y-132630440D02*
X140087214Y-132630440D01*
X141184447Y-132060837D02*
X141178450Y-132630440D01*
D14*
X141297104Y-114837607D02*
G75*
G02*
X143747609Y-114754238I1247896J-623893D01*
G01*
D12*
X141823550Y-131013930D02*
X141829637Y-132066834D01*
X141843982Y-132066834D02*
X141196436Y-132066834D01*
D13*
X142615000Y-128025000D02*
X140325000Y-125495000D01*
D14*
X143146267Y-117159450D02*
G75*
G02*
X140741073Y-117159450I-1202597J0D01*
G01*
X143146267Y-117159450D02*
X145551453Y-117159450D01*
D13*
X143490000Y-128020000D02*
X141100000Y-125460000D01*
D14*
X143747565Y-114754264D02*
X144950155Y-114754264D01*
D13*
X144220000Y-125340000D02*
X145120000Y-126230000D01*
X144420000Y-128130000D02*
X141900000Y-125470000D01*
X144594373Y-124951726D02*
X140094373Y-124951726D01*
D14*
X144966390Y-114785695D02*
G75*
G02*
X147355367Y-114754250I1202610J-601305D01*
G01*
D13*
X145110000Y-128020000D02*
X142690000Y-125420000D01*
X145140000Y-127140000D02*
X143480000Y-125360000D01*
X145594373Y-125951726D02*
X144594373Y-124951726D01*
X145594373Y-128451726D02*
X145594373Y-125951726D01*
D14*
X147956647Y-117159450D02*
G75*
G02*
X145551453Y-117159450I-1202597J0D01*
G01*
X147956647Y-117159450D02*
X147355341Y-114754264D01*
D15*
X149184406Y-110849160D02*
X153490000Y-110849160D01*
X153490000Y-117000000D01*
X149184406Y-117000000D01*
X149184406Y-110849160D01*
X149883269Y-111820063D02*
X150414572Y-111820063D01*
X150414572Y-112338584D01*
X149883269Y-112338584D01*
X149883269Y-111820063D01*
G36*
X149883269Y-111820063D02*
G01*
X150414572Y-111820063D01*
X150414572Y-112338584D01*
X149883269Y-112338584D01*
X149883269Y-111820063D01*
G37*
X149883269Y-113050232D02*
X150414572Y-113050232D01*
X150414572Y-113568755D01*
X149883269Y-113568755D01*
X149883269Y-113050232D01*
G36*
X149883269Y-113050232D02*
G01*
X150414572Y-113050232D01*
X150414572Y-113568755D01*
X149883269Y-113568755D01*
X149883269Y-113050232D01*
G37*
X149883269Y-114280404D02*
X150414572Y-114280404D01*
X150414572Y-114798927D01*
X149883269Y-114798927D01*
X149883269Y-114280404D01*
G36*
X149883269Y-114280404D02*
G01*
X150414572Y-114280404D01*
X150414572Y-114798927D01*
X149883269Y-114798927D01*
X149883269Y-114280404D01*
G37*
X149883269Y-115510574D02*
X150414572Y-115510574D01*
X150414572Y-116029097D01*
X149883269Y-116029097D01*
X149883269Y-115510574D01*
G36*
X149883269Y-115510574D02*
G01*
X150414572Y-115510574D01*
X150414572Y-116029097D01*
X149883269Y-116029097D01*
X149883269Y-115510574D01*
G37*
D16*
X150359712Y-125307801D02*
X151978254Y-127466179D01*
X150359712Y-127466179D02*
G75*
G02*
X150359702Y-125307811I-1079212J1079179D01*
G01*
X150359712Y-127466179D02*
X151978254Y-125307801D01*
D15*
X151113444Y-111820063D02*
X151644746Y-111820063D01*
X151644746Y-112338584D01*
X151113444Y-112338584D01*
X151113444Y-111820063D01*
G36*
X151113444Y-111820063D02*
G01*
X151644746Y-111820063D01*
X151644746Y-112338584D01*
X151113444Y-112338584D01*
X151113444Y-111820063D01*
G37*
X151113444Y-113050232D02*
X151644746Y-113050232D01*
X151644746Y-113568755D01*
X151113444Y-113568755D01*
X151113444Y-113050232D01*
G36*
X151113444Y-113050232D02*
G01*
X151644746Y-113050232D01*
X151644746Y-113568755D01*
X151113444Y-113568755D01*
X151113444Y-113050232D01*
G37*
X151113444Y-114280404D02*
X151644746Y-114280404D01*
X151644746Y-114798927D01*
X151113444Y-114798927D01*
X151113444Y-114280404D01*
G36*
X151113444Y-114280404D02*
G01*
X151644746Y-114280404D01*
X151644746Y-114798927D01*
X151113444Y-114798927D01*
X151113444Y-114280404D01*
G37*
X151113444Y-115818113D02*
X151644746Y-115818113D01*
X151644746Y-116951726D01*
X151113444Y-116951726D01*
X151113444Y-115818113D01*
G36*
X151113444Y-115818113D02*
G01*
X151644746Y-115818113D01*
X151644746Y-116951726D01*
X151113444Y-116951726D01*
X151113444Y-115818113D01*
G37*
D16*
X151978254Y-125307801D02*
G75*
G02*
X151978244Y-127466189I1079246J-1079199D01*
G01*
D15*
X152343607Y-111820063D02*
X152874914Y-111820063D01*
X152874914Y-112338584D01*
X152343607Y-112338584D01*
X152343607Y-111820063D01*
G36*
X152343607Y-111820063D02*
G01*
X152874914Y-111820063D01*
X152874914Y-112338584D01*
X152343607Y-112338584D01*
X152343607Y-111820063D01*
G37*
X152343607Y-113050232D02*
X152874914Y-113050232D01*
X152874914Y-113568755D01*
X152343607Y-113568755D01*
X152343607Y-113050232D01*
G36*
X152343607Y-113050232D02*
G01*
X152874914Y-113050232D01*
X152874914Y-113568755D01*
X152343607Y-113568755D01*
X152343607Y-113050232D01*
G37*
X152343607Y-114280404D02*
X152874914Y-114280404D01*
X152874914Y-114798927D01*
X152343607Y-114798927D01*
X152343607Y-114280404D01*
G36*
X152343607Y-114280404D02*
G01*
X152874914Y-114280404D01*
X152874914Y-114798927D01*
X152343607Y-114798927D01*
X152343607Y-114280404D01*
G37*
X152343607Y-115510574D02*
X152874914Y-115510574D01*
X152874914Y-116029097D01*
X152343607Y-116029097D01*
X152343607Y-115510574D01*
G36*
X152343607Y-115510574D02*
G01*
X152874914Y-115510574D01*
X152874914Y-116029097D01*
X152343607Y-116029097D01*
X152343607Y-115510574D01*
G37*
D10*
X154559660Y-118496313D02*
X155361729Y-117694244D01*
X154827017Y-117961603D02*
X155361729Y-116892168D01*
X155094371Y-117426885D02*
X155495413Y-117827921D01*
X155361729Y-116892168D02*
X158570021Y-113683883D01*
X155361729Y-117694244D02*
X155629089Y-117961603D01*
X156163805Y-117694244D02*
X155094370Y-118228956D01*
D13*
X156594373Y-125951726D02*
X157594373Y-124951726D01*
X156594373Y-128451726D02*
X156594373Y-125951726D01*
X157000000Y-128020000D02*
X159370000Y-125480000D01*
X157010000Y-126310000D02*
X157880000Y-125420000D01*
X157035000Y-127050000D02*
X158605000Y-125470000D01*
X157594373Y-124951726D02*
X162094373Y-124951726D01*
D10*
X157767945Y-114485952D02*
X158570021Y-115288028D01*
D13*
X157820000Y-128030000D02*
X160150000Y-125520000D01*
D10*
X158570021Y-113683883D02*
X159372090Y-114485952D01*
D13*
X158810000Y-127970000D02*
X161060000Y-125490000D01*
D10*
X159372090Y-114485952D02*
X156163805Y-117694244D01*
D13*
X159450000Y-131080000D02*
X160780000Y-131760000D01*
X159530000Y-128050000D02*
X161820000Y-125590000D01*
X160400000Y-128050000D02*
X161960000Y-126310000D01*
X160720000Y-130180000D02*
X159450000Y-131080000D01*
X161245000Y-131855000D02*
X162375000Y-130165000D01*
X161320000Y-128040000D02*
X162140000Y-127030000D01*
X162094373Y-124951726D02*
X161094373Y-124951726D01*
X162825000Y-131740000D02*
X164070000Y-131020000D01*
D11*
X163563718Y-122895624D02*
X166710916Y-122870746D01*
D13*
X164070000Y-131020000D02*
X162850000Y-130140000D01*
D11*
X165056460Y-120333084D02*
X163563718Y-122895624D01*
X165064234Y-120900636D02*
X165068901Y-122062179D01*
X165189701Y-122510000D02*
G75*
G02*
X165010299Y-122510000I-89701J0D01*
G01*
X165010299Y-122510000D02*
G75*
G02*
X165189701Y-122510000I89701J0D01*
G01*
X166710916Y-122870746D02*
X165056460Y-120333084D01*
D17*
X173489673Y-102827219D02*
X173489673Y-101827219D01*
X173489673Y-101827219D02*
X173727768Y-101827219D01*
X173727768Y-101827219D02*
X173870625Y-101874838D01*
X173870625Y-101874838D02*
X173965863Y-101970076D01*
X173965863Y-101970076D02*
X174013482Y-102065314D01*
X174013482Y-102065314D02*
X174061101Y-102255790D01*
X174061101Y-102255790D02*
X174061101Y-102398647D01*
X174061101Y-102398647D02*
X174013482Y-102589123D01*
X174013482Y-102589123D02*
X173965863Y-102684361D01*
X173965863Y-102684361D02*
X173870625Y-102779600D01*
X173870625Y-102779600D02*
X173727768Y-102827219D01*
X173727768Y-102827219D02*
X173489673Y-102827219D01*
X174870625Y-102779600D02*
X174775387Y-102827219D01*
X174775387Y-102827219D02*
X174584911Y-102827219D01*
X174584911Y-102827219D02*
X174489673Y-102779600D01*
X174489673Y-102779600D02*
X174442054Y-102684361D01*
X174442054Y-102684361D02*
X174442054Y-102303409D01*
X174442054Y-102303409D02*
X174489673Y-102208171D01*
X174489673Y-102208171D02*
X174584911Y-102160552D01*
X174584911Y-102160552D02*
X174775387Y-102160552D01*
X174775387Y-102160552D02*
X174870625Y-102208171D01*
X174870625Y-102208171D02*
X174918244Y-102303409D01*
X174918244Y-102303409D02*
X174918244Y-102398647D01*
X174918244Y-102398647D02*
X174442054Y-102493885D01*
X175299197Y-102779600D02*
X175394435Y-102827219D01*
X175394435Y-102827219D02*
X175584911Y-102827219D01*
X175584911Y-102827219D02*
X175680149Y-102779600D01*
X175680149Y-102779600D02*
X175727768Y-102684361D01*
X175727768Y-102684361D02*
X175727768Y-102636742D01*
X175727768Y-102636742D02*
X175680149Y-102541504D01*
X175680149Y-102541504D02*
X175584911Y-102493885D01*
X175584911Y-102493885D02*
X175442054Y-102493885D01*
X175442054Y-102493885D02*
X175346816Y-102446266D01*
X175346816Y-102446266D02*
X175299197Y-102351028D01*
X175299197Y-102351028D02*
X175299197Y-102303409D01*
X175299197Y-102303409D02*
X175346816Y-102208171D01*
X175346816Y-102208171D02*
X175442054Y-102160552D01*
X175442054Y-102160552D02*
X175584911Y-102160552D01*
X175584911Y-102160552D02*
X175680149Y-102208171D01*
X176156340Y-102827219D02*
X176156340Y-102160552D01*
X176156340Y-101827219D02*
X176108721Y-101874838D01*
X176108721Y-101874838D02*
X176156340Y-101922457D01*
X176156340Y-101922457D02*
X176203959Y-101874838D01*
X176203959Y-101874838D02*
X176156340Y-101827219D01*
X176156340Y-101827219D02*
X176156340Y-101922457D01*
X177061101Y-102160552D02*
X177061101Y-102970076D01*
X177061101Y-102970076D02*
X177013482Y-103065314D01*
X177013482Y-103065314D02*
X176965863Y-103112933D01*
X176965863Y-103112933D02*
X176870625Y-103160552D01*
X176870625Y-103160552D02*
X176727768Y-103160552D01*
X176727768Y-103160552D02*
X176632530Y-103112933D01*
X177061101Y-102779600D02*
X176965863Y-102827219D01*
X176965863Y-102827219D02*
X176775387Y-102827219D01*
X176775387Y-102827219D02*
X176680149Y-102779600D01*
X176680149Y-102779600D02*
X176632530Y-102731980D01*
X176632530Y-102731980D02*
X176584911Y-102636742D01*
X176584911Y-102636742D02*
X176584911Y-102351028D01*
X176584911Y-102351028D02*
X176632530Y-102255790D01*
X176632530Y-102255790D02*
X176680149Y-102208171D01*
X176680149Y-102208171D02*
X176775387Y-102160552D01*
X176775387Y-102160552D02*
X176965863Y-102160552D01*
X176965863Y-102160552D02*
X177061101Y-102208171D01*
X177537292Y-102160552D02*
X177537292Y-102827219D01*
X177537292Y-102255790D02*
X177584911Y-102208171D01*
X177584911Y-102208171D02*
X177680149Y-102160552D01*
X177680149Y-102160552D02*
X177823006Y-102160552D01*
X177823006Y-102160552D02*
X177918244Y-102208171D01*
X177918244Y-102208171D02*
X177965863Y-102303409D01*
X177965863Y-102303409D02*
X177965863Y-102827219D01*
X178823006Y-102779600D02*
X178727768Y-102827219D01*
X178727768Y-102827219D02*
X178537292Y-102827219D01*
X178537292Y-102827219D02*
X178442054Y-102779600D01*
X178442054Y-102779600D02*
X178394435Y-102684361D01*
X178394435Y-102684361D02*
X178394435Y-102303409D01*
X178394435Y-102303409D02*
X178442054Y-102208171D01*
X178442054Y-102208171D02*
X178537292Y-102160552D01*
X178537292Y-102160552D02*
X178727768Y-102160552D01*
X178727768Y-102160552D02*
X178823006Y-102208171D01*
X178823006Y-102208171D02*
X178870625Y-102303409D01*
X178870625Y-102303409D02*
X178870625Y-102398647D01*
X178870625Y-102398647D02*
X178394435Y-102493885D01*
X179727768Y-102827219D02*
X179727768Y-101827219D01*
X179727768Y-102779600D02*
X179632530Y-102827219D01*
X179632530Y-102827219D02*
X179442054Y-102827219D01*
X179442054Y-102827219D02*
X179346816Y-102779600D01*
X179346816Y-102779600D02*
X179299197Y-102731980D01*
X179299197Y-102731980D02*
X179251578Y-102636742D01*
X179251578Y-102636742D02*
X179251578Y-102351028D01*
X179251578Y-102351028D02*
X179299197Y-102255790D01*
X179299197Y-102255790D02*
X179346816Y-102208171D01*
X179346816Y-102208171D02*
X179442054Y-102160552D01*
X179442054Y-102160552D02*
X179632530Y-102160552D01*
X179632530Y-102160552D02*
X179727768Y-102208171D01*
X181299197Y-102303409D02*
X181442054Y-102351028D01*
X181442054Y-102351028D02*
X181489673Y-102398647D01*
X181489673Y-102398647D02*
X181537292Y-102493885D01*
X181537292Y-102493885D02*
X181537292Y-102636742D01*
X181537292Y-102636742D02*
X181489673Y-102731980D01*
X181489673Y-102731980D02*
X181442054Y-102779600D01*
X181442054Y-102779600D02*
X181346816Y-102827219D01*
X181346816Y-102827219D02*
X180965864Y-102827219D01*
X180965864Y-102827219D02*
X180965864Y-101827219D01*
X180965864Y-101827219D02*
X181299197Y-101827219D01*
X181299197Y-101827219D02*
X181394435Y-101874838D01*
X181394435Y-101874838D02*
X181442054Y-101922457D01*
X181442054Y-101922457D02*
X181489673Y-102017695D01*
X181489673Y-102017695D02*
X181489673Y-102112933D01*
X181489673Y-102112933D02*
X181442054Y-102208171D01*
X181442054Y-102208171D02*
X181394435Y-102255790D01*
X181394435Y-102255790D02*
X181299197Y-102303409D01*
X181299197Y-102303409D02*
X180965864Y-102303409D01*
X181870626Y-102160552D02*
X182108721Y-102827219D01*
X182346816Y-102160552D02*
X182108721Y-102827219D01*
X182108721Y-102827219D02*
X182013483Y-103065314D01*
X182013483Y-103065314D02*
X181965864Y-103112933D01*
X181965864Y-103112933D02*
X181870626Y-103160552D01*
X169100149Y-113853290D02*
X169397768Y-114686623D01*
X169397768Y-114686623D02*
X169695387Y-113853290D01*
X170826339Y-114686623D02*
X170112054Y-114686623D01*
X170469197Y-114686623D02*
X170469197Y-113436623D01*
X170469197Y-113436623D02*
X170350149Y-113615195D01*
X170350149Y-113615195D02*
X170231101Y-113734242D01*
X170231101Y-113734242D02*
X170112054Y-113793766D01*
X171362054Y-114567576D02*
X171421577Y-114627100D01*
X171421577Y-114627100D02*
X171362054Y-114686623D01*
X171362054Y-114686623D02*
X171302530Y-114627100D01*
X171302530Y-114627100D02*
X171362054Y-114567576D01*
X171362054Y-114567576D02*
X171362054Y-114686623D01*
X172195387Y-113436623D02*
X172314434Y-113436623D01*
X172314434Y-113436623D02*
X172433482Y-113496147D01*
X172433482Y-113496147D02*
X172493006Y-113555671D01*
X172493006Y-113555671D02*
X172552530Y-113674719D01*
X172552530Y-113674719D02*
X172612053Y-113912814D01*
X172612053Y-113912814D02*
X172612053Y-114210433D01*
X172612053Y-114210433D02*
X172552530Y-114448528D01*
X172552530Y-114448528D02*
X172493006Y-114567576D01*
X172493006Y-114567576D02*
X172433482Y-114627100D01*
X172433482Y-114627100D02*
X172314434Y-114686623D01*
X172314434Y-114686623D02*
X172195387Y-114686623D01*
X172195387Y-114686623D02*
X172076339Y-114627100D01*
X172076339Y-114627100D02*
X172016815Y-114567576D01*
X172016815Y-114567576D02*
X171957292Y-114448528D01*
X171957292Y-114448528D02*
X171897768Y-114210433D01*
X171897768Y-114210433D02*
X171897768Y-113912814D01*
X171897768Y-113912814D02*
X171957292Y-113674719D01*
X171957292Y-113674719D02*
X172016815Y-113555671D01*
X172016815Y-113555671D02*
X172076339Y-113496147D01*
X172076339Y-113496147D02*
X172195387Y-113436623D01*
X174993006Y-113377100D02*
X173921577Y-114984242D01*
X176302530Y-113377100D02*
X175231101Y-114984242D01*
X177909673Y-113436623D02*
X178028720Y-113436623D01*
X178028720Y-113436623D02*
X178147768Y-113496147D01*
X178147768Y-113496147D02*
X178207292Y-113555671D01*
X178207292Y-113555671D02*
X178266816Y-113674719D01*
X178266816Y-113674719D02*
X178326339Y-113912814D01*
X178326339Y-113912814D02*
X178326339Y-114210433D01*
X178326339Y-114210433D02*
X178266816Y-114448528D01*
X178266816Y-114448528D02*
X178207292Y-114567576D01*
X178207292Y-114567576D02*
X178147768Y-114627100D01*
X178147768Y-114627100D02*
X178028720Y-114686623D01*
X178028720Y-114686623D02*
X177909673Y-114686623D01*
X177909673Y-114686623D02*
X177790625Y-114627100D01*
X177790625Y-114627100D02*
X177731101Y-114567576D01*
X177731101Y-114567576D02*
X177671578Y-114448528D01*
X177671578Y-114448528D02*
X177612054Y-114210433D01*
X177612054Y-114210433D02*
X177612054Y-113912814D01*
X177612054Y-113912814D02*
X177671578Y-113674719D01*
X177671578Y-113674719D02*
X177731101Y-113555671D01*
X177731101Y-113555671D02*
X177790625Y-113496147D01*
X177790625Y-113496147D02*
X177909673Y-113436623D01*
X178743006Y-113436623D02*
X179576339Y-113436623D01*
X179576339Y-113436623D02*
X179040625Y-114686623D01*
X180052530Y-114567576D02*
X180112053Y-114627100D01*
X180112053Y-114627100D02*
X180052530Y-114686623D01*
X180052530Y-114686623D02*
X179993006Y-114627100D01*
X179993006Y-114627100D02*
X180052530Y-114567576D01*
X180052530Y-114567576D02*
X180052530Y-114686623D01*
X180885863Y-113436623D02*
X181004910Y-113436623D01*
X181004910Y-113436623D02*
X181123958Y-113496147D01*
X181123958Y-113496147D02*
X181183482Y-113555671D01*
X181183482Y-113555671D02*
X181243006Y-113674719D01*
X181243006Y-113674719D02*
X181302529Y-113912814D01*
X181302529Y-113912814D02*
X181302529Y-114210433D01*
X181302529Y-114210433D02*
X181243006Y-114448528D01*
X181243006Y-114448528D02*
X181183482Y-114567576D01*
X181183482Y-114567576D02*
X181123958Y-114627100D01*
X181123958Y-114627100D02*
X181004910Y-114686623D01*
X181004910Y-114686623D02*
X180885863Y-114686623D01*
X180885863Y-114686623D02*
X180766815Y-114627100D01*
X180766815Y-114627100D02*
X180707291Y-114567576D01*
X180707291Y-114567576D02*
X180647768Y-114448528D01*
X180647768Y-114448528D02*
X180588244Y-114210433D01*
X180588244Y-114210433D02*
X180588244Y-113912814D01*
X180588244Y-113912814D02*
X180647768Y-113674719D01*
X180647768Y-113674719D02*
X180707291Y-113555671D01*
X180707291Y-113555671D02*
X180766815Y-113496147D01*
X180766815Y-113496147D02*
X180885863Y-113436623D01*
X182493005Y-114686623D02*
X181778720Y-114686623D01*
X182135863Y-114686623D02*
X182135863Y-113436623D01*
X182135863Y-113436623D02*
X182016815Y-113615195D01*
X182016815Y-113615195D02*
X181897767Y-113734242D01*
X181897767Y-113734242D02*
X181778720Y-113793766D01*
X183028720Y-114567576D02*
X183088243Y-114627100D01*
X183088243Y-114627100D02*
X183028720Y-114686623D01*
X183028720Y-114686623D02*
X182969196Y-114627100D01*
X182969196Y-114627100D02*
X183028720Y-114567576D01*
X183028720Y-114567576D02*
X183028720Y-114686623D01*
X183564434Y-113555671D02*
X183623958Y-113496147D01*
X183623958Y-113496147D02*
X183743005Y-113436623D01*
X183743005Y-113436623D02*
X184040624Y-113436623D01*
X184040624Y-113436623D02*
X184159672Y-113496147D01*
X184159672Y-113496147D02*
X184219196Y-113555671D01*
X184219196Y-113555671D02*
X184278719Y-113674719D01*
X184278719Y-113674719D02*
X184278719Y-113793766D01*
X184278719Y-113793766D02*
X184219196Y-113972338D01*
X184219196Y-113972338D02*
X183504910Y-114686623D01*
X183504910Y-114686623D02*
X184278719Y-114686623D01*
X185052529Y-113436623D02*
X185171576Y-113436623D01*
X185171576Y-113436623D02*
X185290624Y-113496147D01*
X185290624Y-113496147D02*
X185350148Y-113555671D01*
X185350148Y-113555671D02*
X185409672Y-113674719D01*
X185409672Y-113674719D02*
X185469195Y-113912814D01*
X185469195Y-113912814D02*
X185469195Y-114210433D01*
X185469195Y-114210433D02*
X185409672Y-114448528D01*
X185409672Y-114448528D02*
X185350148Y-114567576D01*
X185350148Y-114567576D02*
X185290624Y-114627100D01*
X185290624Y-114627100D02*
X185171576Y-114686623D01*
X185171576Y-114686623D02*
X185052529Y-114686623D01*
X185052529Y-114686623D02*
X184933481Y-114627100D01*
X184933481Y-114627100D02*
X184873957Y-114567576D01*
X184873957Y-114567576D02*
X184814434Y-114448528D01*
X184814434Y-114448528D02*
X184754910Y-114210433D01*
X184754910Y-114210433D02*
X184754910Y-113912814D01*
X184754910Y-113912814D02*
X184814434Y-113674719D01*
X184814434Y-113674719D02*
X184873957Y-113555671D01*
X184873957Y-113555671D02*
X184933481Y-113496147D01*
X184933481Y-113496147D02*
X185052529Y-113436623D01*
X185945386Y-113555671D02*
X186004910Y-113496147D01*
X186004910Y-113496147D02*
X186123957Y-113436623D01*
X186123957Y-113436623D02*
X186421576Y-113436623D01*
X186421576Y-113436623D02*
X186540624Y-113496147D01*
X186540624Y-113496147D02*
X186600148Y-113555671D01*
X186600148Y-113555671D02*
X186659671Y-113674719D01*
X186659671Y-113674719D02*
X186659671Y-113793766D01*
X186659671Y-113793766D02*
X186600148Y-113972338D01*
X186600148Y-113972338D02*
X185885862Y-114686623D01*
X185885862Y-114686623D02*
X186659671Y-114686623D01*
X187731100Y-113436623D02*
X187493005Y-113436623D01*
X187493005Y-113436623D02*
X187373957Y-113496147D01*
X187373957Y-113496147D02*
X187314433Y-113555671D01*
X187314433Y-113555671D02*
X187195386Y-113734242D01*
X187195386Y-113734242D02*
X187135862Y-113972338D01*
X187135862Y-113972338D02*
X187135862Y-114448528D01*
X187135862Y-114448528D02*
X187195386Y-114567576D01*
X187195386Y-114567576D02*
X187254909Y-114627100D01*
X187254909Y-114627100D02*
X187373957Y-114686623D01*
X187373957Y-114686623D02*
X187612052Y-114686623D01*
X187612052Y-114686623D02*
X187731100Y-114627100D01*
X187731100Y-114627100D02*
X187790624Y-114567576D01*
X187790624Y-114567576D02*
X187850147Y-114448528D01*
X187850147Y-114448528D02*
X187850147Y-114150909D01*
X187850147Y-114150909D02*
X187790624Y-114031861D01*
X187790624Y-114031861D02*
X187731100Y-113972338D01*
X187731100Y-113972338D02*
X187612052Y-113912814D01*
X187612052Y-113912814D02*
X187373957Y-113912814D01*
X187373957Y-113912814D02*
X187254909Y-113972338D01*
X187254909Y-113972338D02*
X187195386Y-114031861D01*
X187195386Y-114031861D02*
X187135862Y-114150909D01*
D18*
X168770187Y-106092000D02*
X168984473Y-106163428D01*
X168984473Y-106163428D02*
X169341615Y-106163428D01*
X169341615Y-106163428D02*
X169484473Y-106092000D01*
X169484473Y-106092000D02*
X169555901Y-106020571D01*
X169555901Y-106020571D02*
X169627330Y-105877714D01*
X169627330Y-105877714D02*
X169627330Y-105734857D01*
X169627330Y-105734857D02*
X169555901Y-105592000D01*
X169555901Y-105592000D02*
X169484473Y-105520571D01*
X169484473Y-105520571D02*
X169341615Y-105449142D01*
X169341615Y-105449142D02*
X169055901Y-105377714D01*
X169055901Y-105377714D02*
X168913044Y-105306285D01*
X168913044Y-105306285D02*
X168841615Y-105234857D01*
X168841615Y-105234857D02*
X168770187Y-105092000D01*
X168770187Y-105092000D02*
X168770187Y-104949142D01*
X168770187Y-104949142D02*
X168841615Y-104806285D01*
X168841615Y-104806285D02*
X168913044Y-104734857D01*
X168913044Y-104734857D02*
X169055901Y-104663428D01*
X169055901Y-104663428D02*
X169413044Y-104663428D01*
X169413044Y-104663428D02*
X169627330Y-104734857D01*
X170270186Y-106163428D02*
X170270186Y-104663428D01*
X170913044Y-106163428D02*
X170913044Y-105377714D01*
X170913044Y-105377714D02*
X170841615Y-105234857D01*
X170841615Y-105234857D02*
X170698758Y-105163428D01*
X170698758Y-105163428D02*
X170484472Y-105163428D01*
X170484472Y-105163428D02*
X170341615Y-105234857D01*
X170341615Y-105234857D02*
X170270186Y-105306285D01*
X171627329Y-106163428D02*
X171627329Y-105163428D01*
X171627329Y-105449142D02*
X171698758Y-105306285D01*
X171698758Y-105306285D02*
X171770187Y-105234857D01*
X171770187Y-105234857D02*
X171913044Y-105163428D01*
X171913044Y-105163428D02*
X172055901Y-105163428D01*
X173127329Y-106092000D02*
X172984472Y-106163428D01*
X172984472Y-106163428D02*
X172698758Y-106163428D01*
X172698758Y-106163428D02*
X172555900Y-106092000D01*
X172555900Y-106092000D02*
X172484472Y-105949142D01*
X172484472Y-105949142D02*
X172484472Y-105377714D01*
X172484472Y-105377714D02*
X172555900Y-105234857D01*
X172555900Y-105234857D02*
X172698758Y-105163428D01*
X172698758Y-105163428D02*
X172984472Y-105163428D01*
X172984472Y-105163428D02*
X173127329Y-105234857D01*
X173127329Y-105234857D02*
X173198758Y-105377714D01*
X173198758Y-105377714D02*
X173198758Y-105520571D01*
X173198758Y-105520571D02*
X172484472Y-105663428D01*
X173698757Y-105163428D02*
X174055900Y-106163428D01*
X174413043Y-105163428D02*
X174055900Y-106163428D01*
X174055900Y-106163428D02*
X173913043Y-106520571D01*
X173913043Y-106520571D02*
X173841614Y-106592000D01*
X173841614Y-106592000D02*
X173698757Y-106663428D01*
X175627329Y-106163428D02*
X175627329Y-105377714D01*
X175627329Y-105377714D02*
X175555900Y-105234857D01*
X175555900Y-105234857D02*
X175413043Y-105163428D01*
X175413043Y-105163428D02*
X175127329Y-105163428D01*
X175127329Y-105163428D02*
X174984471Y-105234857D01*
X175627329Y-106092000D02*
X175484471Y-106163428D01*
X175484471Y-106163428D02*
X175127329Y-106163428D01*
X175127329Y-106163428D02*
X174984471Y-106092000D01*
X174984471Y-106092000D02*
X174913043Y-105949142D01*
X174913043Y-105949142D02*
X174913043Y-105806285D01*
X174913043Y-105806285D02*
X174984471Y-105663428D01*
X174984471Y-105663428D02*
X175127329Y-105592000D01*
X175127329Y-105592000D02*
X175484471Y-105592000D01*
X175484471Y-105592000D02*
X175627329Y-105520571D01*
X176341614Y-105163428D02*
X176341614Y-106163428D01*
X176341614Y-105306285D02*
X176413043Y-105234857D01*
X176413043Y-105234857D02*
X176555900Y-105163428D01*
X176555900Y-105163428D02*
X176770186Y-105163428D01*
X176770186Y-105163428D02*
X176913043Y-105234857D01*
X176913043Y-105234857D02*
X176984472Y-105377714D01*
X176984472Y-105377714D02*
X176984472Y-106163428D01*
X177627329Y-106092000D02*
X177770186Y-106163428D01*
X177770186Y-106163428D02*
X178055900Y-106163428D01*
X178055900Y-106163428D02*
X178198757Y-106092000D01*
X178198757Y-106092000D02*
X178270186Y-105949142D01*
X178270186Y-105949142D02*
X178270186Y-105877714D01*
X178270186Y-105877714D02*
X178198757Y-105734857D01*
X178198757Y-105734857D02*
X178055900Y-105663428D01*
X178055900Y-105663428D02*
X177841615Y-105663428D01*
X177841615Y-105663428D02*
X177698757Y-105592000D01*
X177698757Y-105592000D02*
X177627329Y-105449142D01*
X177627329Y-105449142D02*
X177627329Y-105377714D01*
X177627329Y-105377714D02*
X177698757Y-105234857D01*
X177698757Y-105234857D02*
X177841615Y-105163428D01*
X177841615Y-105163428D02*
X178055900Y-105163428D01*
X178055900Y-105163428D02*
X178198757Y-105234857D01*
X178913043Y-106163428D02*
X178913043Y-104663428D01*
X179555901Y-106163428D02*
X179555901Y-105377714D01*
X179555901Y-105377714D02*
X179484472Y-105234857D01*
X179484472Y-105234857D02*
X179341615Y-105163428D01*
X179341615Y-105163428D02*
X179127329Y-105163428D01*
X179127329Y-105163428D02*
X178984472Y-105234857D01*
X178984472Y-105234857D02*
X178913043Y-105306285D01*
X181413043Y-106163428D02*
X181413043Y-104663428D01*
X181413043Y-104663428D02*
X181984472Y-104663428D01*
X181984472Y-104663428D02*
X182127329Y-104734857D01*
X182127329Y-104734857D02*
X182198758Y-104806285D01*
X182198758Y-104806285D02*
X182270186Y-104949142D01*
X182270186Y-104949142D02*
X182270186Y-105163428D01*
X182270186Y-105163428D02*
X182198758Y-105306285D01*
X182198758Y-105306285D02*
X182127329Y-105377714D01*
X182127329Y-105377714D02*
X181984472Y-105449142D01*
X181984472Y-105449142D02*
X181413043Y-105449142D01*
X183555901Y-106163428D02*
X183555901Y-105377714D01*
X183555901Y-105377714D02*
X183484472Y-105234857D01*
X183484472Y-105234857D02*
X183341615Y-105163428D01*
X183341615Y-105163428D02*
X183055901Y-105163428D01*
X183055901Y-105163428D02*
X182913043Y-105234857D01*
X183555901Y-106092000D02*
X183413043Y-106163428D01*
X183413043Y-106163428D02*
X183055901Y-106163428D01*
X183055901Y-106163428D02*
X182913043Y-106092000D01*
X182913043Y-106092000D02*
X182841615Y-105949142D01*
X182841615Y-105949142D02*
X182841615Y-105806285D01*
X182841615Y-105806285D02*
X182913043Y-105663428D01*
X182913043Y-105663428D02*
X183055901Y-105592000D01*
X183055901Y-105592000D02*
X183413043Y-105592000D01*
X183413043Y-105592000D02*
X183555901Y-105520571D01*
X184055901Y-105163428D02*
X184627329Y-105163428D01*
X184270186Y-104663428D02*
X184270186Y-105949142D01*
X184270186Y-105949142D02*
X184341615Y-106092000D01*
X184341615Y-106092000D02*
X184484472Y-106163428D01*
X184484472Y-106163428D02*
X184627329Y-106163428D01*
X185127329Y-106163428D02*
X185127329Y-105163428D01*
X185127329Y-105449142D02*
X185198758Y-105306285D01*
X185198758Y-105306285D02*
X185270187Y-105234857D01*
X185270187Y-105234857D02*
X185413044Y-105163428D01*
X185413044Y-105163428D02*
X185555901Y-105163428D01*
X186698758Y-106163428D02*
X186698758Y-105377714D01*
X186698758Y-105377714D02*
X186627329Y-105234857D01*
X186627329Y-105234857D02*
X186484472Y-105163428D01*
X186484472Y-105163428D02*
X186198758Y-105163428D01*
X186198758Y-105163428D02*
X186055900Y-105234857D01*
X186698758Y-106092000D02*
X186555900Y-106163428D01*
X186555900Y-106163428D02*
X186198758Y-106163428D01*
X186198758Y-106163428D02*
X186055900Y-106092000D01*
X186055900Y-106092000D02*
X185984472Y-105949142D01*
X185984472Y-105949142D02*
X185984472Y-105806285D01*
X185984472Y-105806285D02*
X186055900Y-105663428D01*
X186055900Y-105663428D02*
X186198758Y-105592000D01*
X186198758Y-105592000D02*
X186555900Y-105592000D01*
X186555900Y-105592000D02*
X186698758Y-105520571D01*
D19*
G36*
X142034545Y-110888777D02*
G01*
X141992338Y-111043059D01*
X141933514Y-111176587D01*
X141858692Y-111292108D01*
X141767557Y-111391703D01*
X141682301Y-111460111D01*
X141592601Y-111512373D01*
X141497664Y-111549573D01*
X141396411Y-111572142D01*
X141287528Y-111579831D01*
X141161891Y-111569772D01*
X141059816Y-111541829D01*
X140976787Y-111498081D01*
X140909440Y-111438781D01*
X140857653Y-111365576D01*
X140818342Y-111273568D01*
X140792730Y-111158618D01*
X140783411Y-111015630D01*
X140790868Y-110885140D01*
X140813633Y-110751014D01*
X140852570Y-110612378D01*
X140908891Y-110468374D01*
X140978511Y-110330103D01*
X141055524Y-110209224D01*
X141139733Y-110104119D01*
X141231200Y-110013441D01*
X141300606Y-109960880D01*
X141369384Y-109925164D01*
X141438436Y-109904364D01*
X141508904Y-109897487D01*
X141570264Y-109903070D01*
X141650672Y-109922268D01*
X141754826Y-109959402D01*
X141849637Y-110005140D01*
X141904939Y-110047111D01*
X141932858Y-110085847D01*
X141941305Y-110123350D01*
X141933744Y-110162958D01*
X141910531Y-110198638D01*
X141876539Y-110223464D01*
X141836800Y-110231611D01*
X141812857Y-110226356D01*
X141773236Y-110205507D01*
X141665052Y-110147479D01*
X141578521Y-110117392D01*
X141508904Y-110108513D01*
X141460416Y-110116243D01*
X141407499Y-110141314D01*
X141347978Y-110188472D01*
X141302760Y-110237740D01*
X141227078Y-110334101D01*
X141140222Y-110464594D01*
X141074209Y-110596980D01*
X141027653Y-110732118D01*
X140999772Y-110871053D01*
X140990407Y-111014989D01*
X140998792Y-111143471D01*
X141020041Y-111229488D01*
X141049849Y-111284725D01*
X141085042Y-111318772D01*
X141133706Y-111344871D01*
X141199560Y-111362290D01*
X141287528Y-111368806D01*
X141377374Y-111361349D01*
X141459512Y-111339540D01*
X141535432Y-111303534D01*
X141606265Y-111252577D01*
X141669852Y-111187031D01*
X141724281Y-111107775D01*
X141769547Y-111012876D01*
X141805018Y-110899859D01*
X141617465Y-110919023D01*
X141456431Y-110955089D01*
X141318303Y-111006197D01*
X141272233Y-111017096D01*
X141230936Y-111008618D01*
X141197403Y-110983207D01*
X141176629Y-110949703D01*
X141169742Y-110911400D01*
X141175582Y-110877784D01*
X141193001Y-110849009D01*
X141224056Y-110823656D01*
X141308533Y-110781724D01*
X141420520Y-110745201D01*
X141566210Y-110715874D01*
X141752590Y-110696127D01*
X141987376Y-110688834D01*
X142028060Y-110696366D01*
X142061106Y-110718601D01*
X142083293Y-110751800D01*
X142090873Y-110793431D01*
X142084344Y-110834387D01*
X142065898Y-110865335D01*
X142034545Y-110888777D01*
G37*
G36*
X142850705Y-110447424D02*
G01*
X142959798Y-110482845D01*
X143028700Y-110518007D01*
X143070278Y-110552418D01*
X143092203Y-110586300D01*
X143099108Y-110621148D01*
X143094093Y-110647052D01*
X143078683Y-110670332D01*
X143062746Y-110798468D01*
X143056152Y-111026896D01*
X143060559Y-111147286D01*
X143073554Y-111227664D01*
X143090596Y-111283312D01*
X143138126Y-111408007D01*
X143161665Y-111462320D01*
X143167801Y-111479722D01*
X143160550Y-111517289D01*
X143139133Y-111547317D01*
X143108017Y-111567361D01*
X143072547Y-111573970D01*
X143050659Y-111566249D01*
X143001838Y-111529914D01*
X142959554Y-111488880D01*
X142933145Y-111456733D01*
X142836865Y-111504318D01*
X142759946Y-111535593D01*
X142687571Y-111556368D01*
X142635016Y-111562246D01*
X142515346Y-111552442D01*
X142420319Y-111525456D01*
X142344949Y-111483545D01*
X142285596Y-111426966D01*
X142243681Y-111361765D01*
X142211313Y-111278075D01*
X142189942Y-111171653D01*
X142182569Y-111045489D01*
X142383965Y-111045489D01*
X142391815Y-111156191D01*
X142412612Y-111237732D01*
X142443408Y-111296815D01*
X142488721Y-111342671D01*
X142546784Y-111370566D01*
X142621735Y-111380529D01*
X142715211Y-111371044D01*
X142788706Y-111344809D01*
X142828208Y-111319269D01*
X142892204Y-111267140D01*
X142866266Y-111013284D01*
X142859414Y-110861574D01*
X142865001Y-110766136D01*
X142881946Y-110656319D01*
X142816824Y-110627742D01*
X142773319Y-110618492D01*
X142697045Y-110626478D01*
X142626932Y-110650072D01*
X142561339Y-110689830D01*
X142499186Y-110747727D01*
X142448200Y-110815731D01*
X142412572Y-110887297D01*
X142391211Y-110963434D01*
X142383965Y-111045489D01*
X142182569Y-111045489D01*
X142182098Y-111037429D01*
X142193001Y-110916590D01*
X142224855Y-110807028D01*
X142277574Y-110706418D01*
X142352641Y-110613088D01*
X142443681Y-110534831D01*
X142540748Y-110480447D01*
X142645434Y-110447866D01*
X142760038Y-110436775D01*
X142850705Y-110447424D01*
G37*
G36*
X144647730Y-111597417D02*
G01*
X144609458Y-111591629D01*
X144581701Y-111575616D01*
X144561739Y-111548959D01*
X144549361Y-111508207D01*
X144512450Y-111190386D01*
X144477645Y-110872565D01*
X144463809Y-110802679D01*
X144442749Y-110734171D01*
X144414344Y-110675771D01*
X144389582Y-110649258D01*
X144367003Y-110641939D01*
X144322952Y-110653509D01*
X144225587Y-110706053D01*
X144137044Y-110764536D01*
X144096443Y-110800758D01*
X144101572Y-110992183D01*
X144132255Y-111264025D01*
X144147404Y-111418073D01*
X144151764Y-111529731D01*
X144144527Y-111571061D01*
X144123554Y-111603554D01*
X144091854Y-111625166D01*
X144051380Y-111632588D01*
X144010898Y-111625149D01*
X143979115Y-111603462D01*
X143958218Y-111570876D01*
X143950996Y-111529365D01*
X143945711Y-111391024D01*
X143925901Y-111164100D01*
X143906090Y-110937175D01*
X143900805Y-110798834D01*
X143892120Y-110697287D01*
X143870030Y-110630215D01*
X143800454Y-110671427D01*
X143724583Y-110737010D01*
X143603683Y-110872474D01*
X143551385Y-110937137D01*
X143540119Y-111118854D01*
X143528853Y-111296357D01*
X143538562Y-111382636D01*
X143548271Y-111462686D01*
X143540482Y-111501361D01*
X143517038Y-111533486D01*
X143483057Y-111555074D01*
X143443765Y-111562246D01*
X143407658Y-111554591D01*
X143378070Y-111531378D01*
X143353411Y-111487848D01*
X143335304Y-111414579D01*
X143327994Y-111298830D01*
X143339260Y-111115373D01*
X143350525Y-110931916D01*
X143340725Y-110768976D01*
X143331017Y-110604936D01*
X143337564Y-110503051D01*
X143353807Y-110438389D01*
X143375996Y-110399817D01*
X143402742Y-110379141D01*
X143435522Y-110372295D01*
X143472961Y-110380424D01*
X143508795Y-110406367D01*
X143534124Y-110442896D01*
X143542134Y-110481380D01*
X143537005Y-110541921D01*
X143531876Y-110604387D01*
X143533891Y-110711914D01*
X143574229Y-110642306D01*
X143626133Y-110576357D01*
X143690695Y-110513711D01*
X143763532Y-110459961D01*
X143820926Y-110432897D01*
X143866916Y-110425051D01*
X143941807Y-110435344D01*
X144001632Y-110464586D01*
X144050091Y-110513411D01*
X144088291Y-110586343D01*
X144150672Y-110520319D01*
X144222472Y-110474144D01*
X144304369Y-110446468D01*
X144400800Y-110436775D01*
X144465157Y-110444229D01*
X144518879Y-110465517D01*
X144564395Y-110500580D01*
X144602954Y-110551391D01*
X144634449Y-110621697D01*
X144646768Y-110683693D01*
X144676489Y-110910301D01*
X144705555Y-111116491D01*
X144750220Y-111498773D01*
X144744901Y-111536709D01*
X144722560Y-111568657D01*
X144688680Y-111590144D01*
X144647730Y-111597417D01*
G37*
G36*
X145173188Y-110214025D02*
G01*
X145127442Y-110205282D01*
X145088100Y-110178854D01*
X145061216Y-110139916D01*
X145052287Y-110093858D01*
X145061219Y-110047815D01*
X145088100Y-110008953D01*
X145127449Y-109982454D01*
X145173188Y-109973690D01*
X145218832Y-109982472D01*
X145257726Y-110008953D01*
X145284248Y-110047780D01*
X145293080Y-110093858D01*
X145284251Y-110139952D01*
X145257726Y-110178854D01*
X145218839Y-110205264D01*
X145173188Y-110214025D01*
G37*
G36*
X145219258Y-111044665D02*
G01*
X145222830Y-111228763D01*
X145226494Y-111412769D01*
X145219356Y-111454414D01*
X145198833Y-111486683D01*
X145167404Y-111507953D01*
X145126110Y-111515351D01*
X145085511Y-111508010D01*
X145053753Y-111486683D01*
X145032876Y-111454376D01*
X145025634Y-111412769D01*
X145022062Y-111228763D01*
X145018490Y-111044665D01*
X145028657Y-110804238D01*
X145038915Y-110563812D01*
X145046201Y-110521350D01*
X145067034Y-110488982D01*
X145098800Y-110467584D01*
X145139391Y-110460222D01*
X145179887Y-110467583D01*
X145211564Y-110488982D01*
X145232468Y-110521357D01*
X145239774Y-110563812D01*
X145229516Y-110804238D01*
X145219258Y-111044665D01*
G37*
G36*
X146351049Y-111579831D02*
G01*
X146311246Y-111573615D01*
X146282905Y-111556465D01*
X146263042Y-111527783D01*
X146251673Y-111483478D01*
X146223005Y-111259080D01*
X146212083Y-111140815D01*
X146208625Y-111034590D01*
X146212197Y-110937229D01*
X146215769Y-110839867D01*
X146207504Y-110721603D01*
X146188299Y-110657750D01*
X146163678Y-110627600D01*
X146133795Y-110618492D01*
X146080843Y-110625899D01*
X146027611Y-110648932D01*
X145972524Y-110690363D01*
X145914526Y-110754779D01*
X145858318Y-110841060D01*
X145808909Y-110944756D01*
X145766973Y-111068479D01*
X145757722Y-111168954D01*
X145751585Y-111268330D01*
X145757722Y-111360654D01*
X145763858Y-111452886D01*
X145756556Y-111495261D01*
X145735648Y-111527625D01*
X145703971Y-111549024D01*
X145663475Y-111556384D01*
X145622165Y-111548989D01*
X145590660Y-111527716D01*
X145570173Y-111495411D01*
X145562999Y-111453069D01*
X145556313Y-111360929D01*
X145549719Y-111268880D01*
X145564556Y-110976704D01*
X145579486Y-110684620D01*
X145575822Y-110587351D01*
X145572250Y-110490173D01*
X145579712Y-110449714D01*
X145601468Y-110417999D01*
X145633865Y-110397018D01*
X145673733Y-110389880D01*
X145714101Y-110397533D01*
X145743805Y-110419495D01*
X145765327Y-110458598D01*
X145777139Y-110522504D01*
X145780253Y-110641939D01*
X145857608Y-110551243D01*
X145930632Y-110487160D01*
X146000160Y-110444953D01*
X146067378Y-110421065D01*
X146133795Y-110413328D01*
X146211624Y-110422889D01*
X146273492Y-110449767D01*
X146323170Y-110493692D01*
X146362315Y-110557584D01*
X146385145Y-110623546D01*
X146402054Y-110715977D01*
X146410491Y-110842065D01*
X146410491Y-110945380D01*
X146409484Y-111040543D01*
X146414338Y-111131370D01*
X146431466Y-111260087D01*
X146448681Y-111388662D01*
X146453539Y-111478532D01*
X146446033Y-111519859D01*
X146424322Y-111551713D01*
X146391785Y-111572651D01*
X146351049Y-111579831D01*
G37*
G36*
X147279758Y-110466910D02*
G01*
X147348659Y-110484860D01*
X147406436Y-110516337D01*
X147447028Y-110558774D01*
X147495998Y-110567936D01*
X147528517Y-110589999D01*
X147548915Y-110625762D01*
X147556662Y-110680865D01*
X147551983Y-110759494D01*
X147535138Y-110875862D01*
X147507478Y-111068753D01*
X147483939Y-111413594D01*
X147469181Y-111609227D01*
X147441898Y-111749092D01*
X147402666Y-111855181D01*
X147353251Y-111935326D01*
X147294345Y-111994373D01*
X147231391Y-112033527D01*
X147153341Y-112063356D01*
X147057055Y-112082772D01*
X146938789Y-112089811D01*
X146807984Y-112084747D01*
X146710361Y-112071401D01*
X146647121Y-112052349D01*
X146608853Y-112028083D01*
X146588101Y-111999562D01*
X146581217Y-111965247D01*
X146587367Y-111923740D01*
X146603646Y-111896883D01*
X146629983Y-111880457D01*
X146670335Y-111874297D01*
X146793342Y-111892157D01*
X146881925Y-111904938D01*
X146983943Y-111908094D01*
X147058571Y-111898673D01*
X147121006Y-111874308D01*
X147173878Y-111835221D01*
X147218649Y-111779643D01*
X147255419Y-111704029D01*
X147280427Y-111612572D01*
X147299009Y-111479426D01*
X147307718Y-111292602D01*
X147266189Y-111369712D01*
X147222233Y-111428823D01*
X147176010Y-111472853D01*
X147122586Y-111506284D01*
X147064850Y-111526177D01*
X147001345Y-111532937D01*
X146910768Y-111524631D01*
X146831647Y-111500723D01*
X146761757Y-111461694D01*
X146699553Y-111406633D01*
X146649621Y-111340373D01*
X146613521Y-111264914D01*
X146591087Y-111178522D01*
X146583232Y-111078920D01*
X146584664Y-111060785D01*
X146782076Y-111060785D01*
X146789358Y-111147935D01*
X146808869Y-111212896D01*
X146838405Y-111260820D01*
X146880356Y-111296889D01*
X146935338Y-111319538D01*
X147007482Y-111327773D01*
X147072386Y-111317291D01*
X147138511Y-111284185D01*
X147208250Y-111223176D01*
X147260979Y-111155449D01*
X147293318Y-111092339D01*
X147308725Y-111032392D01*
X147328935Y-110918862D01*
X147354795Y-110721348D01*
X147312679Y-110696423D01*
X147269799Y-110679216D01*
X147225082Y-110668862D01*
X147178574Y-110665386D01*
X147082538Y-110673652D01*
X147002154Y-110696966D01*
X146934459Y-110734165D01*
X146877331Y-110785554D01*
X146836368Y-110842135D01*
X146806794Y-110905910D01*
X146788469Y-110978215D01*
X146782076Y-111060785D01*
X146584664Y-111060785D01*
X146594028Y-110942230D01*
X146624760Y-110824598D01*
X146674050Y-110722713D01*
X146742051Y-110634062D01*
X146810783Y-110572672D01*
X146888347Y-110524740D01*
X146975994Y-110489719D01*
X147075452Y-110467865D01*
X147188832Y-110460222D01*
X147279758Y-110466910D01*
G37*
G36*
X149180227Y-106963437D02*
G01*
X149296999Y-106983856D01*
X149394239Y-107015458D01*
X149474946Y-107057017D01*
X149541561Y-107108055D01*
X149599505Y-107173482D01*
X149646259Y-107253246D01*
X149681631Y-107349837D01*
X149704452Y-107466472D01*
X149712654Y-107606951D01*
X149704746Y-107748018D01*
X149681441Y-107881605D01*
X149643042Y-108008784D01*
X149589425Y-108130499D01*
X149520038Y-108247539D01*
X149438698Y-108351689D01*
X149352748Y-108433262D01*
X149261821Y-108494950D01*
X149165043Y-108538568D01*
X149061084Y-108564964D01*
X148948235Y-108573970D01*
X148833249Y-108566647D01*
X148728076Y-108545348D01*
X148631303Y-108510649D01*
X148541748Y-108462556D01*
X148458497Y-108400496D01*
X148381222Y-108321633D01*
X148322238Y-108235818D01*
X148280075Y-108142055D01*
X148254263Y-108038815D01*
X148245365Y-107924131D01*
X148245371Y-107924039D01*
X148454376Y-107924039D01*
X148463865Y-108019992D01*
X148491303Y-108104151D01*
X148536475Y-108178975D01*
X148600921Y-108246074D01*
X148674017Y-108296496D01*
X148755204Y-108332792D01*
X148845974Y-108355177D01*
X148948235Y-108362944D01*
X149042661Y-108353260D01*
X149129309Y-108324697D01*
X149210188Y-108276676D01*
X149286634Y-108206936D01*
X149359204Y-108111709D01*
X149422196Y-107996362D01*
X149467112Y-107874696D01*
X149494367Y-107745454D01*
X149503643Y-107607134D01*
X149495152Y-107481955D01*
X149472363Y-107386776D01*
X149438219Y-107315279D01*
X149394008Y-107262477D01*
X149339955Y-107224555D01*
X149266623Y-107194736D01*
X149168868Y-107174641D01*
X149040467Y-107167131D01*
X148945211Y-107176701D01*
X148856624Y-107205063D01*
X148772841Y-107252903D01*
X148692575Y-107322457D01*
X148615209Y-107417358D01*
X148544361Y-107536136D01*
X148494460Y-107659274D01*
X148464496Y-107788055D01*
X148454376Y-107924039D01*
X148245371Y-107924039D01*
X148253864Y-107783840D01*
X148279004Y-107650182D01*
X148320637Y-107522021D01*
X148379137Y-107398368D01*
X148455383Y-107278414D01*
X148541009Y-107175528D01*
X148630429Y-107094881D01*
X148724052Y-107033918D01*
X148822721Y-106990889D01*
X148927672Y-106964929D01*
X149040467Y-106956105D01*
X149180227Y-106963437D01*
G37*
G36*
X150633968Y-107067480D02*
G01*
X150559031Y-107076527D01*
X150498093Y-107102161D01*
X150447851Y-107144297D01*
X150406791Y-107205696D01*
X150375441Y-107291548D01*
X150356264Y-107408931D01*
X150353242Y-107471946D01*
X150578647Y-107459673D01*
X150659066Y-107468247D01*
X150706712Y-107489452D01*
X150732655Y-107520163D01*
X150741588Y-107562804D01*
X150732609Y-107606483D01*
X150707307Y-107635404D01*
X150661629Y-107652655D01*
X150580204Y-107657326D01*
X150343991Y-107671248D01*
X150335839Y-107904256D01*
X150339869Y-108094399D01*
X150343991Y-108283443D01*
X150337520Y-108466913D01*
X150321459Y-108585968D01*
X150302288Y-108632624D01*
X150271586Y-108658578D01*
X150226205Y-108667759D01*
X150187035Y-108660906D01*
X150154397Y-108640648D01*
X150132171Y-108610262D01*
X150124722Y-108572871D01*
X150126737Y-108552446D01*
X150142736Y-108416679D01*
X150148352Y-108263567D01*
X150145238Y-107984856D01*
X150145238Y-107688834D01*
X149983305Y-107699092D01*
X149935913Y-107692161D01*
X149905361Y-107673868D01*
X149886762Y-107644408D01*
X149879807Y-107599441D01*
X149889079Y-107558200D01*
X149916808Y-107527000D01*
X149969220Y-107503999D01*
X150059143Y-107492645D01*
X150157511Y-107489531D01*
X150172899Y-107333643D01*
X150200431Y-107183897D01*
X150239634Y-107075226D01*
X150287662Y-106998420D01*
X150345269Y-106943723D01*
X150417595Y-106903383D01*
X150507902Y-106877531D01*
X150620687Y-106868178D01*
X150692029Y-106876251D01*
X150734934Y-106896436D01*
X150758790Y-106926237D01*
X150767142Y-106968378D01*
X150759224Y-107010813D01*
X150736994Y-107040247D01*
X150697902Y-107059769D01*
X150633968Y-107067480D01*
G37*
G36*
X151700821Y-107067480D02*
G01*
X151625884Y-107076527D01*
X151564946Y-107102161D01*
X151514703Y-107144297D01*
X151473643Y-107205696D01*
X151442293Y-107291548D01*
X151423117Y-107408931D01*
X151420094Y-107471946D01*
X151645500Y-107459673D01*
X151725919Y-107468247D01*
X151773564Y-107489452D01*
X151799508Y-107520163D01*
X151808440Y-107562804D01*
X151799462Y-107606483D01*
X151774160Y-107635404D01*
X151728481Y-107652655D01*
X151647057Y-107657326D01*
X151410844Y-107671248D01*
X151402692Y-107904256D01*
X151406722Y-108094399D01*
X151410844Y-108283443D01*
X151404373Y-108466913D01*
X151388312Y-108585968D01*
X151369141Y-108632624D01*
X151338439Y-108658578D01*
X151293057Y-108667759D01*
X151253887Y-108660906D01*
X151221250Y-108640648D01*
X151199023Y-108610262D01*
X151191575Y-108572871D01*
X151193590Y-108552446D01*
X151209589Y-108416679D01*
X151215205Y-108263567D01*
X151212091Y-107984856D01*
X151212091Y-107688834D01*
X151050158Y-107699092D01*
X151002766Y-107692161D01*
X150972214Y-107673868D01*
X150953615Y-107644408D01*
X150946660Y-107599441D01*
X150955931Y-107558200D01*
X150983660Y-107527000D01*
X151036072Y-107503999D01*
X151125995Y-107492645D01*
X151224364Y-107489531D01*
X151239751Y-107333643D01*
X151267284Y-107183897D01*
X151306487Y-107075226D01*
X151354515Y-106998420D01*
X151412122Y-106943723D01*
X151484448Y-106903383D01*
X151574755Y-106877531D01*
X151687540Y-106868178D01*
X151758882Y-106876251D01*
X151801787Y-106896436D01*
X151825643Y-106926237D01*
X151833994Y-106968378D01*
X151826077Y-107010813D01*
X151803847Y-107040247D01*
X151764755Y-107059769D01*
X151700821Y-107067480D01*
G37*
G36*
X152274822Y-107214025D02*
G01*
X152229076Y-107205282D01*
X152189734Y-107178854D01*
X152162851Y-107139916D01*
X152153922Y-107093858D01*
X152162854Y-107047815D01*
X152189734Y-107008953D01*
X152229083Y-106982454D01*
X152274822Y-106973690D01*
X152320467Y-106982472D01*
X152359361Y-107008953D01*
X152385882Y-107047780D01*
X152394715Y-107093858D01*
X152385885Y-107139952D01*
X152359361Y-107178854D01*
X152320474Y-107205264D01*
X152274822Y-107214025D01*
G37*
G36*
X152320892Y-108044665D02*
G01*
X152324464Y-108228763D01*
X152328128Y-108412769D01*
X152320991Y-108454414D01*
X152300468Y-108486683D01*
X152269038Y-108507953D01*
X152227744Y-108515351D01*
X152187146Y-108508010D01*
X152155387Y-108486683D01*
X152134510Y-108454376D01*
X152127269Y-108412769D01*
X152123697Y-108228763D01*
X152120125Y-108044665D01*
X152130291Y-107804238D01*
X152140550Y-107563812D01*
X152147835Y-107521350D01*
X152168668Y-107488982D01*
X152200434Y-107467584D01*
X152241025Y-107460222D01*
X152281521Y-107467583D01*
X152313199Y-107488982D01*
X152334103Y-107521357D01*
X152341409Y-107563812D01*
X152331151Y-107804238D01*
X152320892Y-108044665D01*
G37*
G36*
X153129916Y-108573970D02*
G01*
X153026545Y-108565570D01*
X152934985Y-108541341D01*
X152853157Y-108501923D01*
X152779489Y-108446841D01*
X152715332Y-108375399D01*
X152669734Y-108294366D01*
X152641706Y-108201830D01*
X152631936Y-108095040D01*
X152639933Y-107994141D01*
X152664545Y-107889706D01*
X152707256Y-107780485D01*
X152770238Y-107665295D01*
X152840460Y-107568076D01*
X152909399Y-107499321D01*
X152977559Y-107453796D01*
X153046049Y-107427750D01*
X153116544Y-107419189D01*
X153218862Y-107430108D01*
X153340942Y-107466176D01*
X153419049Y-107503569D01*
X153465735Y-107540203D01*
X153490115Y-107576197D01*
X153497746Y-107613179D01*
X153491365Y-107649757D01*
X153472101Y-107682147D01*
X153443284Y-107704829D01*
X153408628Y-107712281D01*
X153380610Y-107707825D01*
X153356787Y-107694695D01*
X153314289Y-107659982D01*
X153271061Y-107635816D01*
X153207481Y-107619090D01*
X153116544Y-107612630D01*
X153071173Y-107621449D01*
X153022963Y-107650320D01*
X152969560Y-107706078D01*
X152909548Y-107799018D01*
X152854475Y-107916176D01*
X152825162Y-108013496D01*
X152816309Y-108094857D01*
X152822476Y-108160936D01*
X152840064Y-108217283D01*
X152868544Y-108265808D01*
X152908541Y-108307806D01*
X152969593Y-108347344D01*
X153042366Y-108371860D01*
X153129916Y-108380529D01*
X153191574Y-108372877D01*
X153261075Y-108348106D01*
X153379960Y-108285366D01*
X153424015Y-108269155D01*
X153459038Y-108276559D01*
X153489594Y-108299380D01*
X153510431Y-108331917D01*
X153517255Y-108368348D01*
X153510223Y-108399669D01*
X153486726Y-108433083D01*
X153439892Y-108470446D01*
X153359444Y-108512604D01*
X153265050Y-108549130D01*
X153189746Y-108568296D01*
X153129916Y-108573970D01*
G37*
G36*
X154308623Y-107443911D02*
G01*
X154399954Y-107463601D01*
X154473924Y-107493928D01*
X154532958Y-107535007D01*
X154573284Y-107583708D01*
X154597597Y-107641281D01*
X154606090Y-107710449D01*
X154599602Y-107757769D01*
X154579729Y-107803720D01*
X154544497Y-107849632D01*
X154490318Y-107896287D01*
X154423850Y-107936358D01*
X154273064Y-108011509D01*
X153881604Y-108197805D01*
X153923567Y-108250450D01*
X153971039Y-108292825D01*
X154024486Y-108325849D01*
X154083020Y-108349203D01*
X154149037Y-108363736D01*
X154223880Y-108368806D01*
X154297050Y-108362721D01*
X154389843Y-108342153D01*
X154468344Y-108313887D01*
X154517451Y-108284130D01*
X154545548Y-108253584D01*
X154571804Y-108220793D01*
X154596349Y-108203968D01*
X154620378Y-108198813D01*
X154653974Y-108205483D01*
X154684400Y-108226107D01*
X154705710Y-108255945D01*
X154712610Y-108289488D01*
X154703270Y-108339484D01*
X154673883Y-108387860D01*
X154618944Y-108436650D01*
X154529153Y-108486317D01*
X154422961Y-108526031D01*
X154321550Y-108548940D01*
X154223788Y-108556384D01*
X154108192Y-108548378D01*
X154008806Y-108525674D01*
X153923043Y-108489573D01*
X153848815Y-108440430D01*
X153780990Y-108370872D01*
X153732579Y-108289564D01*
X153702575Y-108194164D01*
X153692011Y-108081210D01*
X153696792Y-108008486D01*
X153864202Y-108008486D01*
X154178817Y-107858277D01*
X154349065Y-107766740D01*
X154443149Y-107700832D01*
X154379697Y-107656657D01*
X154299022Y-107628641D01*
X154196220Y-107618492D01*
X154117311Y-107629367D01*
X154048917Y-107661250D01*
X153988216Y-107715761D01*
X153941086Y-107784941D01*
X153899228Y-107880310D01*
X153864202Y-108008486D01*
X153696792Y-108008486D01*
X153700756Y-107948187D01*
X153725820Y-107830748D01*
X153766052Y-107726582D01*
X153821154Y-107633787D01*
X153882686Y-107561288D01*
X153949929Y-107506795D01*
X154023608Y-107468283D01*
X154105078Y-107444848D01*
X154196220Y-107436775D01*
X154308623Y-107443911D01*
G37*
G36*
X154876097Y-111250562D02*
G01*
X154883023Y-111210690D01*
X154905314Y-111179487D01*
X154938645Y-111158942D01*
X154979594Y-111151918D01*
X155010183Y-111157744D01*
X155039144Y-111175956D01*
X155067705Y-111209895D01*
X155121111Y-111280430D01*
X155160945Y-111316690D01*
X155221946Y-111346856D01*
X155304303Y-111367087D01*
X155414011Y-111374667D01*
X155518246Y-111366925D01*
X155616199Y-111344078D01*
X155709117Y-111306157D01*
X155789599Y-111254375D01*
X155842428Y-111197207D01*
X155872985Y-111133809D01*
X155883323Y-111061609D01*
X155874714Y-111002324D01*
X155849152Y-110949795D01*
X155804734Y-110901943D01*
X155736778Y-110858094D01*
X155651825Y-110823013D01*
X155550730Y-110799304D01*
X155430497Y-110788485D01*
X155324159Y-110777278D01*
X155233048Y-110753465D01*
X155154808Y-110718143D01*
X155089263Y-110670646D01*
X155044893Y-110616422D01*
X155018475Y-110554310D01*
X155009362Y-110481746D01*
X155016762Y-110414265D01*
X155039186Y-110348569D01*
X155077992Y-110283301D01*
X155135809Y-110217482D01*
X155216357Y-110150553D01*
X155319360Y-110086832D01*
X155421104Y-110043028D01*
X155522646Y-110017355D01*
X155625220Y-110008861D01*
X155727122Y-110016671D01*
X155849618Y-110042384D01*
X155935986Y-110071506D01*
X155984715Y-110099886D01*
X156008500Y-110126963D01*
X156015581Y-110154033D01*
X156009368Y-110194374D01*
X155992767Y-110220772D01*
X155965537Y-110237139D01*
X155923349Y-110243335D01*
X155875044Y-110239225D01*
X155779917Y-110222360D01*
X155682776Y-110206056D01*
X155621098Y-110202302D01*
X155516829Y-110212438D01*
X155427187Y-110238747D01*
X155349531Y-110280337D01*
X155296774Y-110324028D01*
X155261770Y-110369544D01*
X155241532Y-110417632D01*
X155234767Y-110469748D01*
X155242354Y-110504880D01*
X155265951Y-110535809D01*
X155310815Y-110563976D01*
X155386442Y-110588358D01*
X155456014Y-110599459D01*
X155604703Y-110612630D01*
X155721209Y-110629681D01*
X155819327Y-110660647D01*
X155902003Y-110704332D01*
X155971526Y-110760549D01*
X156024769Y-110823921D01*
X156062114Y-110892622D01*
X156084687Y-110967861D01*
X156092426Y-111051351D01*
X156083400Y-111145239D01*
X156057084Y-111229494D01*
X156013478Y-111306180D01*
X155951083Y-111376709D01*
X155867020Y-111441712D01*
X155766740Y-111496338D01*
X155658568Y-111535691D01*
X155541183Y-111559819D01*
X155413003Y-111568108D01*
X155289658Y-111559777D01*
X155175757Y-111535421D01*
X155069812Y-111495476D01*
X154980298Y-111442222D01*
X154922040Y-111384349D01*
X154888336Y-111321279D01*
X154876097Y-111250562D01*
G37*
G36*
X157021892Y-110636535D02*
G01*
X156971151Y-110634520D01*
X156920501Y-110632413D01*
X156781099Y-110647801D01*
X156800608Y-111252668D01*
X156801616Y-111297639D01*
X156802623Y-111349846D01*
X156797638Y-111446561D01*
X156781908Y-111508592D01*
X156759259Y-111546261D01*
X156730897Y-111566962D01*
X156695004Y-111573970D01*
X156656670Y-111567279D01*
X156623837Y-111547317D01*
X156601155Y-111517291D01*
X156593612Y-111480638D01*
X156596635Y-111363677D01*
X156599749Y-111246806D01*
X156579324Y-110647801D01*
X156351812Y-110630490D01*
X156310371Y-110618850D01*
X156283142Y-110598794D01*
X156266623Y-110570014D01*
X156260587Y-110529373D01*
X156267686Y-110487827D01*
X156288248Y-110454910D01*
X156319482Y-110432768D01*
X156358956Y-110425234D01*
X156574195Y-110442637D01*
X156569524Y-110303693D01*
X156564944Y-110177939D01*
X156572456Y-110138653D01*
X156594620Y-110107230D01*
X156627466Y-110086303D01*
X156667435Y-110079203D01*
X156705949Y-110087228D01*
X156736099Y-110111114D01*
X156759743Y-110155287D01*
X156774963Y-110229230D01*
X156778077Y-110320088D01*
X156776062Y-110379347D01*
X156774963Y-110442637D01*
X156920501Y-110426242D01*
X157017934Y-110429571D01*
X157059811Y-110436500D01*
X157094242Y-110456034D01*
X157114796Y-110486821D01*
X157122367Y-110532946D01*
X157115128Y-110574560D01*
X157094157Y-110607317D01*
X157062430Y-110629069D01*
X157021892Y-110636535D01*
G37*
G36*
X158161743Y-110912133D02*
G01*
X158162750Y-111133142D01*
X158163758Y-111354151D01*
X158167330Y-111422753D01*
X158170994Y-111491263D01*
X158163410Y-111531677D01*
X158141226Y-111563437D01*
X158108449Y-111584432D01*
X158068503Y-111591555D01*
X158023298Y-111581425D01*
X157990572Y-111551579D01*
X157968119Y-111495659D01*
X157880442Y-111531999D01*
X157782699Y-111554455D01*
X157673013Y-111562246D01*
X157585224Y-111555060D01*
X157511997Y-111534858D01*
X157450630Y-111502803D01*
X157394860Y-111452857D01*
X157356527Y-111390041D01*
X157334859Y-111311286D01*
X157304172Y-111046549D01*
X157294833Y-110827869D01*
X157302008Y-110683293D01*
X157325608Y-110508308D01*
X157343780Y-110457295D01*
X157375110Y-110429171D01*
X157422969Y-110419189D01*
X157463769Y-110426396D01*
X157496700Y-110447491D01*
X157518882Y-110479339D01*
X157526467Y-110519848D01*
X157511538Y-110670882D01*
X157496700Y-110829059D01*
X157499758Y-110994432D01*
X157507966Y-111122884D01*
X157523095Y-111238850D01*
X157541855Y-111319072D01*
X157608441Y-111347373D01*
X157673013Y-111357082D01*
X157811496Y-111346447D01*
X157962990Y-111312935D01*
X157961983Y-111104291D01*
X157959876Y-110904897D01*
X157965137Y-110690193D01*
X157979385Y-110519573D01*
X157990683Y-110476266D01*
X158010467Y-110448112D01*
X158038814Y-110431200D01*
X158078761Y-110425051D01*
X158119532Y-110432340D01*
X158152492Y-110453719D01*
X158174218Y-110485772D01*
X158180153Y-110525343D01*
X158161743Y-110912133D01*
G37*
G36*
X159350682Y-109880641D02*
G01*
X159378262Y-109898381D01*
X159395506Y-109927728D01*
X159402069Y-109973507D01*
X159394617Y-110157912D01*
X159361128Y-110603287D01*
X159351920Y-110754185D01*
X159348855Y-110904897D01*
X159358128Y-111225497D01*
X159380545Y-111420829D01*
X159382652Y-111444460D01*
X159375397Y-111482105D01*
X159353984Y-111512146D01*
X159322855Y-111532185D01*
X159287306Y-111538799D01*
X159251057Y-111529871D01*
X159220384Y-111501781D01*
X159194066Y-111446658D01*
X159118051Y-111494688D01*
X159040834Y-111528632D01*
X158959997Y-111549409D01*
X158875420Y-111556384D01*
X158771699Y-111547157D01*
X158679955Y-111520485D01*
X158597899Y-111476830D01*
X158523894Y-111415242D01*
X158461720Y-111338924D01*
X158417308Y-111253135D01*
X158389973Y-111156019D01*
X158380462Y-111045031D01*
X158380664Y-111042283D01*
X158561904Y-111042283D01*
X158572382Y-111126030D01*
X158603211Y-111200545D01*
X158655602Y-111268330D01*
X158722781Y-111321536D01*
X158795269Y-111352509D01*
X158875420Y-111362944D01*
X158957116Y-111354538D01*
X159020867Y-111331345D01*
X159060222Y-111305871D01*
X159134623Y-111246898D01*
X159164390Y-111215299D01*
X159161276Y-111039169D01*
X159162284Y-110921108D01*
X159164390Y-110801033D01*
X159117837Y-110727474D01*
X159060801Y-110677293D01*
X158991497Y-110646810D01*
X158906195Y-110636077D01*
X158820731Y-110643236D01*
X158751109Y-110663175D01*
X158694246Y-110694550D01*
X158647908Y-110737377D01*
X158612766Y-110789631D01*
X158585907Y-110855711D01*
X158568321Y-110938689D01*
X158561904Y-111042283D01*
X158380664Y-111042283D01*
X158390462Y-110909100D01*
X158418787Y-110792923D01*
X158463868Y-110693194D01*
X158525451Y-110607317D01*
X158603432Y-110535217D01*
X158690766Y-110484393D01*
X158789368Y-110453387D01*
X158902073Y-110442637D01*
X158980930Y-110447468D01*
X159040728Y-110460378D01*
X159085439Y-110479548D01*
X159181793Y-110550256D01*
X159199576Y-110151708D01*
X159215590Y-109965905D01*
X159233157Y-109912753D01*
X159263324Y-109884061D01*
X159308829Y-109874039D01*
X159350682Y-109880641D01*
G37*
G36*
X160543385Y-110595960D02*
G01*
X160188836Y-111362119D01*
X160067767Y-111631341D01*
X159987977Y-111830241D01*
X159920383Y-112028994D01*
X159897050Y-112070777D01*
X159866967Y-112093737D01*
X159828151Y-112101534D01*
X159787921Y-112094485D01*
X159753779Y-112073507D01*
X159730348Y-112042100D01*
X159722546Y-112003806D01*
X159735851Y-111930704D01*
X159796466Y-111757405D01*
X159943922Y-111414693D01*
X159577100Y-110705778D01*
X159530938Y-110630673D01*
X159509229Y-110584347D01*
X159503277Y-110551447D01*
X159511155Y-110513411D01*
X159535517Y-110479548D01*
X159570288Y-110456031D01*
X159607783Y-110448499D01*
X159650134Y-110457070D01*
X159680598Y-110481746D01*
X159789228Y-110649177D01*
X159913308Y-110875846D01*
X160054564Y-111173991D01*
X160206239Y-110816878D01*
X160289371Y-110641303D01*
X160364050Y-110501163D01*
X160389606Y-110467279D01*
X160417858Y-110448740D01*
X160450146Y-110442637D01*
X160489433Y-110450053D01*
X160524334Y-110472679D01*
X160548717Y-110505857D01*
X160556666Y-110544120D01*
X160553631Y-110567348D01*
X160543385Y-110595960D01*
G37*
D20*
G36*
X140354913Y-120314118D02*
G01*
X140354913Y-123028145D01*
X139883219Y-123028145D01*
X139883219Y-120314118D01*
X139156352Y-120314118D01*
X139156352Y-119868619D01*
X141090755Y-119868619D01*
X141090755Y-120314118D01*
X140354913Y-120314118D01*
G37*
G36*
X141427811Y-119575528D02*
G01*
X141885033Y-119575528D01*
X141885033Y-121202552D01*
X142014654Y-121103879D01*
X142146981Y-121035937D01*
X142283750Y-120995807D01*
X142427252Y-120982367D01*
X142592965Y-120997051D01*
X142735576Y-121039007D01*
X142859439Y-121106890D01*
X142967640Y-121201819D01*
X143037035Y-121300482D01*
X143090709Y-121429602D01*
X143126319Y-121596605D01*
X143139464Y-121810533D01*
X143139464Y-123034007D01*
X142682242Y-123034007D01*
X142682242Y-121851932D01*
X142670683Y-121693127D01*
X142640615Y-121581112D01*
X142596879Y-121504069D01*
X142532457Y-121446616D01*
X142443791Y-121409933D01*
X142322655Y-121396358D01*
X142168662Y-121415202D01*
X142058866Y-121465929D01*
X141981570Y-121546018D01*
X141933462Y-121653137D01*
X141898756Y-121819678D01*
X141885033Y-122067354D01*
X141885033Y-123034007D01*
X141427811Y-123034007D01*
X141427811Y-119575528D01*
G37*
G36*
X144812705Y-121001315D02*
G01*
X144996987Y-121055213D01*
X145155341Y-121141991D01*
X145292038Y-121262818D01*
X145398855Y-121408249D01*
X145477778Y-121581469D01*
X145527887Y-121787933D01*
X145545745Y-122034565D01*
X145545745Y-122143009D01*
X144116192Y-122143009D01*
X144143610Y-122301460D01*
X144197278Y-122430192D01*
X144275926Y-122535018D01*
X144377822Y-122614155D01*
X144496894Y-122661968D01*
X144638261Y-122678633D01*
X144750455Y-122668778D01*
X144844223Y-122640977D01*
X144923109Y-122596568D01*
X145030637Y-122492287D01*
X145174984Y-122292852D01*
X145564246Y-122510289D01*
X145469312Y-122656597D01*
X145373737Y-122774621D01*
X145268439Y-122876048D01*
X145158498Y-122955788D01*
X145039446Y-123017188D01*
X144910653Y-123059652D01*
X144774292Y-123084116D01*
X144621958Y-123092625D01*
X144402703Y-123073416D01*
X144213644Y-123018510D01*
X144049142Y-122929686D01*
X143905166Y-122805578D01*
X143789659Y-122653751D01*
X143705716Y-122478479D01*
X143653252Y-122275308D01*
X143634789Y-122038412D01*
X143652638Y-121803480D01*
X143661570Y-121767852D01*
X144146783Y-121767852D01*
X145072586Y-121767852D01*
X145020318Y-121628484D01*
X144949252Y-121527101D01*
X144859600Y-121456110D01*
X144747918Y-121412097D01*
X144607669Y-121396358D01*
X144525618Y-121402926D01*
X144449949Y-121422187D01*
X144379406Y-121453593D01*
X144315677Y-121496376D01*
X144259820Y-121549545D01*
X144212179Y-121613063D01*
X144174825Y-121684822D01*
X144146783Y-121767852D01*
X143661570Y-121767852D01*
X143703451Y-121600791D01*
X143784829Y-121424906D01*
X143896739Y-121271611D01*
X144037862Y-121146151D01*
X144198656Y-121056727D01*
X144383014Y-121001616D01*
X144596495Y-120982367D01*
X144812705Y-121001315D01*
G37*
G36*
X150146914Y-123028145D02*
G01*
X149623929Y-123028145D01*
X149291636Y-122260245D01*
X147936089Y-122260245D01*
X147583463Y-123028145D01*
X147068721Y-123028145D01*
X147634661Y-121814746D01*
X148135024Y-121814746D01*
X149096914Y-121814746D01*
X148627235Y-120738734D01*
X148135024Y-121814746D01*
X147634661Y-121814746D01*
X148635478Y-119668951D01*
X150146914Y-123028145D01*
G37*
G36*
X150455026Y-121040985D02*
G01*
X150923973Y-121040985D01*
X150923973Y-121223801D01*
X151052750Y-121115221D01*
X151185009Y-121040872D01*
X151322660Y-120997057D01*
X151468390Y-120982367D01*
X151639560Y-120997337D01*
X151783835Y-121039714D01*
X151906311Y-121107616D01*
X152010609Y-121201819D01*
X152077944Y-121298263D01*
X152130391Y-121426269D01*
X152165412Y-121593804D01*
X152178404Y-121810533D01*
X152178404Y-123034007D01*
X151709458Y-123034007D01*
X151709458Y-121918977D01*
X151697796Y-121721147D01*
X151668603Y-121591619D01*
X151628491Y-121511030D01*
X151566413Y-121450665D01*
X151474151Y-121411298D01*
X151340162Y-121396358D01*
X151196669Y-121415044D01*
X151092480Y-121465976D01*
X151017395Y-121547850D01*
X150971064Y-121653441D01*
X150937367Y-121820041D01*
X150923973Y-122070468D01*
X150923973Y-123034007D01*
X150455026Y-123034007D01*
X150455026Y-121040985D01*
G37*
G36*
X153316148Y-122666726D02*
G01*
X152417823Y-121040985D01*
X152953081Y-121040985D01*
X153564177Y-122188987D01*
X154134423Y-121040985D01*
X154655209Y-121040985D01*
X153063906Y-124124307D01*
X152536708Y-124124307D01*
X153316148Y-122666726D01*
G37*
G36*
X156247783Y-121009969D02*
G01*
X156425134Y-121066630D01*
X156584101Y-121160073D01*
X156727915Y-121293410D01*
X156845230Y-121451093D01*
X156929501Y-121627604D01*
X156981492Y-121826512D01*
X156999574Y-122052517D01*
X156981739Y-122273264D01*
X156930331Y-122468558D01*
X156846767Y-122642856D01*
X156730113Y-122799533D01*
X156586544Y-122930172D01*
X156428542Y-123021720D01*
X156252991Y-123077185D01*
X156055270Y-123096288D01*
X155886191Y-123079109D01*
X155726892Y-123027910D01*
X155574193Y-122941055D01*
X155425857Y-122814188D01*
X155425857Y-124124307D01*
X154968634Y-124124307D01*
X154968634Y-122042258D01*
X155399295Y-122042258D01*
X155418005Y-122223161D01*
X155471265Y-122375185D01*
X155557931Y-122504427D01*
X155672422Y-122602747D01*
X155807537Y-122661740D01*
X155969724Y-122682297D01*
X156122284Y-122661955D01*
X156252926Y-122602742D01*
X156367230Y-122502412D01*
X156455457Y-122374472D01*
X156509157Y-122226371D01*
X156527880Y-122052517D01*
X156509200Y-121867451D01*
X156456420Y-121714282D01*
X156371260Y-121586318D01*
X156255578Y-121484699D01*
X156124231Y-121424903D01*
X155971739Y-121404418D01*
X155809330Y-121424733D01*
X155673427Y-121483083D01*
X155557748Y-121580273D01*
X155471666Y-121705878D01*
X155418250Y-121857523D01*
X155399295Y-122042258D01*
X154968634Y-122042258D01*
X154968634Y-121040985D01*
X155425857Y-121040985D01*
X155425857Y-121259888D01*
X155571510Y-121139116D01*
X155722028Y-121056071D01*
X155879582Y-121006945D01*
X156047210Y-120990427D01*
X156247783Y-121009969D01*
G37*
G36*
X158500161Y-120999737D02*
G01*
X158658109Y-121051608D01*
X158810026Y-121139862D01*
X158958158Y-121269230D01*
X158958158Y-121040985D01*
X159420693Y-121040985D01*
X159420693Y-123034007D01*
X158958158Y-123034007D01*
X158958158Y-122824446D01*
X158806669Y-122946077D01*
X158655544Y-123028608D01*
X158502706Y-123076691D01*
X158345414Y-123092625D01*
X158144354Y-123073313D01*
X157966132Y-123017292D01*
X157806032Y-122924935D01*
X157660862Y-122793305D01*
X157544895Y-122633492D01*
X157461623Y-122455521D01*
X157410314Y-122255964D01*
X157392500Y-122030352D01*
X157392662Y-122028337D01*
X157864194Y-122028337D01*
X157882553Y-122214252D01*
X157934354Y-122367974D01*
X158017701Y-122496184D01*
X158132945Y-122598187D01*
X158263628Y-122658120D01*
X158415206Y-122678633D01*
X158578155Y-122658220D01*
X158714014Y-122599666D01*
X158829198Y-122502229D01*
X158915325Y-122372584D01*
X158968301Y-122220067D01*
X158986917Y-122038595D01*
X158968297Y-121857000D01*
X158915318Y-121704426D01*
X158829198Y-121574778D01*
X158713963Y-121475904D01*
X158579418Y-121416847D01*
X158419419Y-121396358D01*
X158268955Y-121416583D01*
X158138197Y-121475827D01*
X158021914Y-121576793D01*
X157935253Y-121706209D01*
X157882537Y-121854957D01*
X157864194Y-122028337D01*
X157392662Y-122028337D01*
X157410279Y-121809060D01*
X157461510Y-121613341D01*
X157544745Y-121438739D01*
X157660862Y-121281869D01*
X157805164Y-121149657D01*
X157963018Y-121057305D01*
X158137446Y-121001528D01*
X158332957Y-120982367D01*
X158500161Y-120999737D01*
G37*
G36*
X161938348Y-123034007D02*
G01*
X161469402Y-123034007D01*
X161469402Y-122824446D01*
X161324834Y-122944790D01*
X161175819Y-123027419D01*
X161020211Y-123076231D01*
X160855009Y-123092625D01*
X160657060Y-123073402D01*
X160480959Y-123017535D01*
X160322110Y-122925211D01*
X160177418Y-122793305D01*
X160061964Y-122633558D01*
X159979026Y-122455606D01*
X159927906Y-122256025D01*
X159910155Y-122030352D01*
X159910317Y-122028337D01*
X160381849Y-122028337D01*
X160400132Y-122214303D01*
X160451700Y-122368027D01*
X160534623Y-122496184D01*
X160649279Y-122598231D01*
X160779235Y-122658138D01*
X160929930Y-122678633D01*
X161091873Y-122658240D01*
X161226949Y-122599713D01*
X161341541Y-122502229D01*
X161427243Y-122372636D01*
X161479987Y-122220117D01*
X161498528Y-122038595D01*
X161479983Y-121856950D01*
X161427235Y-121704374D01*
X161341541Y-121574778D01*
X161226898Y-121475855D01*
X161093137Y-121416826D01*
X160934143Y-121396358D01*
X160784561Y-121416565D01*
X160654530Y-121475782D01*
X160538836Y-121576793D01*
X160452604Y-121706158D01*
X160400118Y-121854909D01*
X160381849Y-122028337D01*
X159910317Y-122028337D01*
X159927836Y-121810183D01*
X159978822Y-121615125D01*
X160061716Y-121440801D01*
X160177418Y-121283884D01*
X160320358Y-121150694D01*
X160476945Y-121057756D01*
X160650216Y-121001647D01*
X160844751Y-120982367D01*
X161012311Y-120999699D01*
X161170284Y-121051405D01*
X161321898Y-121139280D01*
X161469402Y-121267948D01*
X161469402Y-119575528D01*
X161938348Y-119575528D01*
X161938348Y-123034007D01*
G37*
D21*
X111466238Y-100723200D02*
X111609095Y-100770819D01*
X111609095Y-100770819D02*
X111847190Y-100770819D01*
X111847190Y-100770819D02*
X111942428Y-100723200D01*
X111942428Y-100723200D02*
X111990047Y-100675580D01*
X111990047Y-100675580D02*
X112037666Y-100580342D01*
X112037666Y-100580342D02*
X112037666Y-100485104D01*
X112037666Y-100485104D02*
X111990047Y-100389866D01*
X111990047Y-100389866D02*
X111942428Y-100342247D01*
X111942428Y-100342247D02*
X111847190Y-100294628D01*
X111847190Y-100294628D02*
X111656714Y-100247009D01*
X111656714Y-100247009D02*
X111561476Y-100199390D01*
X111561476Y-100199390D02*
X111513857Y-100151771D01*
X111513857Y-100151771D02*
X111466238Y-100056533D01*
X111466238Y-100056533D02*
X111466238Y-99961295D01*
X111466238Y-99961295D02*
X111513857Y-99866057D01*
X111513857Y-99866057D02*
X111561476Y-99818438D01*
X111561476Y-99818438D02*
X111656714Y-99770819D01*
X111656714Y-99770819D02*
X111894809Y-99770819D01*
X111894809Y-99770819D02*
X112037666Y-99818438D01*
X112371000Y-99770819D02*
X112609095Y-100770819D01*
X112609095Y-100770819D02*
X112799571Y-100056533D01*
X112799571Y-100056533D02*
X112990047Y-100770819D01*
X112990047Y-100770819D02*
X113228143Y-99770819D01*
X113513857Y-99770819D02*
X114180523Y-99770819D01*
X114180523Y-99770819D02*
X113751952Y-100770819D01*
D17*
X121185714Y-91262219D02*
X121185714Y-90262219D01*
X121185714Y-90262219D02*
X121423809Y-90262219D01*
X121423809Y-90262219D02*
X121566666Y-90309838D01*
X121566666Y-90309838D02*
X121661904Y-90405076D01*
X121661904Y-90405076D02*
X121709523Y-90500314D01*
X121709523Y-90500314D02*
X121757142Y-90690790D01*
X121757142Y-90690790D02*
X121757142Y-90833647D01*
X121757142Y-90833647D02*
X121709523Y-91024123D01*
X121709523Y-91024123D02*
X121661904Y-91119361D01*
X121661904Y-91119361D02*
X121566666Y-91214600D01*
X121566666Y-91214600D02*
X121423809Y-91262219D01*
X121423809Y-91262219D02*
X121185714Y-91262219D01*
X122709523Y-91262219D02*
X122138095Y-91262219D01*
X122423809Y-91262219D02*
X122423809Y-90262219D01*
X122423809Y-90262219D02*
X122328571Y-90405076D01*
X122328571Y-90405076D02*
X122233333Y-90500314D01*
X122233333Y-90500314D02*
X122138095Y-90547933D01*
X123090476Y-90357457D02*
X123138095Y-90309838D01*
X123138095Y-90309838D02*
X123233333Y-90262219D01*
X123233333Y-90262219D02*
X123471428Y-90262219D01*
X123471428Y-90262219D02*
X123566666Y-90309838D01*
X123566666Y-90309838D02*
X123614285Y-90357457D01*
X123614285Y-90357457D02*
X123661904Y-90452695D01*
X123661904Y-90452695D02*
X123661904Y-90547933D01*
X123661904Y-90547933D02*
X123614285Y-90690790D01*
X123614285Y-90690790D02*
X123042857Y-91262219D01*
X123042857Y-91262219D02*
X123661904Y-91262219D01*
D21*
X143366238Y-81583200D02*
X143509095Y-81630819D01*
X143509095Y-81630819D02*
X143747190Y-81630819D01*
X143747190Y-81630819D02*
X143842428Y-81583200D01*
X143842428Y-81583200D02*
X143890047Y-81535580D01*
X143890047Y-81535580D02*
X143937666Y-81440342D01*
X143937666Y-81440342D02*
X143937666Y-81345104D01*
X143937666Y-81345104D02*
X143890047Y-81249866D01*
X143890047Y-81249866D02*
X143842428Y-81202247D01*
X143842428Y-81202247D02*
X143747190Y-81154628D01*
X143747190Y-81154628D02*
X143556714Y-81107009D01*
X143556714Y-81107009D02*
X143461476Y-81059390D01*
X143461476Y-81059390D02*
X143413857Y-81011771D01*
X143413857Y-81011771D02*
X143366238Y-80916533D01*
X143366238Y-80916533D02*
X143366238Y-80821295D01*
X143366238Y-80821295D02*
X143413857Y-80726057D01*
X143413857Y-80726057D02*
X143461476Y-80678438D01*
X143461476Y-80678438D02*
X143556714Y-80630819D01*
X143556714Y-80630819D02*
X143794809Y-80630819D01*
X143794809Y-80630819D02*
X143937666Y-80678438D01*
X144271000Y-80630819D02*
X144509095Y-81630819D01*
X144509095Y-81630819D02*
X144699571Y-80916533D01*
X144699571Y-80916533D02*
X144890047Y-81630819D01*
X144890047Y-81630819D02*
X145128143Y-80630819D01*
X145413857Y-80630819D02*
X146032904Y-80630819D01*
X146032904Y-80630819D02*
X145699571Y-81011771D01*
X145699571Y-81011771D02*
X145842428Y-81011771D01*
X145842428Y-81011771D02*
X145937666Y-81059390D01*
X145937666Y-81059390D02*
X145985285Y-81107009D01*
X145985285Y-81107009D02*
X146032904Y-81202247D01*
X146032904Y-81202247D02*
X146032904Y-81440342D01*
X146032904Y-81440342D02*
X145985285Y-81535580D01*
X145985285Y-81535580D02*
X145937666Y-81583200D01*
X145937666Y-81583200D02*
X145842428Y-81630819D01*
X145842428Y-81630819D02*
X145556714Y-81630819D01*
X145556714Y-81630819D02*
X145461476Y-81583200D01*
X145461476Y-81583200D02*
X145413857Y-81535580D01*
X184166667Y-62517200D02*
X184309524Y-62564819D01*
X184309524Y-62564819D02*
X184547619Y-62564819D01*
X184547619Y-62564819D02*
X184642857Y-62517200D01*
X184642857Y-62517200D02*
X184690476Y-62469580D01*
X184690476Y-62469580D02*
X184738095Y-62374342D01*
X184738095Y-62374342D02*
X184738095Y-62279104D01*
X184738095Y-62279104D02*
X184690476Y-62183866D01*
X184690476Y-62183866D02*
X184642857Y-62136247D01*
X184642857Y-62136247D02*
X184547619Y-62088628D01*
X184547619Y-62088628D02*
X184357143Y-62041009D01*
X184357143Y-62041009D02*
X184261905Y-61993390D01*
X184261905Y-61993390D02*
X184214286Y-61945771D01*
X184214286Y-61945771D02*
X184166667Y-61850533D01*
X184166667Y-61850533D02*
X184166667Y-61755295D01*
X184166667Y-61755295D02*
X184214286Y-61660057D01*
X184214286Y-61660057D02*
X184261905Y-61612438D01*
X184261905Y-61612438D02*
X184357143Y-61564819D01*
X184357143Y-61564819D02*
X184595238Y-61564819D01*
X184595238Y-61564819D02*
X184738095Y-61612438D01*
X185071429Y-61564819D02*
X185309524Y-62564819D01*
X185309524Y-62564819D02*
X185500000Y-61850533D01*
X185500000Y-61850533D02*
X185690476Y-62564819D01*
X185690476Y-62564819D02*
X185928572Y-61564819D01*
X186738095Y-61564819D02*
X186547619Y-61564819D01*
X186547619Y-61564819D02*
X186452381Y-61612438D01*
X186452381Y-61612438D02*
X186404762Y-61660057D01*
X186404762Y-61660057D02*
X186309524Y-61802914D01*
X186309524Y-61802914D02*
X186261905Y-61993390D01*
X186261905Y-61993390D02*
X186261905Y-62374342D01*
X186261905Y-62374342D02*
X186309524Y-62469580D01*
X186309524Y-62469580D02*
X186357143Y-62517200D01*
X186357143Y-62517200D02*
X186452381Y-62564819D01*
X186452381Y-62564819D02*
X186642857Y-62564819D01*
X186642857Y-62564819D02*
X186738095Y-62517200D01*
X186738095Y-62517200D02*
X186785714Y-62469580D01*
X186785714Y-62469580D02*
X186833333Y-62374342D01*
X186833333Y-62374342D02*
X186833333Y-62136247D01*
X186833333Y-62136247D02*
X186785714Y-62041009D01*
X186785714Y-62041009D02*
X186738095Y-61993390D01*
X186738095Y-61993390D02*
X186642857Y-61945771D01*
X186642857Y-61945771D02*
X186452381Y-61945771D01*
X186452381Y-61945771D02*
X186357143Y-61993390D01*
X186357143Y-61993390D02*
X186309524Y-62041009D01*
X186309524Y-62041009D02*
X186261905Y-62136247D01*
D17*
X159685714Y-91262219D02*
X159685714Y-90262219D01*
X159685714Y-90262219D02*
X159923809Y-90262219D01*
X159923809Y-90262219D02*
X160066666Y-90309838D01*
X160066666Y-90309838D02*
X160161904Y-90405076D01*
X160161904Y-90405076D02*
X160209523Y-90500314D01*
X160209523Y-90500314D02*
X160257142Y-90690790D01*
X160257142Y-90690790D02*
X160257142Y-90833647D01*
X160257142Y-90833647D02*
X160209523Y-91024123D01*
X160209523Y-91024123D02*
X160161904Y-91119361D01*
X160161904Y-91119361D02*
X160066666Y-91214600D01*
X160066666Y-91214600D02*
X159923809Y-91262219D01*
X159923809Y-91262219D02*
X159685714Y-91262219D01*
X161209523Y-91262219D02*
X160638095Y-91262219D01*
X160923809Y-91262219D02*
X160923809Y-90262219D01*
X160923809Y-90262219D02*
X160828571Y-90405076D01*
X160828571Y-90405076D02*
X160733333Y-90500314D01*
X160733333Y-90500314D02*
X160638095Y-90547933D01*
X162066666Y-90595552D02*
X162066666Y-91262219D01*
X161828571Y-90214600D02*
X161590476Y-90928885D01*
X161590476Y-90928885D02*
X162209523Y-90928885D01*
X108185714Y-110762219D02*
X108185714Y-109762219D01*
X108185714Y-109762219D02*
X108423809Y-109762219D01*
X108423809Y-109762219D02*
X108566666Y-109809838D01*
X108566666Y-109809838D02*
X108661904Y-109905076D01*
X108661904Y-109905076D02*
X108709523Y-110000314D01*
X108709523Y-110000314D02*
X108757142Y-110190790D01*
X108757142Y-110190790D02*
X108757142Y-110333647D01*
X108757142Y-110333647D02*
X108709523Y-110524123D01*
X108709523Y-110524123D02*
X108661904Y-110619361D01*
X108661904Y-110619361D02*
X108566666Y-110714600D01*
X108566666Y-110714600D02*
X108423809Y-110762219D01*
X108423809Y-110762219D02*
X108185714Y-110762219D01*
X109709523Y-110762219D02*
X109138095Y-110762219D01*
X109423809Y-110762219D02*
X109423809Y-109762219D01*
X109423809Y-109762219D02*
X109328571Y-109905076D01*
X109328571Y-109905076D02*
X109233333Y-110000314D01*
X109233333Y-110000314D02*
X109138095Y-110047933D01*
X110042857Y-109762219D02*
X110709523Y-109762219D01*
X110709523Y-109762219D02*
X110280952Y-110762219D01*
D21*
X112755047Y-53717200D02*
X112897904Y-53764819D01*
X112897904Y-53764819D02*
X113135999Y-53764819D01*
X113135999Y-53764819D02*
X113231237Y-53717200D01*
X113231237Y-53717200D02*
X113278856Y-53669580D01*
X113278856Y-53669580D02*
X113326475Y-53574342D01*
X113326475Y-53574342D02*
X113326475Y-53479104D01*
X113326475Y-53479104D02*
X113278856Y-53383866D01*
X113278856Y-53383866D02*
X113231237Y-53336247D01*
X113231237Y-53336247D02*
X113135999Y-53288628D01*
X113135999Y-53288628D02*
X112945523Y-53241009D01*
X112945523Y-53241009D02*
X112850285Y-53193390D01*
X112850285Y-53193390D02*
X112802666Y-53145771D01*
X112802666Y-53145771D02*
X112755047Y-53050533D01*
X112755047Y-53050533D02*
X112755047Y-52955295D01*
X112755047Y-52955295D02*
X112802666Y-52860057D01*
X112802666Y-52860057D02*
X112850285Y-52812438D01*
X112850285Y-52812438D02*
X112945523Y-52764819D01*
X112945523Y-52764819D02*
X113183618Y-52764819D01*
X113183618Y-52764819D02*
X113326475Y-52812438D01*
X113659809Y-52764819D02*
X113897904Y-53764819D01*
X113897904Y-53764819D02*
X114088380Y-53050533D01*
X114088380Y-53050533D02*
X114278856Y-53764819D01*
X114278856Y-53764819D02*
X114516952Y-52764819D01*
X115421713Y-53764819D02*
X114850285Y-53764819D01*
X115135999Y-53764819D02*
X115135999Y-52764819D01*
X115135999Y-52764819D02*
X115040761Y-52907676D01*
X115040761Y-52907676D02*
X114945523Y-53002914D01*
X114945523Y-53002914D02*
X114850285Y-53050533D01*
X116040761Y-52764819D02*
X116135999Y-52764819D01*
X116135999Y-52764819D02*
X116231237Y-52812438D01*
X116231237Y-52812438D02*
X116278856Y-52860057D01*
X116278856Y-52860057D02*
X116326475Y-52955295D01*
X116326475Y-52955295D02*
X116374094Y-53145771D01*
X116374094Y-53145771D02*
X116374094Y-53383866D01*
X116374094Y-53383866D02*
X116326475Y-53574342D01*
X116326475Y-53574342D02*
X116278856Y-53669580D01*
X116278856Y-53669580D02*
X116231237Y-53717200D01*
X116231237Y-53717200D02*
X116135999Y-53764819D01*
X116135999Y-53764819D02*
X116040761Y-53764819D01*
X116040761Y-53764819D02*
X115945523Y-53717200D01*
X115945523Y-53717200D02*
X115897904Y-53669580D01*
X115897904Y-53669580D02*
X115850285Y-53574342D01*
X115850285Y-53574342D02*
X115802666Y-53383866D01*
X115802666Y-53383866D02*
X115802666Y-53145771D01*
X115802666Y-53145771D02*
X115850285Y-52955295D01*
X115850285Y-52955295D02*
X115897904Y-52860057D01*
X115897904Y-52860057D02*
X115945523Y-52812438D01*
X115945523Y-52812438D02*
X116040761Y-52764819D01*
X177286238Y-120118200D02*
X177429095Y-120165819D01*
X177429095Y-120165819D02*
X177667190Y-120165819D01*
X177667190Y-120165819D02*
X177762428Y-120118200D01*
X177762428Y-120118200D02*
X177810047Y-120070580D01*
X177810047Y-120070580D02*
X177857666Y-119975342D01*
X177857666Y-119975342D02*
X177857666Y-119880104D01*
X177857666Y-119880104D02*
X177810047Y-119784866D01*
X177810047Y-119784866D02*
X177762428Y-119737247D01*
X177762428Y-119737247D02*
X177667190Y-119689628D01*
X177667190Y-119689628D02*
X177476714Y-119642009D01*
X177476714Y-119642009D02*
X177381476Y-119594390D01*
X177381476Y-119594390D02*
X177333857Y-119546771D01*
X177333857Y-119546771D02*
X177286238Y-119451533D01*
X177286238Y-119451533D02*
X177286238Y-119356295D01*
X177286238Y-119356295D02*
X177333857Y-119261057D01*
X177333857Y-119261057D02*
X177381476Y-119213438D01*
X177381476Y-119213438D02*
X177476714Y-119165819D01*
X177476714Y-119165819D02*
X177714809Y-119165819D01*
X177714809Y-119165819D02*
X177857666Y-119213438D01*
X178191000Y-119165819D02*
X178429095Y-120165819D01*
X178429095Y-120165819D02*
X178619571Y-119451533D01*
X178619571Y-119451533D02*
X178810047Y-120165819D01*
X178810047Y-120165819D02*
X179048143Y-119165819D01*
X179476714Y-120165819D02*
X179667190Y-120165819D01*
X179667190Y-120165819D02*
X179762428Y-120118200D01*
X179762428Y-120118200D02*
X179810047Y-120070580D01*
X179810047Y-120070580D02*
X179905285Y-119927723D01*
X179905285Y-119927723D02*
X179952904Y-119737247D01*
X179952904Y-119737247D02*
X179952904Y-119356295D01*
X179952904Y-119356295D02*
X179905285Y-119261057D01*
X179905285Y-119261057D02*
X179857666Y-119213438D01*
X179857666Y-119213438D02*
X179762428Y-119165819D01*
X179762428Y-119165819D02*
X179571952Y-119165819D01*
X179571952Y-119165819D02*
X179476714Y-119213438D01*
X179476714Y-119213438D02*
X179429095Y-119261057D01*
X179429095Y-119261057D02*
X179381476Y-119356295D01*
X179381476Y-119356295D02*
X179381476Y-119594390D01*
X179381476Y-119594390D02*
X179429095Y-119689628D01*
X179429095Y-119689628D02*
X179476714Y-119737247D01*
X179476714Y-119737247D02*
X179571952Y-119784866D01*
X179571952Y-119784866D02*
X179762428Y-119784866D01*
X179762428Y-119784866D02*
X179857666Y-119737247D01*
X179857666Y-119737247D02*
X179905285Y-119689628D01*
X179905285Y-119689628D02*
X179952904Y-119594390D01*
X163754819Y-55463333D02*
X164469104Y-55463333D01*
X164469104Y-55463333D02*
X164611961Y-55510952D01*
X164611961Y-55510952D02*
X164707200Y-55606190D01*
X164707200Y-55606190D02*
X164754819Y-55749047D01*
X164754819Y-55749047D02*
X164754819Y-55844285D01*
X164754819Y-54463333D02*
X164754819Y-55034761D01*
X164754819Y-54749047D02*
X163754819Y-54749047D01*
X163754819Y-54749047D02*
X163897676Y-54844285D01*
X163897676Y-54844285D02*
X163992914Y-54939523D01*
X163992914Y-54939523D02*
X164040533Y-55034761D01*
D22*
X132026800Y-52201428D02*
X132064895Y-52087142D01*
X132064895Y-52087142D02*
X132064895Y-51896666D01*
X132064895Y-51896666D02*
X132026800Y-51820475D01*
X132026800Y-51820475D02*
X131988704Y-51782380D01*
X131988704Y-51782380D02*
X131912514Y-51744285D01*
X131912514Y-51744285D02*
X131836323Y-51744285D01*
X131836323Y-51744285D02*
X131760133Y-51782380D01*
X131760133Y-51782380D02*
X131722038Y-51820475D01*
X131722038Y-51820475D02*
X131683942Y-51896666D01*
X131683942Y-51896666D02*
X131645847Y-52049047D01*
X131645847Y-52049047D02*
X131607752Y-52125237D01*
X131607752Y-52125237D02*
X131569657Y-52163332D01*
X131569657Y-52163332D02*
X131493466Y-52201428D01*
X131493466Y-52201428D02*
X131417276Y-52201428D01*
X131417276Y-52201428D02*
X131341085Y-52163332D01*
X131341085Y-52163332D02*
X131302990Y-52125237D01*
X131302990Y-52125237D02*
X131264895Y-52049047D01*
X131264895Y-52049047D02*
X131264895Y-51858570D01*
X131264895Y-51858570D02*
X131302990Y-51744285D01*
X132064895Y-51401427D02*
X131264895Y-51401427D01*
X131264895Y-51401427D02*
X131264895Y-51210951D01*
X131264895Y-51210951D02*
X131302990Y-51096665D01*
X131302990Y-51096665D02*
X131379180Y-51020475D01*
X131379180Y-51020475D02*
X131455371Y-50982380D01*
X131455371Y-50982380D02*
X131607752Y-50944284D01*
X131607752Y-50944284D02*
X131722038Y-50944284D01*
X131722038Y-50944284D02*
X131874419Y-50982380D01*
X131874419Y-50982380D02*
X131950609Y-51020475D01*
X131950609Y-51020475D02*
X132026800Y-51096665D01*
X132026800Y-51096665D02*
X132064895Y-51210951D01*
X132064895Y-51210951D02*
X132064895Y-51401427D01*
X131836323Y-50639523D02*
X131836323Y-50258570D01*
X132064895Y-50715713D02*
X131264895Y-50449046D01*
X131264895Y-50449046D02*
X132064895Y-50182380D01*
X132026800Y-54722381D02*
X132064895Y-54608095D01*
X132064895Y-54608095D02*
X132064895Y-54417619D01*
X132064895Y-54417619D02*
X132026800Y-54341428D01*
X132026800Y-54341428D02*
X131988704Y-54303333D01*
X131988704Y-54303333D02*
X131912514Y-54265238D01*
X131912514Y-54265238D02*
X131836323Y-54265238D01*
X131836323Y-54265238D02*
X131760133Y-54303333D01*
X131760133Y-54303333D02*
X131722038Y-54341428D01*
X131722038Y-54341428D02*
X131683942Y-54417619D01*
X131683942Y-54417619D02*
X131645847Y-54570000D01*
X131645847Y-54570000D02*
X131607752Y-54646190D01*
X131607752Y-54646190D02*
X131569657Y-54684285D01*
X131569657Y-54684285D02*
X131493466Y-54722381D01*
X131493466Y-54722381D02*
X131417276Y-54722381D01*
X131417276Y-54722381D02*
X131341085Y-54684285D01*
X131341085Y-54684285D02*
X131302990Y-54646190D01*
X131302990Y-54646190D02*
X131264895Y-54570000D01*
X131264895Y-54570000D02*
X131264895Y-54379523D01*
X131264895Y-54379523D02*
X131302990Y-54265238D01*
X131988704Y-53465237D02*
X132026800Y-53503333D01*
X132026800Y-53503333D02*
X132064895Y-53617618D01*
X132064895Y-53617618D02*
X132064895Y-53693809D01*
X132064895Y-53693809D02*
X132026800Y-53808095D01*
X132026800Y-53808095D02*
X131950609Y-53884285D01*
X131950609Y-53884285D02*
X131874419Y-53922380D01*
X131874419Y-53922380D02*
X131722038Y-53960476D01*
X131722038Y-53960476D02*
X131607752Y-53960476D01*
X131607752Y-53960476D02*
X131455371Y-53922380D01*
X131455371Y-53922380D02*
X131379180Y-53884285D01*
X131379180Y-53884285D02*
X131302990Y-53808095D01*
X131302990Y-53808095D02*
X131264895Y-53693809D01*
X131264895Y-53693809D02*
X131264895Y-53617618D01*
X131264895Y-53617618D02*
X131302990Y-53503333D01*
X131302990Y-53503333D02*
X131341085Y-53465237D01*
X132064895Y-52741428D02*
X132064895Y-53122380D01*
X132064895Y-53122380D02*
X131264895Y-53122380D01*
X131264895Y-57376666D02*
X132064895Y-57109999D01*
X132064895Y-57109999D02*
X131264895Y-56843333D01*
X131988704Y-56119523D02*
X132026800Y-56157619D01*
X132026800Y-56157619D02*
X132064895Y-56271904D01*
X132064895Y-56271904D02*
X132064895Y-56348095D01*
X132064895Y-56348095D02*
X132026800Y-56462381D01*
X132026800Y-56462381D02*
X131950609Y-56538571D01*
X131950609Y-56538571D02*
X131874419Y-56576666D01*
X131874419Y-56576666D02*
X131722038Y-56614762D01*
X131722038Y-56614762D02*
X131607752Y-56614762D01*
X131607752Y-56614762D02*
X131455371Y-56576666D01*
X131455371Y-56576666D02*
X131379180Y-56538571D01*
X131379180Y-56538571D02*
X131302990Y-56462381D01*
X131302990Y-56462381D02*
X131264895Y-56348095D01*
X131264895Y-56348095D02*
X131264895Y-56271904D01*
X131264895Y-56271904D02*
X131302990Y-56157619D01*
X131302990Y-56157619D02*
X131341085Y-56119523D01*
X131988704Y-55319523D02*
X132026800Y-55357619D01*
X132026800Y-55357619D02*
X132064895Y-55471904D01*
X132064895Y-55471904D02*
X132064895Y-55548095D01*
X132064895Y-55548095D02*
X132026800Y-55662381D01*
X132026800Y-55662381D02*
X131950609Y-55738571D01*
X131950609Y-55738571D02*
X131874419Y-55776666D01*
X131874419Y-55776666D02*
X131722038Y-55814762D01*
X131722038Y-55814762D02*
X131607752Y-55814762D01*
X131607752Y-55814762D02*
X131455371Y-55776666D01*
X131455371Y-55776666D02*
X131379180Y-55738571D01*
X131379180Y-55738571D02*
X131302990Y-55662381D01*
X131302990Y-55662381D02*
X131264895Y-55548095D01*
X131264895Y-55548095D02*
X131264895Y-55471904D01*
X131264895Y-55471904D02*
X131302990Y-55357619D01*
X131302990Y-55357619D02*
X131341085Y-55319523D01*
X131302990Y-59459523D02*
X131264895Y-59535713D01*
X131264895Y-59535713D02*
X131264895Y-59649999D01*
X131264895Y-59649999D02*
X131302990Y-59764285D01*
X131302990Y-59764285D02*
X131379180Y-59840475D01*
X131379180Y-59840475D02*
X131455371Y-59878570D01*
X131455371Y-59878570D02*
X131607752Y-59916666D01*
X131607752Y-59916666D02*
X131722038Y-59916666D01*
X131722038Y-59916666D02*
X131874419Y-59878570D01*
X131874419Y-59878570D02*
X131950609Y-59840475D01*
X131950609Y-59840475D02*
X132026800Y-59764285D01*
X132026800Y-59764285D02*
X132064895Y-59649999D01*
X132064895Y-59649999D02*
X132064895Y-59573808D01*
X132064895Y-59573808D02*
X132026800Y-59459523D01*
X132026800Y-59459523D02*
X131988704Y-59421427D01*
X131988704Y-59421427D02*
X131722038Y-59421427D01*
X131722038Y-59421427D02*
X131722038Y-59573808D01*
X132064895Y-59078570D02*
X131264895Y-59078570D01*
X131264895Y-59078570D02*
X132064895Y-58621427D01*
X132064895Y-58621427D02*
X131264895Y-58621427D01*
X132064895Y-58240475D02*
X131264895Y-58240475D01*
X131264895Y-58240475D02*
X131264895Y-58049999D01*
X131264895Y-58049999D02*
X131302990Y-57935713D01*
X131302990Y-57935713D02*
X131379180Y-57859523D01*
X131379180Y-57859523D02*
X131455371Y-57821428D01*
X131455371Y-57821428D02*
X131607752Y-57783332D01*
X131607752Y-57783332D02*
X131722038Y-57783332D01*
X131722038Y-57783332D02*
X131874419Y-57821428D01*
X131874419Y-57821428D02*
X131950609Y-57859523D01*
X131950609Y-57859523D02*
X132026800Y-57935713D01*
X132026800Y-57935713D02*
X132064895Y-58049999D01*
X132064895Y-58049999D02*
X132064895Y-58240475D01*
D21*
X143271428Y-54494819D02*
X143461904Y-54494819D01*
X143461904Y-54494819D02*
X143557142Y-54542438D01*
X143557142Y-54542438D02*
X143652380Y-54637676D01*
X143652380Y-54637676D02*
X143699999Y-54828152D01*
X143699999Y-54828152D02*
X143699999Y-55161485D01*
X143699999Y-55161485D02*
X143652380Y-55351961D01*
X143652380Y-55351961D02*
X143557142Y-55447200D01*
X143557142Y-55447200D02*
X143461904Y-55494819D01*
X143461904Y-55494819D02*
X143271428Y-55494819D01*
X143271428Y-55494819D02*
X143176190Y-55447200D01*
X143176190Y-55447200D02*
X143080952Y-55351961D01*
X143080952Y-55351961D02*
X143033333Y-55161485D01*
X143033333Y-55161485D02*
X143033333Y-54828152D01*
X143033333Y-54828152D02*
X143080952Y-54637676D01*
X143080952Y-54637676D02*
X143176190Y-54542438D01*
X143176190Y-54542438D02*
X143271428Y-54494819D01*
X144604761Y-55494819D02*
X144128571Y-55494819D01*
X144128571Y-55494819D02*
X144128571Y-54494819D01*
X144938095Y-54971009D02*
X145271428Y-54971009D01*
X145414285Y-55494819D02*
X144938095Y-55494819D01*
X144938095Y-55494819D02*
X144938095Y-54494819D01*
X144938095Y-54494819D02*
X145414285Y-54494819D01*
X145842857Y-55494819D02*
X145842857Y-54494819D01*
X145842857Y-54494819D02*
X146080952Y-54494819D01*
X146080952Y-54494819D02*
X146223809Y-54542438D01*
X146223809Y-54542438D02*
X146319047Y-54637676D01*
X146319047Y-54637676D02*
X146366666Y-54732914D01*
X146366666Y-54732914D02*
X146414285Y-54923390D01*
X146414285Y-54923390D02*
X146414285Y-55066247D01*
X146414285Y-55066247D02*
X146366666Y-55256723D01*
X146366666Y-55256723D02*
X146319047Y-55351961D01*
X146319047Y-55351961D02*
X146223809Y-55447200D01*
X146223809Y-55447200D02*
X146080952Y-55494819D01*
X146080952Y-55494819D02*
X145842857Y-55494819D01*
X147604762Y-55494819D02*
X147604762Y-54494819D01*
X147604762Y-54494819D02*
X147985714Y-54494819D01*
X147985714Y-54494819D02*
X148080952Y-54542438D01*
X148080952Y-54542438D02*
X148128571Y-54590057D01*
X148128571Y-54590057D02*
X148176190Y-54685295D01*
X148176190Y-54685295D02*
X148176190Y-54828152D01*
X148176190Y-54828152D02*
X148128571Y-54923390D01*
X148128571Y-54923390D02*
X148080952Y-54971009D01*
X148080952Y-54971009D02*
X147985714Y-55018628D01*
X147985714Y-55018628D02*
X147604762Y-55018628D01*
X149033333Y-55494819D02*
X149033333Y-54971009D01*
X149033333Y-54971009D02*
X148985714Y-54875771D01*
X148985714Y-54875771D02*
X148890476Y-54828152D01*
X148890476Y-54828152D02*
X148700000Y-54828152D01*
X148700000Y-54828152D02*
X148604762Y-54875771D01*
X149033333Y-55447200D02*
X148938095Y-55494819D01*
X148938095Y-55494819D02*
X148700000Y-55494819D01*
X148700000Y-55494819D02*
X148604762Y-55447200D01*
X148604762Y-55447200D02*
X148557143Y-55351961D01*
X148557143Y-55351961D02*
X148557143Y-55256723D01*
X148557143Y-55256723D02*
X148604762Y-55161485D01*
X148604762Y-55161485D02*
X148700000Y-55113866D01*
X148700000Y-55113866D02*
X148938095Y-55113866D01*
X148938095Y-55113866D02*
X149033333Y-55066247D01*
X149509524Y-54828152D02*
X149509524Y-55494819D01*
X149509524Y-54923390D02*
X149557143Y-54875771D01*
X149557143Y-54875771D02*
X149652381Y-54828152D01*
X149652381Y-54828152D02*
X149795238Y-54828152D01*
X149795238Y-54828152D02*
X149890476Y-54875771D01*
X149890476Y-54875771D02*
X149938095Y-54971009D01*
X149938095Y-54971009D02*
X149938095Y-55494819D01*
X150795238Y-55447200D02*
X150700000Y-55494819D01*
X150700000Y-55494819D02*
X150509524Y-55494819D01*
X150509524Y-55494819D02*
X150414286Y-55447200D01*
X150414286Y-55447200D02*
X150366667Y-55351961D01*
X150366667Y-55351961D02*
X150366667Y-54971009D01*
X150366667Y-54971009D02*
X150414286Y-54875771D01*
X150414286Y-54875771D02*
X150509524Y-54828152D01*
X150509524Y-54828152D02*
X150700000Y-54828152D01*
X150700000Y-54828152D02*
X150795238Y-54875771D01*
X150795238Y-54875771D02*
X150842857Y-54971009D01*
X150842857Y-54971009D02*
X150842857Y-55066247D01*
X150842857Y-55066247D02*
X150366667Y-55161485D01*
X151414286Y-55494819D02*
X151319048Y-55447200D01*
X151319048Y-55447200D02*
X151271429Y-55351961D01*
X151271429Y-55351961D02*
X151271429Y-54494819D01*
D17*
X140685714Y-72262219D02*
X140685714Y-71262219D01*
X140685714Y-71262219D02*
X140923809Y-71262219D01*
X140923809Y-71262219D02*
X141066666Y-71309838D01*
X141066666Y-71309838D02*
X141161904Y-71405076D01*
X141161904Y-71405076D02*
X141209523Y-71500314D01*
X141209523Y-71500314D02*
X141257142Y-71690790D01*
X141257142Y-71690790D02*
X141257142Y-71833647D01*
X141257142Y-71833647D02*
X141209523Y-72024123D01*
X141209523Y-72024123D02*
X141161904Y-72119361D01*
X141161904Y-72119361D02*
X141066666Y-72214600D01*
X141066666Y-72214600D02*
X140923809Y-72262219D01*
X140923809Y-72262219D02*
X140685714Y-72262219D01*
X142209523Y-72262219D02*
X141638095Y-72262219D01*
X141923809Y-72262219D02*
X141923809Y-71262219D01*
X141923809Y-71262219D02*
X141828571Y-71405076D01*
X141828571Y-71405076D02*
X141733333Y-71500314D01*
X141733333Y-71500314D02*
X141638095Y-71547933D01*
X143161904Y-72262219D02*
X142590476Y-72262219D01*
X142876190Y-72262219D02*
X142876190Y-71262219D01*
X142876190Y-71262219D02*
X142780952Y-71405076D01*
X142780952Y-71405076D02*
X142685714Y-71500314D01*
X142685714Y-71500314D02*
X142590476Y-71547933D01*
X174685714Y-130262219D02*
X174685714Y-129262219D01*
X174685714Y-129262219D02*
X174923809Y-129262219D01*
X174923809Y-129262219D02*
X175066666Y-129309838D01*
X175066666Y-129309838D02*
X175161904Y-129405076D01*
X175161904Y-129405076D02*
X175209523Y-129500314D01*
X175209523Y-129500314D02*
X175257142Y-129690790D01*
X175257142Y-129690790D02*
X175257142Y-129833647D01*
X175257142Y-129833647D02*
X175209523Y-130024123D01*
X175209523Y-130024123D02*
X175161904Y-130119361D01*
X175161904Y-130119361D02*
X175066666Y-130214600D01*
X175066666Y-130214600D02*
X174923809Y-130262219D01*
X174923809Y-130262219D02*
X174685714Y-130262219D01*
X176209523Y-130262219D02*
X175638095Y-130262219D01*
X175923809Y-130262219D02*
X175923809Y-129262219D01*
X175923809Y-129262219D02*
X175828571Y-129405076D01*
X175828571Y-129405076D02*
X175733333Y-129500314D01*
X175733333Y-129500314D02*
X175638095Y-129547933D01*
X176685714Y-130262219D02*
X176876190Y-130262219D01*
X176876190Y-130262219D02*
X176971428Y-130214600D01*
X176971428Y-130214600D02*
X177019047Y-130166980D01*
X177019047Y-130166980D02*
X177114285Y-130024123D01*
X177114285Y-130024123D02*
X177161904Y-129833647D01*
X177161904Y-129833647D02*
X177161904Y-129452695D01*
X177161904Y-129452695D02*
X177114285Y-129357457D01*
X177114285Y-129357457D02*
X177066666Y-129309838D01*
X177066666Y-129309838D02*
X176971428Y-129262219D01*
X176971428Y-129262219D02*
X176780952Y-129262219D01*
X176780952Y-129262219D02*
X176685714Y-129309838D01*
X176685714Y-129309838D02*
X176638095Y-129357457D01*
X176638095Y-129357457D02*
X176590476Y-129452695D01*
X176590476Y-129452695D02*
X176590476Y-129690790D01*
X176590476Y-129690790D02*
X176638095Y-129786028D01*
X176638095Y-129786028D02*
X176685714Y-129833647D01*
X176685714Y-129833647D02*
X176780952Y-129881266D01*
X176780952Y-129881266D02*
X176971428Y-129881266D01*
X176971428Y-129881266D02*
X177066666Y-129833647D01*
X177066666Y-129833647D02*
X177114285Y-129786028D01*
X177114285Y-129786028D02*
X177161904Y-129690790D01*
D21*
X143366238Y-62583200D02*
X143509095Y-62630819D01*
X143509095Y-62630819D02*
X143747190Y-62630819D01*
X143747190Y-62630819D02*
X143842428Y-62583200D01*
X143842428Y-62583200D02*
X143890047Y-62535580D01*
X143890047Y-62535580D02*
X143937666Y-62440342D01*
X143937666Y-62440342D02*
X143937666Y-62345104D01*
X143937666Y-62345104D02*
X143890047Y-62249866D01*
X143890047Y-62249866D02*
X143842428Y-62202247D01*
X143842428Y-62202247D02*
X143747190Y-62154628D01*
X143747190Y-62154628D02*
X143556714Y-62107009D01*
X143556714Y-62107009D02*
X143461476Y-62059390D01*
X143461476Y-62059390D02*
X143413857Y-62011771D01*
X143413857Y-62011771D02*
X143366238Y-61916533D01*
X143366238Y-61916533D02*
X143366238Y-61821295D01*
X143366238Y-61821295D02*
X143413857Y-61726057D01*
X143413857Y-61726057D02*
X143461476Y-61678438D01*
X143461476Y-61678438D02*
X143556714Y-61630819D01*
X143556714Y-61630819D02*
X143794809Y-61630819D01*
X143794809Y-61630819D02*
X143937666Y-61678438D01*
X144271000Y-61630819D02*
X144509095Y-62630819D01*
X144509095Y-62630819D02*
X144699571Y-61916533D01*
X144699571Y-61916533D02*
X144890047Y-62630819D01*
X144890047Y-62630819D02*
X145128143Y-61630819D01*
X146032904Y-62630819D02*
X145461476Y-62630819D01*
X145747190Y-62630819D02*
X145747190Y-61630819D01*
X145747190Y-61630819D02*
X145651952Y-61773676D01*
X145651952Y-61773676D02*
X145556714Y-61868914D01*
X145556714Y-61868914D02*
X145461476Y-61916533D01*
X162366238Y-81583200D02*
X162509095Y-81630819D01*
X162509095Y-81630819D02*
X162747190Y-81630819D01*
X162747190Y-81630819D02*
X162842428Y-81583200D01*
X162842428Y-81583200D02*
X162890047Y-81535580D01*
X162890047Y-81535580D02*
X162937666Y-81440342D01*
X162937666Y-81440342D02*
X162937666Y-81345104D01*
X162937666Y-81345104D02*
X162890047Y-81249866D01*
X162890047Y-81249866D02*
X162842428Y-81202247D01*
X162842428Y-81202247D02*
X162747190Y-81154628D01*
X162747190Y-81154628D02*
X162556714Y-81107009D01*
X162556714Y-81107009D02*
X162461476Y-81059390D01*
X162461476Y-81059390D02*
X162413857Y-81011771D01*
X162413857Y-81011771D02*
X162366238Y-80916533D01*
X162366238Y-80916533D02*
X162366238Y-80821295D01*
X162366238Y-80821295D02*
X162413857Y-80726057D01*
X162413857Y-80726057D02*
X162461476Y-80678438D01*
X162461476Y-80678438D02*
X162556714Y-80630819D01*
X162556714Y-80630819D02*
X162794809Y-80630819D01*
X162794809Y-80630819D02*
X162937666Y-80678438D01*
X163271000Y-80630819D02*
X163509095Y-81630819D01*
X163509095Y-81630819D02*
X163699571Y-80916533D01*
X163699571Y-80916533D02*
X163890047Y-81630819D01*
X163890047Y-81630819D02*
X164128143Y-80630819D01*
X164937666Y-80964152D02*
X164937666Y-81630819D01*
X164699571Y-80583200D02*
X164461476Y-81297485D01*
X164461476Y-81297485D02*
X165080523Y-81297485D01*
D17*
X119185714Y-130262219D02*
X119185714Y-129262219D01*
X119185714Y-129262219D02*
X119423809Y-129262219D01*
X119423809Y-129262219D02*
X119566666Y-129309838D01*
X119566666Y-129309838D02*
X119661904Y-129405076D01*
X119661904Y-129405076D02*
X119709523Y-129500314D01*
X119709523Y-129500314D02*
X119757142Y-129690790D01*
X119757142Y-129690790D02*
X119757142Y-129833647D01*
X119757142Y-129833647D02*
X119709523Y-130024123D01*
X119709523Y-130024123D02*
X119661904Y-130119361D01*
X119661904Y-130119361D02*
X119566666Y-130214600D01*
X119566666Y-130214600D02*
X119423809Y-130262219D01*
X119423809Y-130262219D02*
X119185714Y-130262219D01*
X120709523Y-130262219D02*
X120138095Y-130262219D01*
X120423809Y-130262219D02*
X120423809Y-129262219D01*
X120423809Y-129262219D02*
X120328571Y-129405076D01*
X120328571Y-129405076D02*
X120233333Y-129500314D01*
X120233333Y-129500314D02*
X120138095Y-129547933D01*
X121280952Y-129690790D02*
X121185714Y-129643171D01*
X121185714Y-129643171D02*
X121138095Y-129595552D01*
X121138095Y-129595552D02*
X121090476Y-129500314D01*
X121090476Y-129500314D02*
X121090476Y-129452695D01*
X121090476Y-129452695D02*
X121138095Y-129357457D01*
X121138095Y-129357457D02*
X121185714Y-129309838D01*
X121185714Y-129309838D02*
X121280952Y-129262219D01*
X121280952Y-129262219D02*
X121471428Y-129262219D01*
X121471428Y-129262219D02*
X121566666Y-129309838D01*
X121566666Y-129309838D02*
X121614285Y-129357457D01*
X121614285Y-129357457D02*
X121661904Y-129452695D01*
X121661904Y-129452695D02*
X121661904Y-129500314D01*
X121661904Y-129500314D02*
X121614285Y-129595552D01*
X121614285Y-129595552D02*
X121566666Y-129643171D01*
X121566666Y-129643171D02*
X121471428Y-129690790D01*
X121471428Y-129690790D02*
X121280952Y-129690790D01*
X121280952Y-129690790D02*
X121185714Y-129738409D01*
X121185714Y-129738409D02*
X121138095Y-129786028D01*
X121138095Y-129786028D02*
X121090476Y-129881266D01*
X121090476Y-129881266D02*
X121090476Y-130071742D01*
X121090476Y-130071742D02*
X121138095Y-130166980D01*
X121138095Y-130166980D02*
X121185714Y-130214600D01*
X121185714Y-130214600D02*
X121280952Y-130262219D01*
X121280952Y-130262219D02*
X121471428Y-130262219D01*
X121471428Y-130262219D02*
X121566666Y-130214600D01*
X121566666Y-130214600D02*
X121614285Y-130166980D01*
X121614285Y-130166980D02*
X121661904Y-130071742D01*
X121661904Y-130071742D02*
X121661904Y-129881266D01*
X121661904Y-129881266D02*
X121614285Y-129786028D01*
X121614285Y-129786028D02*
X121566666Y-129738409D01*
X121566666Y-129738409D02*
X121471428Y-129690790D01*
X140185714Y-91262219D02*
X140185714Y-90262219D01*
X140185714Y-90262219D02*
X140423809Y-90262219D01*
X140423809Y-90262219D02*
X140566666Y-90309838D01*
X140566666Y-90309838D02*
X140661904Y-90405076D01*
X140661904Y-90405076D02*
X140709523Y-90500314D01*
X140709523Y-90500314D02*
X140757142Y-90690790D01*
X140757142Y-90690790D02*
X140757142Y-90833647D01*
X140757142Y-90833647D02*
X140709523Y-91024123D01*
X140709523Y-91024123D02*
X140661904Y-91119361D01*
X140661904Y-91119361D02*
X140566666Y-91214600D01*
X140566666Y-91214600D02*
X140423809Y-91262219D01*
X140423809Y-91262219D02*
X140185714Y-91262219D01*
X141709523Y-91262219D02*
X141138095Y-91262219D01*
X141423809Y-91262219D02*
X141423809Y-90262219D01*
X141423809Y-90262219D02*
X141328571Y-90405076D01*
X141328571Y-90405076D02*
X141233333Y-90500314D01*
X141233333Y-90500314D02*
X141138095Y-90547933D01*
X142042857Y-90262219D02*
X142661904Y-90262219D01*
X142661904Y-90262219D02*
X142328571Y-90643171D01*
X142328571Y-90643171D02*
X142471428Y-90643171D01*
X142471428Y-90643171D02*
X142566666Y-90690790D01*
X142566666Y-90690790D02*
X142614285Y-90738409D01*
X142614285Y-90738409D02*
X142661904Y-90833647D01*
X142661904Y-90833647D02*
X142661904Y-91071742D01*
X142661904Y-91071742D02*
X142614285Y-91166980D01*
X142614285Y-91166980D02*
X142566666Y-91214600D01*
X142566666Y-91214600D02*
X142471428Y-91262219D01*
X142471428Y-91262219D02*
X142185714Y-91262219D01*
X142185714Y-91262219D02*
X142090476Y-91214600D01*
X142090476Y-91214600D02*
X142042857Y-91166980D01*
D23*
X174912166Y-53579000D02*
X174912166Y-54298667D01*
X174912166Y-54298667D02*
X174954500Y-54383333D01*
X174954500Y-54383333D02*
X174996833Y-54425667D01*
X174996833Y-54425667D02*
X175081500Y-54468000D01*
X175081500Y-54468000D02*
X175250833Y-54468000D01*
X175250833Y-54468000D02*
X175335500Y-54425667D01*
X175335500Y-54425667D02*
X175377833Y-54383333D01*
X175377833Y-54383333D02*
X175420166Y-54298667D01*
X175420166Y-54298667D02*
X175420166Y-53579000D01*
X176309166Y-54468000D02*
X175801166Y-54468000D01*
X176055166Y-54468000D02*
X176055166Y-53579000D01*
X176055166Y-53579000D02*
X175970499Y-53706000D01*
X175970499Y-53706000D02*
X175885833Y-53790667D01*
X175885833Y-53790667D02*
X175801166Y-53833000D01*
D21*
X170827595Y-50429215D02*
X170970452Y-50476834D01*
X170970452Y-50476834D02*
X171208547Y-50476834D01*
X171208547Y-50476834D02*
X171303785Y-50429215D01*
X171303785Y-50429215D02*
X171351404Y-50381595D01*
X171351404Y-50381595D02*
X171399023Y-50286357D01*
X171399023Y-50286357D02*
X171399023Y-50191119D01*
X171399023Y-50191119D02*
X171351404Y-50095881D01*
X171351404Y-50095881D02*
X171303785Y-50048262D01*
X171303785Y-50048262D02*
X171208547Y-50000643D01*
X171208547Y-50000643D02*
X171018071Y-49953024D01*
X171018071Y-49953024D02*
X170922833Y-49905405D01*
X170922833Y-49905405D02*
X170875214Y-49857786D01*
X170875214Y-49857786D02*
X170827595Y-49762548D01*
X170827595Y-49762548D02*
X170827595Y-49667310D01*
X170827595Y-49667310D02*
X170875214Y-49572072D01*
X170875214Y-49572072D02*
X170922833Y-49524453D01*
X170922833Y-49524453D02*
X171018071Y-49476834D01*
X171018071Y-49476834D02*
X171256166Y-49476834D01*
X171256166Y-49476834D02*
X171399023Y-49524453D01*
X172208547Y-50429215D02*
X172113309Y-50476834D01*
X172113309Y-50476834D02*
X171922833Y-50476834D01*
X171922833Y-50476834D02*
X171827595Y-50429215D01*
X171827595Y-50429215D02*
X171779976Y-50333976D01*
X171779976Y-50333976D02*
X171779976Y-49953024D01*
X171779976Y-49953024D02*
X171827595Y-49857786D01*
X171827595Y-49857786D02*
X171922833Y-49810167D01*
X171922833Y-49810167D02*
X172113309Y-49810167D01*
X172113309Y-49810167D02*
X172208547Y-49857786D01*
X172208547Y-49857786D02*
X172256166Y-49953024D01*
X172256166Y-49953024D02*
X172256166Y-50048262D01*
X172256166Y-50048262D02*
X171779976Y-50143500D01*
X173065690Y-50429215D02*
X172970452Y-50476834D01*
X172970452Y-50476834D02*
X172779976Y-50476834D01*
X172779976Y-50476834D02*
X172684738Y-50429215D01*
X172684738Y-50429215D02*
X172637119Y-50333976D01*
X172637119Y-50333976D02*
X172637119Y-49953024D01*
X172637119Y-49953024D02*
X172684738Y-49857786D01*
X172684738Y-49857786D02*
X172779976Y-49810167D01*
X172779976Y-49810167D02*
X172970452Y-49810167D01*
X172970452Y-49810167D02*
X173065690Y-49857786D01*
X173065690Y-49857786D02*
X173113309Y-49953024D01*
X173113309Y-49953024D02*
X173113309Y-50048262D01*
X173113309Y-50048262D02*
X172637119Y-50143500D01*
X173922833Y-50429215D02*
X173827595Y-50476834D01*
X173827595Y-50476834D02*
X173637119Y-50476834D01*
X173637119Y-50476834D02*
X173541881Y-50429215D01*
X173541881Y-50429215D02*
X173494262Y-50333976D01*
X173494262Y-50333976D02*
X173494262Y-49953024D01*
X173494262Y-49953024D02*
X173541881Y-49857786D01*
X173541881Y-49857786D02*
X173637119Y-49810167D01*
X173637119Y-49810167D02*
X173827595Y-49810167D01*
X173827595Y-49810167D02*
X173922833Y-49857786D01*
X173922833Y-49857786D02*
X173970452Y-49953024D01*
X173970452Y-49953024D02*
X173970452Y-50048262D01*
X173970452Y-50048262D02*
X173494262Y-50143500D01*
X174827595Y-50476834D02*
X174827595Y-49476834D01*
X174827595Y-50429215D02*
X174732357Y-50476834D01*
X174732357Y-50476834D02*
X174541881Y-50476834D01*
X174541881Y-50476834D02*
X174446643Y-50429215D01*
X174446643Y-50429215D02*
X174399024Y-50381595D01*
X174399024Y-50381595D02*
X174351405Y-50286357D01*
X174351405Y-50286357D02*
X174351405Y-50000643D01*
X174351405Y-50000643D02*
X174399024Y-49905405D01*
X174399024Y-49905405D02*
X174446643Y-49857786D01*
X174446643Y-49857786D02*
X174541881Y-49810167D01*
X174541881Y-49810167D02*
X174732357Y-49810167D01*
X174732357Y-49810167D02*
X174827595Y-49857786D01*
X176018072Y-50429215D02*
X176160929Y-50476834D01*
X176160929Y-50476834D02*
X176399024Y-50476834D01*
X176399024Y-50476834D02*
X176494262Y-50429215D01*
X176494262Y-50429215D02*
X176541881Y-50381595D01*
X176541881Y-50381595D02*
X176589500Y-50286357D01*
X176589500Y-50286357D02*
X176589500Y-50191119D01*
X176589500Y-50191119D02*
X176541881Y-50095881D01*
X176541881Y-50095881D02*
X176494262Y-50048262D01*
X176494262Y-50048262D02*
X176399024Y-50000643D01*
X176399024Y-50000643D02*
X176208548Y-49953024D01*
X176208548Y-49953024D02*
X176113310Y-49905405D01*
X176113310Y-49905405D02*
X176065691Y-49857786D01*
X176065691Y-49857786D02*
X176018072Y-49762548D01*
X176018072Y-49762548D02*
X176018072Y-49667310D01*
X176018072Y-49667310D02*
X176065691Y-49572072D01*
X176065691Y-49572072D02*
X176113310Y-49524453D01*
X176113310Y-49524453D02*
X176208548Y-49476834D01*
X176208548Y-49476834D02*
X176446643Y-49476834D01*
X176446643Y-49476834D02*
X176589500Y-49524453D01*
X176875215Y-49810167D02*
X177256167Y-49810167D01*
X177018072Y-49476834D02*
X177018072Y-50333976D01*
X177018072Y-50333976D02*
X177065691Y-50429215D01*
X177065691Y-50429215D02*
X177160929Y-50476834D01*
X177160929Y-50476834D02*
X177256167Y-50476834D01*
X178018072Y-49810167D02*
X178018072Y-50476834D01*
X177589501Y-49810167D02*
X177589501Y-50333976D01*
X177589501Y-50333976D02*
X177637120Y-50429215D01*
X177637120Y-50429215D02*
X177732358Y-50476834D01*
X177732358Y-50476834D02*
X177875215Y-50476834D01*
X177875215Y-50476834D02*
X177970453Y-50429215D01*
X177970453Y-50429215D02*
X178018072Y-50381595D01*
X178922834Y-50476834D02*
X178922834Y-49476834D01*
X178922834Y-50429215D02*
X178827596Y-50476834D01*
X178827596Y-50476834D02*
X178637120Y-50476834D01*
X178637120Y-50476834D02*
X178541882Y-50429215D01*
X178541882Y-50429215D02*
X178494263Y-50381595D01*
X178494263Y-50381595D02*
X178446644Y-50286357D01*
X178446644Y-50286357D02*
X178446644Y-50000643D01*
X178446644Y-50000643D02*
X178494263Y-49905405D01*
X178494263Y-49905405D02*
X178541882Y-49857786D01*
X178541882Y-49857786D02*
X178637120Y-49810167D01*
X178637120Y-49810167D02*
X178827596Y-49810167D01*
X178827596Y-49810167D02*
X178922834Y-49857786D01*
X179399025Y-50476834D02*
X179399025Y-49810167D01*
X179399025Y-49476834D02*
X179351406Y-49524453D01*
X179351406Y-49524453D02*
X179399025Y-49572072D01*
X179399025Y-49572072D02*
X179446644Y-49524453D01*
X179446644Y-49524453D02*
X179399025Y-49476834D01*
X179399025Y-49476834D02*
X179399025Y-49572072D01*
X180018072Y-50476834D02*
X179922834Y-50429215D01*
X179922834Y-50429215D02*
X179875215Y-50381595D01*
X179875215Y-50381595D02*
X179827596Y-50286357D01*
X179827596Y-50286357D02*
X179827596Y-50000643D01*
X179827596Y-50000643D02*
X179875215Y-49905405D01*
X179875215Y-49905405D02*
X179922834Y-49857786D01*
X179922834Y-49857786D02*
X180018072Y-49810167D01*
X180018072Y-49810167D02*
X180160929Y-49810167D01*
X180160929Y-49810167D02*
X180256167Y-49857786D01*
X180256167Y-49857786D02*
X180303786Y-49905405D01*
X180303786Y-49905405D02*
X180351405Y-50000643D01*
X180351405Y-50000643D02*
X180351405Y-50286357D01*
X180351405Y-50286357D02*
X180303786Y-50381595D01*
X180303786Y-50381595D02*
X180256167Y-50429215D01*
X180256167Y-50429215D02*
X180160929Y-50476834D01*
X180160929Y-50476834D02*
X180018072Y-50476834D01*
X174065691Y-51476834D02*
X174732357Y-52476834D01*
X174732357Y-51476834D02*
X174065691Y-52476834D01*
X175113310Y-52476834D02*
X175113310Y-51476834D01*
X175541881Y-52191119D02*
X176018071Y-52191119D01*
X175446643Y-52476834D02*
X175779976Y-51476834D01*
X175779976Y-51476834D02*
X176113309Y-52476834D01*
X176637119Y-51476834D02*
X176827595Y-51476834D01*
X176827595Y-51476834D02*
X176922833Y-51524453D01*
X176922833Y-51524453D02*
X177018071Y-51619691D01*
X177018071Y-51619691D02*
X177065690Y-51810167D01*
X177065690Y-51810167D02*
X177065690Y-52143500D01*
X177065690Y-52143500D02*
X177018071Y-52333976D01*
X177018071Y-52333976D02*
X176922833Y-52429215D01*
X176922833Y-52429215D02*
X176827595Y-52476834D01*
X176827595Y-52476834D02*
X176637119Y-52476834D01*
X176637119Y-52476834D02*
X176541881Y-52429215D01*
X176541881Y-52429215D02*
X176446643Y-52333976D01*
X176446643Y-52333976D02*
X176399024Y-52143500D01*
X176399024Y-52143500D02*
X176399024Y-51810167D01*
X176399024Y-51810167D02*
X176446643Y-51619691D01*
X176446643Y-51619691D02*
X176541881Y-51524453D01*
X176541881Y-51524453D02*
X176637119Y-51476834D01*
D17*
X159185714Y-72262219D02*
X159185714Y-71262219D01*
X159185714Y-71262219D02*
X159423809Y-71262219D01*
X159423809Y-71262219D02*
X159566666Y-71309838D01*
X159566666Y-71309838D02*
X159661904Y-71405076D01*
X159661904Y-71405076D02*
X159709523Y-71500314D01*
X159709523Y-71500314D02*
X159757142Y-71690790D01*
X159757142Y-71690790D02*
X159757142Y-71833647D01*
X159757142Y-71833647D02*
X159709523Y-72024123D01*
X159709523Y-72024123D02*
X159661904Y-72119361D01*
X159661904Y-72119361D02*
X159566666Y-72214600D01*
X159566666Y-72214600D02*
X159423809Y-72262219D01*
X159423809Y-72262219D02*
X159185714Y-72262219D01*
X160709523Y-72262219D02*
X160138095Y-72262219D01*
X160423809Y-72262219D02*
X160423809Y-71262219D01*
X160423809Y-71262219D02*
X160328571Y-71405076D01*
X160328571Y-71405076D02*
X160233333Y-71500314D01*
X160233333Y-71500314D02*
X160138095Y-71547933D01*
X161614285Y-71262219D02*
X161138095Y-71262219D01*
X161138095Y-71262219D02*
X161090476Y-71738409D01*
X161090476Y-71738409D02*
X161138095Y-71690790D01*
X161138095Y-71690790D02*
X161233333Y-71643171D01*
X161233333Y-71643171D02*
X161471428Y-71643171D01*
X161471428Y-71643171D02*
X161566666Y-71690790D01*
X161566666Y-71690790D02*
X161614285Y-71738409D01*
X161614285Y-71738409D02*
X161661904Y-71833647D01*
X161661904Y-71833647D02*
X161661904Y-72071742D01*
X161661904Y-72071742D02*
X161614285Y-72166980D01*
X161614285Y-72166980D02*
X161566666Y-72214600D01*
X161566666Y-72214600D02*
X161471428Y-72262219D01*
X161471428Y-72262219D02*
X161233333Y-72262219D01*
X161233333Y-72262219D02*
X161138095Y-72214600D01*
X161138095Y-72214600D02*
X161090476Y-72166980D01*
X178685714Y-72262219D02*
X178685714Y-71262219D01*
X178685714Y-71262219D02*
X178923809Y-71262219D01*
X178923809Y-71262219D02*
X179066666Y-71309838D01*
X179066666Y-71309838D02*
X179161904Y-71405076D01*
X179161904Y-71405076D02*
X179209523Y-71500314D01*
X179209523Y-71500314D02*
X179257142Y-71690790D01*
X179257142Y-71690790D02*
X179257142Y-71833647D01*
X179257142Y-71833647D02*
X179209523Y-72024123D01*
X179209523Y-72024123D02*
X179161904Y-72119361D01*
X179161904Y-72119361D02*
X179066666Y-72214600D01*
X179066666Y-72214600D02*
X178923809Y-72262219D01*
X178923809Y-72262219D02*
X178685714Y-72262219D01*
X180209523Y-72262219D02*
X179638095Y-72262219D01*
X179923809Y-72262219D02*
X179923809Y-71262219D01*
X179923809Y-71262219D02*
X179828571Y-71405076D01*
X179828571Y-71405076D02*
X179733333Y-71500314D01*
X179733333Y-71500314D02*
X179638095Y-71547933D01*
X181066666Y-71262219D02*
X180876190Y-71262219D01*
X180876190Y-71262219D02*
X180780952Y-71309838D01*
X180780952Y-71309838D02*
X180733333Y-71357457D01*
X180733333Y-71357457D02*
X180638095Y-71500314D01*
X180638095Y-71500314D02*
X180590476Y-71690790D01*
X180590476Y-71690790D02*
X180590476Y-72071742D01*
X180590476Y-72071742D02*
X180638095Y-72166980D01*
X180638095Y-72166980D02*
X180685714Y-72214600D01*
X180685714Y-72214600D02*
X180780952Y-72262219D01*
X180780952Y-72262219D02*
X180971428Y-72262219D01*
X180971428Y-72262219D02*
X181066666Y-72214600D01*
X181066666Y-72214600D02*
X181114285Y-72166980D01*
X181114285Y-72166980D02*
X181161904Y-72071742D01*
X181161904Y-72071742D02*
X181161904Y-71833647D01*
X181161904Y-71833647D02*
X181114285Y-71738409D01*
X181114285Y-71738409D02*
X181066666Y-71690790D01*
X181066666Y-71690790D02*
X180971428Y-71643171D01*
X180971428Y-71643171D02*
X180780952Y-71643171D01*
X180780952Y-71643171D02*
X180685714Y-71690790D01*
X180685714Y-71690790D02*
X180638095Y-71738409D01*
X180638095Y-71738409D02*
X180590476Y-71833647D01*
D21*
X160066667Y-62543200D02*
X160209524Y-62590819D01*
X160209524Y-62590819D02*
X160447619Y-62590819D01*
X160447619Y-62590819D02*
X160542857Y-62543200D01*
X160542857Y-62543200D02*
X160590476Y-62495580D01*
X160590476Y-62495580D02*
X160638095Y-62400342D01*
X160638095Y-62400342D02*
X160638095Y-62305104D01*
X160638095Y-62305104D02*
X160590476Y-62209866D01*
X160590476Y-62209866D02*
X160542857Y-62162247D01*
X160542857Y-62162247D02*
X160447619Y-62114628D01*
X160447619Y-62114628D02*
X160257143Y-62067009D01*
X160257143Y-62067009D02*
X160161905Y-62019390D01*
X160161905Y-62019390D02*
X160114286Y-61971771D01*
X160114286Y-61971771D02*
X160066667Y-61876533D01*
X160066667Y-61876533D02*
X160066667Y-61781295D01*
X160066667Y-61781295D02*
X160114286Y-61686057D01*
X160114286Y-61686057D02*
X160161905Y-61638438D01*
X160161905Y-61638438D02*
X160257143Y-61590819D01*
X160257143Y-61590819D02*
X160495238Y-61590819D01*
X160495238Y-61590819D02*
X160638095Y-61638438D01*
X160971429Y-61590819D02*
X161209524Y-62590819D01*
X161209524Y-62590819D02*
X161400000Y-61876533D01*
X161400000Y-61876533D02*
X161590476Y-62590819D01*
X161590476Y-62590819D02*
X161828572Y-61590819D01*
X162685714Y-61590819D02*
X162209524Y-61590819D01*
X162209524Y-61590819D02*
X162161905Y-62067009D01*
X162161905Y-62067009D02*
X162209524Y-62019390D01*
X162209524Y-62019390D02*
X162304762Y-61971771D01*
X162304762Y-61971771D02*
X162542857Y-61971771D01*
X162542857Y-61971771D02*
X162638095Y-62019390D01*
X162638095Y-62019390D02*
X162685714Y-62067009D01*
X162685714Y-62067009D02*
X162733333Y-62162247D01*
X162733333Y-62162247D02*
X162733333Y-62400342D01*
X162733333Y-62400342D02*
X162685714Y-62495580D01*
X162685714Y-62495580D02*
X162638095Y-62543200D01*
X162638095Y-62543200D02*
X162542857Y-62590819D01*
X162542857Y-62590819D02*
X162304762Y-62590819D01*
X162304762Y-62590819D02*
X162209524Y-62543200D01*
X162209524Y-62543200D02*
X162161905Y-62495580D01*
X121366238Y-119748200D02*
X121509095Y-119795819D01*
X121509095Y-119795819D02*
X121747190Y-119795819D01*
X121747190Y-119795819D02*
X121842428Y-119748200D01*
X121842428Y-119748200D02*
X121890047Y-119700580D01*
X121890047Y-119700580D02*
X121937666Y-119605342D01*
X121937666Y-119605342D02*
X121937666Y-119510104D01*
X121937666Y-119510104D02*
X121890047Y-119414866D01*
X121890047Y-119414866D02*
X121842428Y-119367247D01*
X121842428Y-119367247D02*
X121747190Y-119319628D01*
X121747190Y-119319628D02*
X121556714Y-119272009D01*
X121556714Y-119272009D02*
X121461476Y-119224390D01*
X121461476Y-119224390D02*
X121413857Y-119176771D01*
X121413857Y-119176771D02*
X121366238Y-119081533D01*
X121366238Y-119081533D02*
X121366238Y-118986295D01*
X121366238Y-118986295D02*
X121413857Y-118891057D01*
X121413857Y-118891057D02*
X121461476Y-118843438D01*
X121461476Y-118843438D02*
X121556714Y-118795819D01*
X121556714Y-118795819D02*
X121794809Y-118795819D01*
X121794809Y-118795819D02*
X121937666Y-118843438D01*
X122271000Y-118795819D02*
X122509095Y-119795819D01*
X122509095Y-119795819D02*
X122699571Y-119081533D01*
X122699571Y-119081533D02*
X122890047Y-119795819D01*
X122890047Y-119795819D02*
X123128143Y-118795819D01*
X123651952Y-119224390D02*
X123556714Y-119176771D01*
X123556714Y-119176771D02*
X123509095Y-119129152D01*
X123509095Y-119129152D02*
X123461476Y-119033914D01*
X123461476Y-119033914D02*
X123461476Y-118986295D01*
X123461476Y-118986295D02*
X123509095Y-118891057D01*
X123509095Y-118891057D02*
X123556714Y-118843438D01*
X123556714Y-118843438D02*
X123651952Y-118795819D01*
X123651952Y-118795819D02*
X123842428Y-118795819D01*
X123842428Y-118795819D02*
X123937666Y-118843438D01*
X123937666Y-118843438D02*
X123985285Y-118891057D01*
X123985285Y-118891057D02*
X124032904Y-118986295D01*
X124032904Y-118986295D02*
X124032904Y-119033914D01*
X124032904Y-119033914D02*
X123985285Y-119129152D01*
X123985285Y-119129152D02*
X123937666Y-119176771D01*
X123937666Y-119176771D02*
X123842428Y-119224390D01*
X123842428Y-119224390D02*
X123651952Y-119224390D01*
X123651952Y-119224390D02*
X123556714Y-119272009D01*
X123556714Y-119272009D02*
X123509095Y-119319628D01*
X123509095Y-119319628D02*
X123461476Y-119414866D01*
X123461476Y-119414866D02*
X123461476Y-119605342D01*
X123461476Y-119605342D02*
X123509095Y-119700580D01*
X123509095Y-119700580D02*
X123556714Y-119748200D01*
X123556714Y-119748200D02*
X123651952Y-119795819D01*
X123651952Y-119795819D02*
X123842428Y-119795819D01*
X123842428Y-119795819D02*
X123937666Y-119748200D01*
X123937666Y-119748200D02*
X123985285Y-119700580D01*
X123985285Y-119700580D02*
X124032904Y-119605342D01*
X124032904Y-119605342D02*
X124032904Y-119414866D01*
X124032904Y-119414866D02*
X123985285Y-119319628D01*
X123985285Y-119319628D02*
X123937666Y-119272009D01*
X123937666Y-119272009D02*
X123842428Y-119224390D01*
X124266238Y-81623200D02*
X124409095Y-81670819D01*
X124409095Y-81670819D02*
X124647190Y-81670819D01*
X124647190Y-81670819D02*
X124742428Y-81623200D01*
X124742428Y-81623200D02*
X124790047Y-81575580D01*
X124790047Y-81575580D02*
X124837666Y-81480342D01*
X124837666Y-81480342D02*
X124837666Y-81385104D01*
X124837666Y-81385104D02*
X124790047Y-81289866D01*
X124790047Y-81289866D02*
X124742428Y-81242247D01*
X124742428Y-81242247D02*
X124647190Y-81194628D01*
X124647190Y-81194628D02*
X124456714Y-81147009D01*
X124456714Y-81147009D02*
X124361476Y-81099390D01*
X124361476Y-81099390D02*
X124313857Y-81051771D01*
X124313857Y-81051771D02*
X124266238Y-80956533D01*
X124266238Y-80956533D02*
X124266238Y-80861295D01*
X124266238Y-80861295D02*
X124313857Y-80766057D01*
X124313857Y-80766057D02*
X124361476Y-80718438D01*
X124361476Y-80718438D02*
X124456714Y-80670819D01*
X124456714Y-80670819D02*
X124694809Y-80670819D01*
X124694809Y-80670819D02*
X124837666Y-80718438D01*
X125171000Y-80670819D02*
X125409095Y-81670819D01*
X125409095Y-81670819D02*
X125599571Y-80956533D01*
X125599571Y-80956533D02*
X125790047Y-81670819D01*
X125790047Y-81670819D02*
X126028143Y-80670819D01*
X126361476Y-80766057D02*
X126409095Y-80718438D01*
X126409095Y-80718438D02*
X126504333Y-80670819D01*
X126504333Y-80670819D02*
X126742428Y-80670819D01*
X126742428Y-80670819D02*
X126837666Y-80718438D01*
X126837666Y-80718438D02*
X126885285Y-80766057D01*
X126885285Y-80766057D02*
X126932904Y-80861295D01*
X126932904Y-80861295D02*
X126932904Y-80956533D01*
X126932904Y-80956533D02*
X126885285Y-81099390D01*
X126885285Y-81099390D02*
X126313857Y-81670819D01*
X126313857Y-81670819D02*
X126932904Y-81670819D01*
%TO.C,SW7*%
D24*
X105814571Y-101205000D02*
X119784571Y-101205000D01*
X105814571Y-115175000D02*
X105814571Y-101205000D01*
X119784571Y-101205000D02*
X119784571Y-115175000D01*
X119784571Y-115175000D02*
X105814571Y-115175000D01*
%TO.C,SW3*%
X137714571Y-82065000D02*
X151684571Y-82065000D01*
X137714571Y-96035000D02*
X137714571Y-82065000D01*
X151684571Y-82065000D02*
X151684571Y-96035000D01*
X151684571Y-96035000D02*
X137714571Y-96035000D01*
%TO.C,SW6*%
X175864571Y-63025000D02*
X189834571Y-63025000D01*
X175864571Y-76995000D02*
X175864571Y-63025000D01*
X189834571Y-63025000D02*
X189834571Y-76995000D01*
X189834571Y-76995000D02*
X175864571Y-76995000D01*
%TO.C,SW10*%
X111464571Y-56410000D02*
X112064571Y-56410000D01*
X111764571Y-56710000D02*
X111464571Y-56410000D01*
X112064571Y-56410000D02*
X111764571Y-56710000D01*
X113164571Y-54610000D02*
X113164571Y-66410000D01*
X117264571Y-54610000D02*
X113164571Y-54610000D01*
X117264571Y-66410000D02*
X113164571Y-66410000D01*
X118764571Y-60510000D02*
X119764571Y-60510000D01*
X119264571Y-60010000D02*
X119264571Y-61010000D01*
X121264571Y-54610000D02*
X125364571Y-54610000D01*
X125364571Y-54610000D02*
X125364571Y-57010000D01*
X125364571Y-59210000D02*
X125364571Y-61810000D01*
X125364571Y-64010000D02*
X125364571Y-66410000D01*
X125364571Y-66410000D02*
X121264571Y-66410000D01*
X122264571Y-60510000D02*
G75*
G02*
X116264571Y-60510000I-3000000J0D01*
G01*
X116264571Y-60510000D02*
G75*
G02*
X122264571Y-60510000I3000000J0D01*
G01*
%TO.C,SW9*%
X171634571Y-120600000D02*
X185604571Y-120600000D01*
X171634571Y-134570000D02*
X171634571Y-120600000D01*
X185604571Y-120600000D02*
X185604571Y-134570000D01*
X185604571Y-134570000D02*
X171634571Y-134570000D01*
%TO.C,J1*%
D25*
X128200000Y-49040000D02*
X128200000Y-61040000D01*
X128200000Y-61040000D02*
X166200000Y-61040000D01*
X133200000Y-61040000D02*
X133200000Y-49040000D01*
X162700000Y-61040000D02*
X162700000Y-49040000D01*
X166200000Y-49040000D02*
X128200000Y-49040000D01*
X166200000Y-61040000D02*
X166200000Y-49040000D01*
%TO.C,SW1*%
D24*
X137714571Y-63065000D02*
X151684571Y-63065000D01*
X137714571Y-77035000D02*
X137714571Y-63065000D01*
X151684571Y-63065000D02*
X151684571Y-77035000D01*
X151684571Y-77035000D02*
X137714571Y-77035000D01*
%TO.C,SW4*%
X156714571Y-82065000D02*
X170684571Y-82065000D01*
X156714571Y-96035000D02*
X156714571Y-82065000D01*
X170684571Y-82065000D02*
X170684571Y-96035000D01*
X170684571Y-96035000D02*
X156714571Y-96035000D01*
%TO.C,U1*%
D26*
X166689500Y-43022015D02*
X166689500Y-60022015D01*
X168689500Y-62022015D02*
X182489500Y-62022015D01*
X171089500Y-39597985D02*
X180089500Y-39597985D01*
X171089500Y-46951285D02*
X171089500Y-39597985D01*
X180089500Y-39597985D02*
X180089500Y-46951285D01*
X180089500Y-46951285D02*
X171089500Y-46951285D01*
X182489500Y-41022925D02*
X168689500Y-41022925D01*
X184489500Y-60022015D02*
X184489500Y-43022015D01*
D24*
X166689500Y-43022015D02*
G75*
G02*
X168689500Y-41022015I2044612J-44612D01*
G01*
X168689500Y-62022015D02*
G75*
G02*
X166689500Y-60022015I44857J2044857D01*
G01*
X182489500Y-41022015D02*
G75*
G02*
X184489500Y-43022015I-44610J-2044610D01*
G01*
X184489500Y-60022015D02*
G75*
G02*
X182489500Y-62022015I-2000000J0D01*
G01*
D27*
X164716500Y-42722015D02*
G75*
G02*
X164462500Y-42722015I-127000J0D01*
G01*
X164462500Y-42722015D02*
G75*
G02*
X164716500Y-42722015I127000J0D01*
G01*
D28*
X166701785Y-42960310D02*
X166704833Y-42911542D01*
X166708897Y-42862521D01*
X166701785Y-42960310D01*
X184478992Y-60043589D02*
X184477213Y-60092865D01*
X184474165Y-60141633D01*
X184470101Y-60190654D01*
X184464768Y-60239422D01*
X184458164Y-60288190D01*
X184450544Y-60336705D01*
X184441653Y-60384965D01*
X184431748Y-60432970D01*
X184478992Y-60043589D01*
%TO.C,SW5*%
D24*
X156734571Y-63025000D02*
X170704571Y-63025000D01*
X156734571Y-76995000D02*
X156734571Y-63025000D01*
X170704571Y-63025000D02*
X170704571Y-76995000D01*
X170704571Y-76995000D02*
X156734571Y-76995000D01*
%TO.C,SW8*%
X115714571Y-120230000D02*
X129684571Y-120230000D01*
X115714571Y-134200000D02*
X115714571Y-120230000D01*
X129684571Y-120230000D02*
X129684571Y-134200000D01*
X129684571Y-134200000D02*
X115714571Y-134200000D01*
%TO.C,SW2*%
X118614571Y-82105000D02*
X132584571Y-82105000D01*
X118614571Y-96075000D02*
X118614571Y-82105000D01*
X132584571Y-82105000D02*
X132584571Y-96075000D01*
X132584571Y-96075000D02*
X118614571Y-96075000D01*
D29*
%TO.C,G\u002A\u002A\u002A*%
G36*
X129462696Y-106495955D02*
G01*
X129448426Y-106510224D01*
X129434157Y-106495955D01*
X129448426Y-106481685D01*
X129462696Y-106495955D01*
G37*
G36*
X129519774Y-106010786D02*
G01*
X129505505Y-106025056D01*
X129491235Y-106010786D01*
X129505505Y-105996516D01*
X129519774Y-106010786D01*
G37*
G36*
X129605392Y-105497078D02*
G01*
X129591123Y-105511348D01*
X129576853Y-105497078D01*
X129591123Y-105482808D01*
X129605392Y-105497078D01*
G37*
G36*
X129662471Y-105211685D02*
G01*
X129648201Y-105225955D01*
X129633932Y-105211685D01*
X129648201Y-105197415D01*
X129662471Y-105211685D01*
G37*
G36*
X129748089Y-104840674D02*
G01*
X129733819Y-104854943D01*
X129719550Y-104840674D01*
X129733819Y-104826404D01*
X129748089Y-104840674D01*
G37*
G36*
X129805168Y-104640898D02*
G01*
X129790898Y-104655168D01*
X129776628Y-104640898D01*
X129790898Y-104626629D01*
X129805168Y-104640898D01*
G37*
G36*
X129862246Y-104441123D02*
G01*
X129847977Y-104455393D01*
X129833707Y-104441123D01*
X129847977Y-104426853D01*
X129862246Y-104441123D01*
G37*
G36*
X129919325Y-105782471D02*
G01*
X129905055Y-105796741D01*
X129890786Y-105782471D01*
X129905055Y-105768202D01*
X129919325Y-105782471D01*
G37*
G36*
X129947864Y-105525617D02*
G01*
X129933595Y-105539887D01*
X129919325Y-105525617D01*
X129933595Y-105511348D01*
X129947864Y-105525617D01*
G37*
G36*
X130004943Y-104013033D02*
G01*
X129990673Y-104027303D01*
X129976404Y-104013033D01*
X129990673Y-103998764D01*
X130004943Y-104013033D01*
G37*
G36*
X130004943Y-105126067D02*
G01*
X129990673Y-105140337D01*
X129976404Y-105126067D01*
X129990673Y-105111797D01*
X130004943Y-105126067D01*
G37*
G36*
X130033482Y-103927415D02*
G01*
X130019213Y-103941685D01*
X130004943Y-103927415D01*
X130019213Y-103913146D01*
X130033482Y-103927415D01*
G37*
G36*
X130119100Y-103699101D02*
G01*
X130104831Y-103713370D01*
X130090561Y-103699101D01*
X130104831Y-103684831D01*
X130119100Y-103699101D01*
G37*
G36*
X130176179Y-103556404D02*
G01*
X130161909Y-103570674D01*
X130147640Y-103556404D01*
X130161909Y-103542134D01*
X130176179Y-103556404D01*
G37*
G36*
X130233258Y-103413707D02*
G01*
X130218988Y-103427977D01*
X130204718Y-103413707D01*
X130218988Y-103399438D01*
X130233258Y-103413707D01*
G37*
G36*
X130290336Y-103271011D02*
G01*
X130276067Y-103285280D01*
X130261797Y-103271011D01*
X130276067Y-103256741D01*
X130290336Y-103271011D01*
G37*
G36*
X130318876Y-103213932D02*
G01*
X130304606Y-103228202D01*
X130290336Y-103213932D01*
X130304606Y-103199662D01*
X130318876Y-103213932D01*
G37*
G36*
X130375954Y-103071235D02*
G01*
X130361685Y-103085505D01*
X130347415Y-103071235D01*
X130361685Y-103056966D01*
X130375954Y-103071235D01*
G37*
G36*
X130404494Y-103014157D02*
G01*
X130390224Y-103028426D01*
X130375954Y-103014157D01*
X130390224Y-102999887D01*
X130404494Y-103014157D01*
G37*
G36*
X130518651Y-102757303D02*
G01*
X130504381Y-102771573D01*
X130490112Y-102757303D01*
X130504381Y-102743033D01*
X130518651Y-102757303D01*
G37*
G36*
X130547190Y-102700224D02*
G01*
X130532921Y-102714494D01*
X130518651Y-102700224D01*
X130532921Y-102685955D01*
X130547190Y-102700224D01*
G37*
G36*
X130889662Y-102015280D02*
G01*
X130875392Y-102029550D01*
X130861123Y-102015280D01*
X130875392Y-102001011D01*
X130889662Y-102015280D01*
G37*
G36*
X130918201Y-101958202D02*
G01*
X130903932Y-101972471D01*
X130889662Y-101958202D01*
X130903932Y-101943932D01*
X130918201Y-101958202D01*
G37*
G36*
X129881273Y-106148726D02*
G01*
X129884688Y-106182596D01*
X129881273Y-106186779D01*
X129864306Y-106182861D01*
X129862246Y-106167752D01*
X129872688Y-106144261D01*
X129881273Y-106148726D01*
G37*
G36*
X141800901Y-103544859D02*
G01*
X141820203Y-103608226D01*
X141820224Y-103611135D01*
X141798095Y-103669800D01*
X141743929Y-103737248D01*
X141676060Y-103795408D01*
X141612818Y-103826212D01*
X141600679Y-103827528D01*
X141573980Y-103803369D01*
X141539793Y-103742356D01*
X141525015Y-103707843D01*
X141498538Y-103625810D01*
X141505070Y-103576253D01*
X141552740Y-103546433D01*
X141641638Y-103525149D01*
X141742731Y-103517817D01*
X141800901Y-103544859D01*
G37*
G36*
X141969074Y-104022554D02*
G01*
X141990977Y-104041135D01*
X142044584Y-104116574D01*
X142041837Y-104193466D01*
X141983383Y-104270306D01*
X141869870Y-104345588D01*
X141857315Y-104352064D01*
X141774465Y-104388776D01*
X141726116Y-104391930D01*
X141699309Y-104359677D01*
X141689542Y-104328141D01*
X141675204Y-104246915D01*
X141667594Y-104166120D01*
X141669519Y-104109788D01*
X141691282Y-104075384D01*
X141746657Y-104048739D01*
X141798336Y-104031658D01*
X141881465Y-104007900D01*
X141931509Y-104004528D01*
X141969074Y-104022554D01*
G37*
G36*
X134234362Y-103296362D02*
G01*
X134242742Y-103312903D01*
X134250773Y-103374004D01*
X134249673Y-103463958D01*
X134241334Y-103567763D01*
X134227644Y-103670419D01*
X134210496Y-103756923D01*
X134191780Y-103812275D01*
X134178276Y-103824401D01*
X134139654Y-103817405D01*
X134066918Y-103803463D01*
X134032182Y-103796677D01*
X133953939Y-103779281D01*
X133903039Y-103764171D01*
X133894629Y-103759760D01*
X133904742Y-103732813D01*
X133941716Y-103669576D01*
X133999302Y-103580254D01*
X134053229Y-103500879D01*
X134130411Y-103391801D01*
X134182523Y-103325129D01*
X134215270Y-103295204D01*
X134234362Y-103296362D01*
G37*
G36*
X132786568Y-101555518D02*
G01*
X133210072Y-101591336D01*
X133648535Y-101661047D01*
X134106271Y-101765762D01*
X134587597Y-101906592D01*
X135096826Y-102084647D01*
X135638276Y-102301040D01*
X136140898Y-102522262D01*
X136330054Y-102605956D01*
X136533433Y-102691289D01*
X136733196Y-102771079D01*
X136911506Y-102838140D01*
X137011348Y-102872789D01*
X137574687Y-103028819D01*
X138158041Y-103133176D01*
X138757944Y-103186217D01*
X139370931Y-103188295D01*
X139993537Y-103139765D01*
X140622297Y-103040982D01*
X141253746Y-102892300D01*
X141884420Y-102694074D01*
X142510854Y-102446658D01*
X142890449Y-102271226D01*
X143045518Y-102194769D01*
X143193416Y-102120528D01*
X143321751Y-102054819D01*
X143418130Y-102003957D01*
X143454073Y-101983998D01*
X143532327Y-101944507D01*
X143590753Y-101925350D01*
X143611039Y-101927336D01*
X143604555Y-101957668D01*
X143574760Y-102031146D01*
X143525043Y-102140468D01*
X143458793Y-102278332D01*
X143379399Y-102437435D01*
X143325673Y-102542354D01*
X143238928Y-102710886D01*
X143161693Y-102862325D01*
X143097622Y-102989391D01*
X143050371Y-103084803D01*
X143023594Y-103141282D01*
X143018876Y-103153491D01*
X143046113Y-103158411D01*
X143122619Y-103162802D01*
X143240586Y-103166463D01*
X143392204Y-103169192D01*
X143569665Y-103170788D01*
X143702135Y-103171123D01*
X143903378Y-103172193D01*
X144080063Y-103175222D01*
X144225021Y-103179938D01*
X144331082Y-103186071D01*
X144391075Y-103193347D01*
X144401768Y-103197616D01*
X144386593Y-103225841D01*
X144329527Y-103287493D01*
X144233142Y-103380205D01*
X144100010Y-103501613D01*
X143932702Y-103649349D01*
X143733789Y-103821049D01*
X143603932Y-103931548D01*
X143392500Y-104103995D01*
X143144196Y-104295531D01*
X142870172Y-104498340D01*
X142581580Y-104704606D01*
X142289572Y-104906515D01*
X142005302Y-105096250D01*
X141739921Y-105265998D01*
X141504582Y-105407941D01*
X141463482Y-105431521D01*
X140986420Y-105685498D01*
X140519422Y-105900357D01*
X140067556Y-106074211D01*
X139635891Y-106205176D01*
X139229494Y-106291365D01*
X139103551Y-106309440D01*
X138949291Y-106322763D01*
X138749649Y-106330628D01*
X138516071Y-106332934D01*
X138260001Y-106329583D01*
X137992883Y-106320475D01*
X137967415Y-106319310D01*
X137771667Y-106306751D01*
X137536204Y-106286249D01*
X137277543Y-106259653D01*
X137012203Y-106228812D01*
X136756701Y-106195575D01*
X136527554Y-106161788D01*
X136457928Y-106150394D01*
X136171795Y-106098080D01*
X135871077Y-106034920D01*
X135548457Y-105959086D01*
X135196617Y-105868754D01*
X134808239Y-105762099D01*
X134376005Y-105637295D01*
X134243033Y-105597930D01*
X133744332Y-105451316D01*
X133295066Y-105323050D01*
X133061076Y-105258801D01*
X135812762Y-105258801D01*
X135820825Y-105294936D01*
X135823193Y-105300421D01*
X135864644Y-105352139D01*
X135935901Y-105368521D01*
X135946031Y-105368651D01*
X136031281Y-105343907D01*
X136126889Y-105277036D01*
X136222457Y-105179086D01*
X136307586Y-105061102D01*
X136371878Y-104934130D01*
X136382601Y-104904887D01*
X136424169Y-104801618D01*
X136462741Y-104749639D01*
X136487357Y-104740786D01*
X136511043Y-104742955D01*
X136529647Y-104755114D01*
X136546021Y-104785743D01*
X136563015Y-104843320D01*
X136583480Y-104936326D01*
X136610266Y-105073240D01*
X136624791Y-105149589D01*
X136657660Y-105316004D01*
X136686402Y-105434385D01*
X136716189Y-105513013D01*
X136752190Y-105560170D01*
X136799578Y-105584139D01*
X136863522Y-105593199D01*
X136902707Y-105594713D01*
X136990734Y-105577309D01*
X137038269Y-105533537D01*
X137067423Y-105463381D01*
X137082231Y-105371924D01*
X137082696Y-105354593D01*
X137072038Y-105247351D01*
X137043700Y-105108294D01*
X137003138Y-104957788D01*
X136955809Y-104816198D01*
X136912255Y-104714751D01*
X138042108Y-104714751D01*
X138050441Y-104916500D01*
X138080783Y-105113037D01*
X138132452Y-105293225D01*
X138204761Y-105445930D01*
X138297026Y-105560016D01*
X138335512Y-105589831D01*
X138450097Y-105637573D01*
X138590817Y-105656421D01*
X138734402Y-105646073D01*
X138857584Y-105606226D01*
X138874250Y-105596846D01*
X138963246Y-105518757D01*
X139007421Y-105426182D01*
X139001617Y-105331032D01*
X138995720Y-105316396D01*
X138959499Y-105267238D01*
X138902428Y-105260406D01*
X138886998Y-105262959D01*
X138804393Y-105278719D01*
X138709157Y-105297045D01*
X138702883Y-105298258D01*
X138630728Y-105306538D01*
X138578912Y-105289937D01*
X138521966Y-105239007D01*
X138510550Y-105226905D01*
X138433613Y-105116029D01*
X138379373Y-104980177D01*
X138348055Y-104831224D01*
X138339887Y-104681048D01*
X138355097Y-104541525D01*
X138393911Y-104424532D01*
X138456556Y-104341945D01*
X138493188Y-104318894D01*
X138564133Y-104304272D01*
X138637771Y-104329209D01*
X138717912Y-104359193D01*
X138784048Y-104369775D01*
X138830591Y-104361453D01*
X138849334Y-104325379D01*
X138852134Y-104272077D01*
X138825967Y-104163137D01*
X138783170Y-104102064D01*
X139127239Y-104102064D01*
X139132693Y-104200616D01*
X139145174Y-104332532D01*
X139164793Y-104503799D01*
X139191666Y-104720403D01*
X139221368Y-104952999D01*
X139245870Y-105128137D01*
X139269840Y-105270167D01*
X139291873Y-105371947D01*
X139310566Y-105426334D01*
X139315658Y-105432594D01*
X139371198Y-105446122D01*
X139469363Y-105446067D01*
X139597680Y-105433757D01*
X139743679Y-105410524D01*
X139894888Y-105377697D01*
X139939971Y-105366023D01*
X140082838Y-105322692D01*
X140176870Y-105281046D01*
X140229920Y-105236076D01*
X140249838Y-105182773D01*
X140250561Y-105167841D01*
X140234675Y-105110249D01*
X140183630Y-105078089D01*
X140092348Y-105070429D01*
X139955751Y-105086335D01*
X139882074Y-105100136D01*
X139765350Y-105120945D01*
X139666802Y-105133426D01*
X139602019Y-105135806D01*
X139588937Y-105133489D01*
X139568007Y-105113087D01*
X139551993Y-105064473D01*
X139539258Y-104978982D01*
X139528161Y-104847947D01*
X139524571Y-104793093D01*
X139511846Y-104634877D01*
X139493944Y-104471349D01*
X139473680Y-104326350D01*
X139461257Y-104256674D01*
X139419048Y-104081518D01*
X139373582Y-103960926D01*
X139345893Y-103923386D01*
X140043876Y-103923386D01*
X140054989Y-104002376D01*
X140080693Y-104120329D01*
X140116773Y-104262317D01*
X140159017Y-104413409D01*
X140203211Y-104558675D01*
X140245142Y-104683188D01*
X140280598Y-104772016D01*
X140287092Y-104785251D01*
X140380348Y-104918400D01*
X140500186Y-105004558D01*
X140653016Y-105047406D01*
X140754597Y-105053851D01*
X140855255Y-105051699D01*
X140918507Y-105039565D01*
X140963932Y-105010797D01*
X141001864Y-104969826D01*
X141069140Y-104871770D01*
X141110831Y-104761393D01*
X141129982Y-104625294D01*
X141129639Y-104450070D01*
X141127855Y-104415337D01*
X141105544Y-104174518D01*
X141068779Y-103968048D01*
X141019230Y-103802538D01*
X140958568Y-103684599D01*
X140936208Y-103657044D01*
X140872618Y-103595392D01*
X140826463Y-103574314D01*
X140780549Y-103589010D01*
X140754861Y-103606399D01*
X140720031Y-103650253D01*
X140704936Y-103721513D01*
X140709492Y-103827837D01*
X140733615Y-103976880D01*
X140749947Y-104055842D01*
X140788653Y-104270979D01*
X140805912Y-104454663D01*
X140802298Y-104602599D01*
X140778381Y-104710493D01*
X140734732Y-104774050D01*
X140671924Y-104788975D01*
X140652981Y-104784506D01*
X140612627Y-104763380D01*
X140576520Y-104722776D01*
X140541581Y-104655430D01*
X140504732Y-104554080D01*
X140462895Y-104411462D01*
X140412992Y-104220313D01*
X140411687Y-104215137D01*
X140372358Y-104068919D01*
X140332869Y-103939240D01*
X140297171Y-103837978D01*
X140269216Y-103777008D01*
X140263117Y-103768555D01*
X140192799Y-103718498D01*
X140127816Y-103719547D01*
X140076512Y-103765810D01*
X140047233Y-103851392D01*
X140043876Y-103923386D01*
X139345893Y-103923386D01*
X139323039Y-103892401D01*
X139265600Y-103873447D01*
X139201367Y-103900207D01*
X139173400Y-103921748D01*
X139151890Y-103946717D01*
X139136951Y-103981102D01*
X139128696Y-104030888D01*
X139127239Y-104102064D01*
X138783170Y-104102064D01*
X138756104Y-104063440D01*
X138655504Y-103989183D01*
X138611063Y-103970724D01*
X138498226Y-103960932D01*
X138373818Y-103994795D01*
X138255742Y-104067084D01*
X138242575Y-104078335D01*
X138156019Y-104189581D01*
X138094213Y-104340156D01*
X138056471Y-104518924D01*
X138042108Y-104714751D01*
X136912255Y-104714751D01*
X136909690Y-104708777D01*
X136852658Y-104596986D01*
X137028181Y-104393050D01*
X137155674Y-104232853D01*
X137236415Y-104102414D01*
X137271289Y-104000051D01*
X137267537Y-103939590D01*
X137228041Y-103890750D01*
X137156813Y-103885779D01*
X137056915Y-103923297D01*
X136931409Y-104001924D01*
X136783357Y-104120282D01*
X136700864Y-104194834D01*
X136637603Y-104252559D01*
X136606799Y-104273555D01*
X136599849Y-104260743D01*
X136605912Y-104227078D01*
X136616051Y-104163682D01*
X136627875Y-104064154D01*
X136638931Y-103949290D01*
X136639573Y-103941685D01*
X136640488Y-103763260D01*
X136608600Y-103628734D01*
X136563699Y-103564578D01*
X141224966Y-103564578D01*
X141238829Y-103660375D01*
X141270666Y-103790242D01*
X141319373Y-103962204D01*
X141357176Y-104092155D01*
X141520561Y-104654379D01*
X141653629Y-104654773D01*
X141771513Y-104640515D01*
X141902524Y-104593333D01*
X141966721Y-104561975D01*
X142121124Y-104463531D01*
X142221555Y-104354625D01*
X142270687Y-104231819D01*
X142276853Y-104162957D01*
X142257104Y-104028798D01*
X142203950Y-103907367D01*
X142126531Y-103818069D01*
X142108486Y-103805489D01*
X142053529Y-103771151D01*
X142025202Y-103753355D01*
X142025156Y-103753326D01*
X142026933Y-103725236D01*
X142042177Y-103661524D01*
X142051078Y-103630531D01*
X142067241Y-103511354D01*
X142051546Y-103391638D01*
X142008278Y-103292470D01*
X141974744Y-103254711D01*
X141895203Y-103222284D01*
X141780644Y-103220097D01*
X141643497Y-103246667D01*
X141496193Y-103300506D01*
X141463827Y-103315779D01*
X141371290Y-103361596D01*
X141302238Y-103401359D01*
X141255568Y-103443094D01*
X141230178Y-103494826D01*
X141224966Y-103564578D01*
X136563699Y-103564578D01*
X136542562Y-103534376D01*
X136476780Y-103490927D01*
X136398855Y-103467765D01*
X136337104Y-103483113D01*
X136289454Y-103540731D01*
X136253832Y-103644381D01*
X136228166Y-103797824D01*
X136212628Y-103970224D01*
X136192893Y-104178435D01*
X136161260Y-104359149D01*
X136112439Y-104531307D01*
X136041142Y-104713852D01*
X135950782Y-104908005D01*
X135884274Y-105046517D01*
X135841255Y-105144529D01*
X135818495Y-105211977D01*
X135812762Y-105258801D01*
X133061076Y-105258801D01*
X132890984Y-105212097D01*
X132527834Y-105117425D01*
X132201365Y-105037998D01*
X131907324Y-104972783D01*
X131641460Y-104920746D01*
X131399522Y-104880853D01*
X131177257Y-104852070D01*
X131175055Y-104851827D01*
X131049108Y-104841927D01*
X130896058Y-104835901D01*
X130727975Y-104833551D01*
X130556926Y-104834681D01*
X130394979Y-104839092D01*
X130254203Y-104846589D01*
X130146665Y-104856973D01*
X130085491Y-104869632D01*
X130064906Y-104856050D01*
X130064274Y-104794840D01*
X130081836Y-104691161D01*
X130115832Y-104550171D01*
X130164503Y-104377030D01*
X130226088Y-104176896D01*
X130298830Y-103954929D01*
X130308394Y-103927142D01*
X131452005Y-103927142D01*
X131459725Y-104004613D01*
X131487821Y-104060756D01*
X131516131Y-104088990D01*
X131606007Y-104130471D01*
X131702664Y-104117130D01*
X131803764Y-104050490D01*
X131906967Y-103932074D01*
X132006643Y-103769609D01*
X132062470Y-103669178D01*
X132110103Y-103591414D01*
X132142363Y-103547691D01*
X132150238Y-103542134D01*
X132186168Y-103551643D01*
X132258209Y-103575992D01*
X132349437Y-103608917D01*
X132442927Y-103644152D01*
X132521758Y-103675432D01*
X132569005Y-103696493D01*
X132572348Y-103698399D01*
X132577347Y-103730995D01*
X132570395Y-103805635D01*
X132553029Y-103908906D01*
X132542131Y-103961590D01*
X132509406Y-104123066D01*
X132492910Y-104239577D01*
X132492438Y-104320820D01*
X132507788Y-104376494D01*
X132532712Y-104410545D01*
X132610107Y-104451249D01*
X132613314Y-104450891D01*
X133205920Y-104450891D01*
X133210199Y-104470181D01*
X133219885Y-104487076D01*
X133232596Y-104506904D01*
X133233246Y-104508029D01*
X133292134Y-104565559D01*
X133369051Y-104575893D01*
X133455918Y-104542593D01*
X133544658Y-104469221D01*
X133627192Y-104359340D01*
X133646284Y-104325886D01*
X133698358Y-104229191D01*
X133870808Y-104246399D01*
X133962532Y-104256120D01*
X134027356Y-104264067D01*
X134049238Y-104267971D01*
X134044032Y-104295110D01*
X134024915Y-104363412D01*
X133995624Y-104459755D01*
X133985534Y-104491773D01*
X133944932Y-104641409D01*
X133934098Y-104747042D01*
X133954251Y-104814099D01*
X134006613Y-104848005D01*
X134067242Y-104854943D01*
X134158299Y-104837792D01*
X134235872Y-104798399D01*
X134288366Y-104744463D01*
X134333943Y-104666700D01*
X134376053Y-104556426D01*
X134387515Y-104515183D01*
X134758301Y-104515183D01*
X134769278Y-104643041D01*
X134816157Y-104841340D01*
X134894881Y-104993828D01*
X135006912Y-105103013D01*
X135053758Y-105131198D01*
X135204791Y-105188306D01*
X135343091Y-105196539D01*
X135461647Y-105156158D01*
X135515228Y-105113993D01*
X135579755Y-105033051D01*
X135595841Y-104959641D01*
X135569107Y-104881606D01*
X135517321Y-104837375D01*
X135443015Y-104826404D01*
X135336980Y-104817651D01*
X135267815Y-104785048D01*
X135217137Y-104719079D01*
X135210021Y-104705771D01*
X135170989Y-104576131D01*
X135165554Y-104411480D01*
X135192551Y-104222080D01*
X135250819Y-104018195D01*
X135302698Y-103887750D01*
X135383060Y-103735982D01*
X135464999Y-103639781D01*
X135547830Y-103599558D01*
X135630869Y-103615723D01*
X135685998Y-103658020D01*
X135765859Y-103705168D01*
X135848194Y-103701760D01*
X135916969Y-103650363D01*
X135936626Y-103617923D01*
X135954628Y-103520230D01*
X135931810Y-103411647D01*
X135875712Y-103311605D01*
X135793872Y-103239533D01*
X135788699Y-103236727D01*
X135674194Y-103201507D01*
X135534251Y-103193834D01*
X135393066Y-103213071D01*
X135290630Y-103249858D01*
X135166210Y-103342493D01*
X135051506Y-103481630D01*
X134950363Y-103656991D01*
X134866626Y-103858303D01*
X134804139Y-104075289D01*
X134766749Y-104297674D01*
X134758301Y-104515183D01*
X134387515Y-104515183D01*
X134418149Y-104404958D01*
X134453700Y-104250294D01*
X134501761Y-103991756D01*
X134534077Y-103738008D01*
X134550630Y-103497338D01*
X134551401Y-103278033D01*
X134536374Y-103088383D01*
X134505529Y-102936674D01*
X134458850Y-102831196D01*
X134456768Y-102828216D01*
X134383114Y-102751425D01*
X134301437Y-102726686D01*
X134198443Y-102750363D01*
X134187790Y-102754696D01*
X134152544Y-102770740D01*
X134120715Y-102790708D01*
X134088616Y-102820221D01*
X134052557Y-102864899D01*
X134008850Y-102930365D01*
X133953806Y-103022238D01*
X133883736Y-103146139D01*
X133794951Y-103307689D01*
X133683764Y-103512509D01*
X133652283Y-103570674D01*
X133527523Y-103801022D01*
X133427233Y-103986332D01*
X133349031Y-104131935D01*
X133290532Y-104243160D01*
X133249354Y-104325338D01*
X133223115Y-104383799D01*
X133209431Y-104423873D01*
X133205920Y-104450891D01*
X132613314Y-104450891D01*
X132709784Y-104440123D01*
X132770437Y-104414042D01*
X132845965Y-104358335D01*
X132900831Y-104295723D01*
X132930133Y-104235077D01*
X132970757Y-104128835D01*
X133019828Y-103986684D01*
X133074474Y-103818314D01*
X133131821Y-103633412D01*
X133188994Y-103441668D01*
X133243119Y-103252769D01*
X133291324Y-103076405D01*
X133330733Y-102922264D01*
X133358474Y-102800033D01*
X133371671Y-102719403D01*
X133372368Y-102706062D01*
X133347963Y-102637546D01*
X133286756Y-102572362D01*
X133207578Y-102526605D01*
X133148523Y-102514719D01*
X133069910Y-102535645D01*
X132991193Y-102600797D01*
X132909428Y-102713734D01*
X132821672Y-102878014D01*
X132787750Y-102951069D01*
X132736749Y-103058081D01*
X132691421Y-103141988D01*
X132658233Y-103191357D01*
X132647166Y-103199662D01*
X132606819Y-103189966D01*
X132531644Y-103164845D01*
X132459103Y-103137838D01*
X132299664Y-103076014D01*
X132301011Y-102816771D01*
X132291782Y-102623637D01*
X132260322Y-102477806D01*
X132204388Y-102373116D01*
X132121736Y-102303405D01*
X132112177Y-102298256D01*
X132042606Y-102271538D01*
X131982716Y-102279449D01*
X131952961Y-102292378D01*
X131905560Y-102321409D01*
X131867104Y-102363333D01*
X131833886Y-102426996D01*
X131802196Y-102521242D01*
X131768327Y-102654918D01*
X131732498Y-102818228D01*
X131691659Y-102995998D01*
X131640785Y-103195009D01*
X131587602Y-103385857D01*
X131556313Y-103488902D01*
X131499777Y-103677073D01*
X131465182Y-103820558D01*
X131452005Y-103927142D01*
X130308394Y-103927142D01*
X130380968Y-103716288D01*
X130470742Y-103466132D01*
X130566394Y-103209620D01*
X130666163Y-102951911D01*
X130768290Y-102698164D01*
X130871017Y-102453538D01*
X130972583Y-102223193D01*
X131031807Y-102094890D01*
X131182366Y-101774949D01*
X131399890Y-101704496D01*
X131566961Y-101653218D01*
X131715130Y-101615520D01*
X131860416Y-101588901D01*
X132018842Y-101570862D01*
X132206426Y-101558901D01*
X132373707Y-101552483D01*
X132786568Y-101555518D01*
G37*
D22*
%TO.C,D23*%
X186314570Y-134407158D02*
X187214570Y-135307158D01*
X186314570Y-135307158D01*
X186314570Y-134407158D01*
G36*
X187214570Y-135307158D02*
G01*
X186314570Y-135307158D01*
X186314570Y-134407158D01*
X187214570Y-135307158D01*
G37*
%TO.C,D22*%
X103914571Y-133907158D02*
X104814571Y-134807158D01*
X103914571Y-134807158D01*
X103914571Y-133907158D01*
G36*
X104814571Y-134807158D02*
G01*
X103914571Y-134807158D01*
X103914571Y-133907158D01*
X104814571Y-134807158D01*
G37*
%TO.C,D20*%
X105620000Y-49250000D02*
X106520000Y-50150000D01*
X105620000Y-50150000D01*
X105620000Y-49250000D01*
G36*
X106520000Y-50150000D02*
G01*
X105620000Y-50150000D01*
X105620000Y-49250000D01*
X106520000Y-50150000D01*
G37*
%TO.C,D24*%
X103814570Y-90407158D02*
X104714570Y-91307158D01*
X103814570Y-91307158D01*
X103814570Y-90407158D01*
G36*
X104714570Y-91307158D02*
G01*
X103814570Y-91307158D01*
X103814570Y-90407158D01*
X104714570Y-91307158D01*
G37*
%TO.C,D25*%
X147314570Y-47907158D02*
X148214570Y-48807158D01*
X147314570Y-48807158D01*
X147314570Y-47907158D01*
G36*
X148214570Y-48807158D02*
G01*
X147314570Y-48807158D01*
X147314570Y-47907158D01*
X148214570Y-48807158D01*
G37*
%TO.C,D21*%
X186314570Y-48407158D02*
X187214570Y-49307158D01*
X186314570Y-49307158D01*
X186314570Y-48407158D01*
G36*
X187214570Y-49307158D02*
G01*
X186314570Y-49307158D01*
X186314570Y-48407158D01*
X187214570Y-49307158D01*
G37*
%TO.C,D26*%
X186314570Y-91407158D02*
X187214570Y-92307158D01*
X186314570Y-92307158D01*
X186314570Y-91407158D01*
G36*
X187214570Y-92307158D02*
G01*
X186314570Y-92307158D01*
X186314570Y-91407158D01*
X187214570Y-92307158D01*
G37*
%TO.C,D27*%
X146914571Y-133760000D02*
X147814571Y-134660000D01*
X146914571Y-134660000D01*
X146914571Y-133760000D01*
G36*
X147814571Y-134660000D02*
G01*
X146914571Y-134660000D01*
X146914571Y-133760000D01*
X147814571Y-134660000D01*
G37*
%TD*%
M02*
