%TF.GenerationSoftware,KiCad,Pcbnew,10.0.3*%
%TF.CreationDate,2026-07-23T13:12:38-04:00*%
%TF.ProjectId,Anypad,416e7970-6164-42e6-9b69-6361645f7063,1*%
%TF.SameCoordinates,Original*%
%TF.FileFunction,Soldermask,Bot*%
%TF.FilePolarity,Negative*%
%FSLAX46Y46*%
G04 Gerber Fmt 4.6, Leading zero omitted, Abs format (unit mm)*
G04 Created by KiCad (PCBNEW 10.0.3) date 2026-07-23 13:12:38*
%MOMM*%
%LPD*%
G01*
G04 APERTURE LIST*
G04 Aperture macros list*
%AMRoundRect*
0 Rectangle with rounded corners*
0 $1 Rounding radius*
0 $2 $3 $4 $5 $6 $7 $8 $9 X,Y pos of 4 corners*
0 Add a 4 corners polygon primitive as box body*
4,1,4,$2,$3,$4,$5,$6,$7,$8,$9,$2,$3,0*
0 Add four circle primitives for the rounded corners*
1,1,$1+$1,$2,$3*
1,1,$1+$1,$4,$5*
1,1,$1+$1,$6,$7*
1,1,$1+$1,$8,$9*
0 Add four rect primitives between the rounded corners*
20,1,$1+$1,$2,$3,$4,$5,0*
20,1,$1+$1,$4,$5,$6,$7,0*
20,1,$1+$1,$6,$7,$8,$9,0*
20,1,$1+$1,$8,$9,$2,$3,0*%
G04 Aperture macros list end*
%ADD10C,1.700000*%
%ADD11C,4.000000*%
%ADD12C,2.200000*%
%ADD13RoundRect,0.082000X-0.718000X0.328000X-0.718000X-0.328000X0.718000X-0.328000X0.718000X0.328000X0*%
%ADD14R,2.000000X2.000000*%
%ADD15C,2.000000*%
%ADD16R,3.200000X2.000000*%
%ADD17R,1.700000X1.700000*%
%ADD18O,1.700000X1.700000*%
%ADD19R,3.500000X1.700000*%
%ADD20O,3.600000X1.700000*%
%ADD21O,3.700000X1.700000*%
%ADD22RoundRect,0.250000X0.550000X-0.550000X0.550000X0.550000X-0.550000X0.550000X-0.550000X-0.550000X0*%
%ADD23C,1.600000*%
G04 APERTURE END LIST*
D10*
%TO.C,SW7*%
X107719571Y-108190000D03*
D11*
X112799571Y-108190000D03*
D10*
X117879571Y-108190000D03*
D12*
X115339571Y-103110000D03*
X108989571Y-105650000D03*
%TD*%
D13*
%TO.C,D12*%
X122914572Y-92657158D03*
X122914572Y-94157158D03*
X128114572Y-94157158D03*
X128114572Y-92657158D03*
%TD*%
D10*
%TO.C,SW3*%
X139619571Y-89050000D03*
D11*
X144699571Y-89050000D03*
D10*
X149779571Y-89050000D03*
D12*
X147239571Y-83970000D03*
X140889571Y-86510000D03*
%TD*%
D10*
%TO.C,SW6*%
X177769571Y-70010000D03*
D11*
X182849571Y-70010000D03*
D10*
X187929571Y-70010000D03*
D12*
X185389571Y-64930000D03*
X179039571Y-67470000D03*
%TD*%
D13*
%TO.C,D14*%
X160914572Y-92657158D03*
X160914572Y-94157158D03*
X166114572Y-94157158D03*
X166114572Y-92657158D03*
%TD*%
%TO.C,D17*%
X109914572Y-112157158D03*
X109914572Y-113657158D03*
X115114572Y-113657158D03*
X115114572Y-112157158D03*
%TD*%
D14*
%TO.C,SW10*%
X111764571Y-58010000D03*
D15*
X111764571Y-63010000D03*
X111764571Y-60510000D03*
D16*
X119264571Y-54910000D03*
X119264571Y-66110000D03*
D15*
X126264571Y-63010000D03*
X126264571Y-58010000D03*
%TD*%
D10*
%TO.C,SW9*%
X173539571Y-127585000D03*
D11*
X178619571Y-127585000D03*
D10*
X183699571Y-127585000D03*
D12*
X181159571Y-122505000D03*
X174809571Y-125045000D03*
%TD*%
D17*
%TO.C,J1*%
X129700000Y-58850000D03*
D18*
X129700000Y-56310000D03*
X129700000Y-53770000D03*
X129700000Y-51230000D03*
%TD*%
D13*
%TO.C,D11*%
X142039572Y-73657158D03*
X142039572Y-75157158D03*
X147239572Y-75157158D03*
X147239572Y-73657158D03*
%TD*%
%TO.C,D19*%
X175914572Y-131657158D03*
X175914572Y-133157158D03*
X181114572Y-133157158D03*
X181114572Y-131657158D03*
%TD*%
D10*
%TO.C,SW1*%
X139619571Y-70050000D03*
D11*
X144699571Y-70050000D03*
D10*
X149779571Y-70050000D03*
D12*
X147239571Y-64970000D03*
X140889571Y-67510000D03*
%TD*%
D10*
%TO.C,SW4*%
X158619571Y-89050000D03*
D11*
X163699571Y-89050000D03*
D10*
X168779571Y-89050000D03*
D12*
X166239571Y-83970000D03*
X159889571Y-86510000D03*
%TD*%
D13*
%TO.C,D18*%
X120014571Y-131510000D03*
X120014571Y-133010000D03*
X125214571Y-133010000D03*
X125214571Y-131510000D03*
%TD*%
%TO.C,D13*%
X141914572Y-92657158D03*
X141914572Y-94157158D03*
X147114572Y-94157158D03*
X147114572Y-92657158D03*
%TD*%
D19*
%TO.C,U1*%
X166964500Y-43902015D03*
D20*
X166964500Y-46442015D03*
X166964500Y-48982015D03*
X166964500Y-51522015D03*
X166964500Y-54062015D03*
X166964500Y-56602015D03*
X166964500Y-59142015D03*
X184214500Y-59142015D03*
X184214500Y-56602015D03*
X184214500Y-54062015D03*
D21*
X184214500Y-51522015D03*
X184214500Y-48982015D03*
X184214500Y-46442015D03*
X184214500Y-43902015D03*
%TD*%
D13*
%TO.C,D15*%
X160914572Y-73657158D03*
X160914572Y-75157158D03*
X166114572Y-75157158D03*
X166114572Y-73657158D03*
%TD*%
%TO.C,D16*%
X180414572Y-73657158D03*
X180414572Y-75157158D03*
X185614572Y-75157158D03*
X185614572Y-73657158D03*
%TD*%
D10*
%TO.C,SW5*%
X158639571Y-70010000D03*
D11*
X163719571Y-70010000D03*
D10*
X168799571Y-70010000D03*
D12*
X166259571Y-64930000D03*
X159909571Y-67470000D03*
%TD*%
D10*
%TO.C,SW8*%
X117619571Y-127215000D03*
D11*
X122699571Y-127215000D03*
D10*
X127779571Y-127215000D03*
D12*
X125239571Y-122135000D03*
X118889571Y-124675000D03*
%TD*%
D10*
%TO.C,SW2*%
X120519571Y-89090000D03*
D11*
X125599571Y-89090000D03*
D10*
X130679571Y-89090000D03*
D12*
X128139571Y-84010000D03*
X121789571Y-86550000D03*
%TD*%
D22*
%TO.C,D9*%
X189514571Y-129320000D03*
D23*
X189514571Y-121700000D03*
%TD*%
D22*
%TO.C,D2*%
X135139571Y-94160000D03*
D23*
X135139571Y-86540000D03*
%TD*%
D22*
%TO.C,D8*%
X132214571Y-132005000D03*
D23*
X132214571Y-124385000D03*
%TD*%
D22*
%TO.C,D6*%
X192364571Y-75105000D03*
D23*
X192364571Y-67485000D03*
%TD*%
D22*
%TO.C,D5*%
X173289571Y-75095000D03*
D23*
X173289571Y-67475000D03*
%TD*%
D22*
%TO.C,D7*%
X122339571Y-113130000D03*
D23*
X122339571Y-105510000D03*
%TD*%
D22*
%TO.C,D4*%
X173214571Y-94205000D03*
D23*
X173214571Y-86585000D03*
%TD*%
D22*
%TO.C,D1*%
X154214571Y-75220000D03*
D23*
X154214571Y-67600000D03*
%TD*%
D22*
%TO.C,D10*%
X130300000Y-70030000D03*
D23*
X130300000Y-62410000D03*
%TD*%
D22*
%TO.C,D3*%
X154139571Y-94220000D03*
D23*
X154139571Y-86600000D03*
%TD*%
M02*
