M48
; DRILL file KiCad 10.0.3 date 2026-07-23T13:15:43
; FORMAT={-:-/ absolute / metric / decimal}
; #@! TF.CreationDate,2026-07-23T13:15:43-04:00
; #@! TF.GenerationSoftware,Kicad,Pcbnew,10.0.3
; #@! TF.FileFunction,MixedPlating,1,2
FMAT,2
METRIC
; #@! TA.AperFunction,Plated,PTH,ViaDrill
T1C0.300
; #@! TA.AperFunction,Plated,PTH,ComponentDrill
T2C0.800
; #@! TA.AperFunction,Plated,PTH,ComponentDrill
T3C1.000
; #@! TA.AperFunction,Plated,PTH,ComponentDrill
T4C1.500
; #@! TA.AperFunction,NonPlated,NPTH,ComponentDrill
T5C1.700
; #@! TA.AperFunction,NonPlated,NPTH,ComponentDrill
T6C4.000
%
G90
G05
T1
X102.74Y-134.81
X104.24Y-133.31
X104.34Y-91.321
X104.74Y-111.423
X105.14Y-112.268
X105.415Y-86.545
X106.74Y-136.81
X106.84Y-61.31
X111.74Y-90.157
X112.138Y-119.129
X112.587Y-133.657
X112.704Y-119.694
X113.74Y-58.81
X113.74Y-87.61
X114.24Y-50.81
X115.24Y-61.81
X115.4Y-118.31
X116.74Y-91.31
X117.493Y-111.064
X117.74Y-113.81
X117.74Y-129.71
X117.819Y-89.389
X118.24Y-131.51
X118.74Y-111.81
X119.9Y-87.31
X120.74Y-95.71
X122.24Y-62.31
X122.97Y-60.967
X124.44Y-108.81
X124.64Y-135.21
X124.671Y-106.779
X126.218Y-64.509
X127.04Y-133.01
X127.526Y-91.183
X128.74Y-90.81
X128.74Y-135.91
X129.58Y-124.075
X130.215Y-85.54
X130.59Y-121.86
X131.89Y-87.54
X132.2Y-70.01
X132.24Y-94.81
X132.97Y-134.81
X133.4Y-87.81
X134.115Y-65.91
X138.9Y-48.695
X139.24Y-96.41
X139.359Y-67.977
X139.5Y-46.61
X140.74Y-75.81
X141.665Y-46.295
X141.852Y-89.423
X142.4Y-90.81
X143.784Y-96.766
X145.74Y-46.295
X145.74Y-47.495
X146.14Y-132.296
X147.4Y-67.31
X147.9Y-90.31
X148.4Y-134.31
X148.74Y-96.81
X149.74Y-73.81
X149.74Y-92.31
X149.931Y-60.229
X150.24Y-99.81
X151.031Y-73.404
X151.709Y-73.829
X151.74Y-66.51
X152.34Y-73.199
X152.4Y-87.81
X154.239Y-82.659
X154.74Y-70.799
X156.315Y-68.31
X156.315Y-74.894
X156.315Y-92.31
X156.54Y-71.81
X156.715Y-76.949
X157.235Y-75.814
X157.9Y-49.31
X157.9Y-87.31
X157.907Y-68.817
X158.02Y-92.91
X158.112Y-47.231
X158.24Y-135.81
X158.74Y-93.31
X158.835Y-91.71
X159.089Y-46.511
X159.44Y-75.46
X159.9Y-72.31
X160.4Y-43.81
X161.099Y-76.21
X161.74Y-83.31
X162.212Y-65.229
X162.4Y-63.31
X164.414Y-98.136
X166.115Y-96.76
X168.74Y-75.81
X168.74Y-77.41
X169.34Y-62.86
X170.29Y-66.47
X171.065Y-136.984
X171.09Y-66.47
X171.4Y-87.81
X171.89Y-66.47
X172.24Y-136.21
X172.4Y-126.31
X173.715Y-76.81
X173.74Y-131.81
X174.29Y-60.229
X174.915Y-77.31
X174.96Y-74.095
X174.99Y-88.06
X175.206Y-75.326
X177.4Y-89.81
X182.24Y-129.31
X182.74Y-131.81
X184.417Y-89.684
X185.24Y-88.81
X185.4Y-118.81
X186.215Y-132.409
X186.615Y-47.873
X186.628Y-118.672
X187.24Y-119.81
X187.4Y-135.81
X187.415Y-131.81
X188.4Y-123.31
X188.74Y-75.605
X188.777Y-45.047
X189.342Y-118.607
X189.9Y-42.71
X191.4Y-43.31
X192.615Y-52.91
X192.7Y-51.21
X193.115Y-92.81
X193.19Y-44.86
X193.615Y-135.31
X193.8Y-76.41
X193.9Y-129.81
X194.615Y-53.61
X194.64Y-66.33
X195.1Y-51.41
X195.7Y-56.11
X195.74Y-83.31
T2
X122.34Y-105.51
X122.34Y-113.13
X130.3Y-62.41
X130.3Y-70.03
X132.215Y-124.385
X132.215Y-132.005
X135.14Y-86.54
X135.14Y-94.16
X154.14Y-86.6
X154.14Y-94.22
X154.215Y-67.6
X154.215Y-75.22
X173.215Y-86.585
X173.215Y-94.205
X173.29Y-67.475
X173.29Y-75.095
X189.515Y-121.7
X189.515Y-129.32
X192.365Y-67.485
X192.365Y-75.105
T3
X111.765Y-58.01
X111.765Y-60.51
X111.765Y-63.01
X126.265Y-58.01
X126.265Y-63.01
X129.7Y-51.23
X129.7Y-53.77
X129.7Y-56.31
X129.7Y-58.85
X167.964Y-43.902
X167.964Y-46.442
X167.964Y-48.982
X167.964Y-51.522
X167.964Y-54.062
X167.964Y-56.602
X167.964Y-59.142
X183.214Y-43.902
X183.214Y-46.442
X183.214Y-48.982
X183.214Y-51.522
X183.214Y-54.062
X183.214Y-56.602
X183.214Y-59.142
T4
X108.99Y-105.65
X115.34Y-103.11
X118.89Y-124.675
X121.79Y-86.55
X125.24Y-122.135
X128.14Y-84.01
X140.89Y-67.51
X140.89Y-86.51
X147.24Y-64.97
X147.24Y-83.97
X159.89Y-86.51
X159.91Y-67.47
X166.24Y-83.97
X166.26Y-64.93
X174.81Y-125.045
X179.04Y-67.47
X181.16Y-122.505
X185.39Y-64.93
T5
X107.72Y-108.19
X117.62Y-127.215
X117.88Y-108.19
X120.52Y-89.09
X127.78Y-127.215
X130.68Y-89.09
X139.62Y-70.05
X139.62Y-89.05
X149.78Y-70.05
X149.78Y-89.05
X158.62Y-89.05
X158.64Y-70.01
X168.78Y-89.05
X168.8Y-70.01
X173.54Y-127.585
X177.77Y-70.01
X183.7Y-127.585
X187.93Y-70.01
T6
X112.8Y-108.19
X122.7Y-127.215
X125.6Y-89.09
X144.7Y-70.05
X144.7Y-89.05
X163.7Y-89.05
X163.72Y-70.01
X178.62Y-127.585
X182.85Y-70.01
T4
G00X118.615Y-54.91
M15
G01X119.915Y-54.91
M16
G05
G00X118.615Y-66.11
M15
G01X119.915Y-66.11
M16
G05
M30
