%TF.GenerationSoftware,KiCad,Pcbnew,10.0.3*%
%TF.CreationDate,2026-07-23T13:12:38-04:00*%
%TF.ProjectId,Anypad,416e7970-6164-42e6-9b69-6361645f7063,1*%
%TF.SameCoordinates,Original*%
%TF.FileFunction,Profile,NP*%
%FSLAX46Y46*%
G04 Gerber Fmt 4.6, Leading zero omitted, Abs format (unit mm)*
G04 Created by KiCad (PCBNEW 10.0.3) date 2026-07-23 13:12:38*
%MOMM*%
%LPD*%
G01*
G04 APERTURE LIST*
%TA.AperFunction,Profile*%
%ADD10C,0.050000*%
%TD*%
%TA.AperFunction,Profile*%
%ADD11C,0.100000*%
%TD*%
G04 APERTURE END LIST*
D10*
X99949999Y-40000000D02*
X199539999Y-40000000D01*
X199539999Y-139590000D01*
X99949999Y-139590000D01*
X99949999Y-40000000D01*
%TO.C,D12*%
D11*
X123814573Y-94110000D02*
X123814573Y-92704316D01*
X124720120Y-91907159D02*
X126309025Y-91907159D01*
X126309024Y-94907158D02*
X124720120Y-94907158D01*
X127214571Y-92704316D02*
X127214571Y-94110000D01*
X123765088Y-92487438D02*
G75*
G02*
X123814573Y-92704316I-450505J-216876D01*
G01*
X123765088Y-92487438D02*
G75*
G02*
X124467861Y-91838859I450515J216878D01*
G01*
X123814573Y-94110001D02*
G75*
G02*
X123765088Y-94326878I-499990J-1D01*
G01*
X124467861Y-94975455D02*
G75*
G02*
X123765088Y-94326878I-252258J431700D01*
G01*
X124467862Y-94975457D02*
G75*
G02*
X124720120Y-94907158I252261J-431710D01*
G01*
X124720119Y-91907158D02*
G75*
G02*
X124467861Y-91838859I3J500009D01*
G01*
X126309024Y-94907158D02*
G75*
G02*
X126561283Y-94975457I-3J-500012D01*
G01*
X126561283Y-91838860D02*
G75*
G02*
X126309025Y-91907160I-252262J431710D01*
G01*
X126561283Y-91838860D02*
G75*
G02*
X127264055Y-92487438I252258J-431700D01*
G01*
X127214571Y-92704315D02*
G75*
G02*
X127264050Y-92487435I500000J15D01*
G01*
X127264056Y-94326877D02*
G75*
G02*
X126561283Y-94975457I-450514J-216880D01*
G01*
X127264056Y-94326878D02*
G75*
G02*
X127214571Y-94110000I450515J216878D01*
G01*
%TO.C,D14*%
X161814573Y-94110000D02*
X161814573Y-92704316D01*
X162720120Y-91907159D02*
X164309025Y-91907159D01*
X164309024Y-94907158D02*
X162720120Y-94907158D01*
X165214571Y-92704316D02*
X165214571Y-94110000D01*
X161765088Y-92487438D02*
G75*
G02*
X161814573Y-92704316I-450505J-216876D01*
G01*
X161765088Y-92487438D02*
G75*
G02*
X162467861Y-91838859I450515J216878D01*
G01*
X161814573Y-94110001D02*
G75*
G02*
X161765088Y-94326878I-499990J-1D01*
G01*
X162467861Y-94975455D02*
G75*
G02*
X161765088Y-94326878I-252258J431700D01*
G01*
X162467862Y-94975457D02*
G75*
G02*
X162720120Y-94907158I252261J-431710D01*
G01*
X162720119Y-91907158D02*
G75*
G02*
X162467861Y-91838859I3J500009D01*
G01*
X164309024Y-94907158D02*
G75*
G02*
X164561283Y-94975457I-3J-500012D01*
G01*
X164561283Y-91838860D02*
G75*
G02*
X164309025Y-91907160I-252262J431710D01*
G01*
X164561283Y-91838860D02*
G75*
G02*
X165264055Y-92487438I252258J-431700D01*
G01*
X165214571Y-92704315D02*
G75*
G02*
X165264050Y-92487435I500000J15D01*
G01*
X165264056Y-94326877D02*
G75*
G02*
X164561283Y-94975457I-450514J-216880D01*
G01*
X165264056Y-94326878D02*
G75*
G02*
X165214571Y-94110000I450515J216878D01*
G01*
%TO.C,D17*%
X110814573Y-113610000D02*
X110814573Y-112204316D01*
X111720120Y-111407159D02*
X113309025Y-111407159D01*
X113309024Y-114407158D02*
X111720120Y-114407158D01*
X114214571Y-112204316D02*
X114214571Y-113610000D01*
X110765088Y-111987438D02*
G75*
G02*
X110814573Y-112204316I-450505J-216876D01*
G01*
X110765088Y-111987438D02*
G75*
G02*
X111467861Y-111338859I450515J216878D01*
G01*
X110814573Y-113610001D02*
G75*
G02*
X110765088Y-113826878I-499990J-1D01*
G01*
X111467861Y-114475455D02*
G75*
G02*
X110765088Y-113826878I-252258J431700D01*
G01*
X111467862Y-114475457D02*
G75*
G02*
X111720120Y-114407158I252261J-431710D01*
G01*
X111720119Y-111407158D02*
G75*
G02*
X111467861Y-111338859I3J500009D01*
G01*
X113309024Y-114407158D02*
G75*
G02*
X113561283Y-114475457I-3J-500012D01*
G01*
X113561283Y-111338860D02*
G75*
G02*
X113309025Y-111407160I-252262J431710D01*
G01*
X113561283Y-111338860D02*
G75*
G02*
X114264055Y-111987438I252258J-431700D01*
G01*
X114214571Y-112204315D02*
G75*
G02*
X114264050Y-111987435I500000J15D01*
G01*
X114264056Y-113826877D02*
G75*
G02*
X113561283Y-114475457I-450514J-216880D01*
G01*
X114264056Y-113826878D02*
G75*
G02*
X114214571Y-113610000I450515J216878D01*
G01*
%TO.C,D11*%
X142939573Y-75110000D02*
X142939573Y-73704316D01*
X143845120Y-72907159D02*
X145434025Y-72907159D01*
X145434024Y-75907158D02*
X143845120Y-75907158D01*
X146339571Y-73704316D02*
X146339571Y-75110000D01*
X142890088Y-73487438D02*
G75*
G02*
X142939573Y-73704316I-450505J-216876D01*
G01*
X142890088Y-73487438D02*
G75*
G02*
X143592861Y-72838859I450515J216878D01*
G01*
X142939573Y-75110001D02*
G75*
G02*
X142890088Y-75326878I-499990J-1D01*
G01*
X143592861Y-75975455D02*
G75*
G02*
X142890088Y-75326878I-252258J431700D01*
G01*
X143592862Y-75975457D02*
G75*
G02*
X143845120Y-75907158I252261J-431710D01*
G01*
X143845119Y-72907158D02*
G75*
G02*
X143592861Y-72838859I3J500009D01*
G01*
X145434024Y-75907158D02*
G75*
G02*
X145686283Y-75975457I-3J-500012D01*
G01*
X145686283Y-72838860D02*
G75*
G02*
X145434025Y-72907160I-252262J431710D01*
G01*
X145686283Y-72838860D02*
G75*
G02*
X146389055Y-73487438I252258J-431700D01*
G01*
X146339571Y-73704315D02*
G75*
G02*
X146389050Y-73487435I500000J15D01*
G01*
X146389056Y-75326877D02*
G75*
G02*
X145686283Y-75975457I-450514J-216880D01*
G01*
X146389056Y-75326878D02*
G75*
G02*
X146339571Y-75110000I450515J216878D01*
G01*
%TO.C,D19*%
X176814573Y-133110000D02*
X176814573Y-131704316D01*
X177720120Y-130907159D02*
X179309025Y-130907159D01*
X179309024Y-133907158D02*
X177720120Y-133907158D01*
X180214571Y-131704316D02*
X180214571Y-133110000D01*
X176765088Y-131487438D02*
G75*
G02*
X176814573Y-131704316I-450505J-216876D01*
G01*
X176765088Y-131487438D02*
G75*
G02*
X177467861Y-130838859I450515J216878D01*
G01*
X176814573Y-133110001D02*
G75*
G02*
X176765088Y-133326878I-499990J-1D01*
G01*
X177467861Y-133975455D02*
G75*
G02*
X176765088Y-133326878I-252258J431700D01*
G01*
X177467862Y-133975457D02*
G75*
G02*
X177720120Y-133907158I252261J-431710D01*
G01*
X177720119Y-130907158D02*
G75*
G02*
X177467861Y-130838859I3J500009D01*
G01*
X179309024Y-133907158D02*
G75*
G02*
X179561283Y-133975457I-3J-500012D01*
G01*
X179561283Y-130838860D02*
G75*
G02*
X179309025Y-130907160I-252262J431710D01*
G01*
X179561283Y-130838860D02*
G75*
G02*
X180264055Y-131487438I252258J-431700D01*
G01*
X180214571Y-131704315D02*
G75*
G02*
X180264050Y-131487435I500000J15D01*
G01*
X180264056Y-133326877D02*
G75*
G02*
X179561283Y-133975457I-450514J-216880D01*
G01*
X180264056Y-133326878D02*
G75*
G02*
X180214571Y-133110000I450515J216878D01*
G01*
%TO.C,D18*%
X120914572Y-132962842D02*
X120914572Y-131557158D01*
X121820119Y-130760001D02*
X123409024Y-130760001D01*
X123409023Y-133760000D02*
X121820119Y-133760000D01*
X124314570Y-131557158D02*
X124314570Y-132962842D01*
X120865087Y-131340280D02*
G75*
G02*
X120914572Y-131557158I-450505J-216876D01*
G01*
X120865087Y-131340280D02*
G75*
G02*
X121567860Y-130691701I450515J216878D01*
G01*
X120914572Y-132962843D02*
G75*
G02*
X120865087Y-133179720I-499990J-1D01*
G01*
X121567860Y-133828297D02*
G75*
G02*
X120865087Y-133179720I-252258J431700D01*
G01*
X121567861Y-133828299D02*
G75*
G02*
X121820119Y-133760000I252261J-431710D01*
G01*
X121820118Y-130760000D02*
G75*
G02*
X121567860Y-130691701I3J500009D01*
G01*
X123409023Y-133760000D02*
G75*
G02*
X123661282Y-133828299I-3J-500012D01*
G01*
X123661282Y-130691702D02*
G75*
G02*
X123409024Y-130760002I-252262J431710D01*
G01*
X123661282Y-130691702D02*
G75*
G02*
X124364054Y-131340280I252258J-431700D01*
G01*
X124314570Y-131557157D02*
G75*
G02*
X124364049Y-131340277I500000J15D01*
G01*
X124364055Y-133179719D02*
G75*
G02*
X123661282Y-133828299I-450514J-216880D01*
G01*
X124364055Y-133179720D02*
G75*
G02*
X124314570Y-132962842I450515J216878D01*
G01*
%TO.C,D13*%
X142814573Y-94110000D02*
X142814573Y-92704316D01*
X143720120Y-91907159D02*
X145309025Y-91907159D01*
X145309024Y-94907158D02*
X143720120Y-94907158D01*
X146214571Y-92704316D02*
X146214571Y-94110000D01*
X142765088Y-92487438D02*
G75*
G02*
X142814573Y-92704316I-450505J-216876D01*
G01*
X142765088Y-92487438D02*
G75*
G02*
X143467861Y-91838859I450515J216878D01*
G01*
X142814573Y-94110001D02*
G75*
G02*
X142765088Y-94326878I-499990J-1D01*
G01*
X143467861Y-94975455D02*
G75*
G02*
X142765088Y-94326878I-252258J431700D01*
G01*
X143467862Y-94975457D02*
G75*
G02*
X143720120Y-94907158I252261J-431710D01*
G01*
X143720119Y-91907158D02*
G75*
G02*
X143467861Y-91838859I3J500009D01*
G01*
X145309024Y-94907158D02*
G75*
G02*
X145561283Y-94975457I-3J-500012D01*
G01*
X145561283Y-91838860D02*
G75*
G02*
X145309025Y-91907160I-252262J431710D01*
G01*
X145561283Y-91838860D02*
G75*
G02*
X146264055Y-92487438I252258J-431700D01*
G01*
X146214571Y-92704315D02*
G75*
G02*
X146264050Y-92487435I500000J15D01*
G01*
X146264056Y-94326877D02*
G75*
G02*
X145561283Y-94975457I-450514J-216880D01*
G01*
X146264056Y-94326878D02*
G75*
G02*
X146214571Y-94110000I450515J216878D01*
G01*
%TO.C,D15*%
X161814573Y-75110000D02*
X161814573Y-73704316D01*
X162720120Y-72907159D02*
X164309025Y-72907159D01*
X164309024Y-75907158D02*
X162720120Y-75907158D01*
X165214571Y-73704316D02*
X165214571Y-75110000D01*
X161765088Y-73487438D02*
G75*
G02*
X161814573Y-73704316I-450505J-216876D01*
G01*
X161765088Y-73487438D02*
G75*
G02*
X162467861Y-72838859I450515J216878D01*
G01*
X161814573Y-75110001D02*
G75*
G02*
X161765088Y-75326878I-499990J-1D01*
G01*
X162467861Y-75975455D02*
G75*
G02*
X161765088Y-75326878I-252258J431700D01*
G01*
X162467862Y-75975457D02*
G75*
G02*
X162720120Y-75907158I252261J-431710D01*
G01*
X162720119Y-72907158D02*
G75*
G02*
X162467861Y-72838859I3J500009D01*
G01*
X164309024Y-75907158D02*
G75*
G02*
X164561283Y-75975457I-3J-500012D01*
G01*
X164561283Y-72838860D02*
G75*
G02*
X164309025Y-72907160I-252262J431710D01*
G01*
X164561283Y-72838860D02*
G75*
G02*
X165264055Y-73487438I252258J-431700D01*
G01*
X165214571Y-73704315D02*
G75*
G02*
X165264050Y-73487435I500000J15D01*
G01*
X165264056Y-75326877D02*
G75*
G02*
X164561283Y-75975457I-450514J-216880D01*
G01*
X165264056Y-75326878D02*
G75*
G02*
X165214571Y-75110000I450515J216878D01*
G01*
%TO.C,D16*%
X181314573Y-75110000D02*
X181314573Y-73704316D01*
X182220120Y-72907159D02*
X183809025Y-72907159D01*
X183809024Y-75907158D02*
X182220120Y-75907158D01*
X184714571Y-73704316D02*
X184714571Y-75110000D01*
X181265088Y-73487438D02*
G75*
G02*
X181314573Y-73704316I-450505J-216876D01*
G01*
X181265088Y-73487438D02*
G75*
G02*
X181967861Y-72838859I450515J216878D01*
G01*
X181314573Y-75110001D02*
G75*
G02*
X181265088Y-75326878I-499990J-1D01*
G01*
X181967861Y-75975455D02*
G75*
G02*
X181265088Y-75326878I-252258J431700D01*
G01*
X181967862Y-75975457D02*
G75*
G02*
X182220120Y-75907158I252261J-431710D01*
G01*
X182220119Y-72907158D02*
G75*
G02*
X181967861Y-72838859I3J500009D01*
G01*
X183809024Y-75907158D02*
G75*
G02*
X184061283Y-75975457I-3J-500012D01*
G01*
X184061283Y-72838860D02*
G75*
G02*
X183809025Y-72907160I-252262J431710D01*
G01*
X184061283Y-72838860D02*
G75*
G02*
X184764055Y-73487438I252258J-431700D01*
G01*
X184714571Y-73704315D02*
G75*
G02*
X184764050Y-73487435I500000J15D01*
G01*
X184764056Y-75326877D02*
G75*
G02*
X184061283Y-75975457I-450514J-216880D01*
G01*
X184764056Y-75326878D02*
G75*
G02*
X184714571Y-75110000I450515J216878D01*
G01*
%TO.C,D23*%
X188814571Y-132704316D02*
X188814571Y-134110000D01*
X189720118Y-134907158D02*
X191309022Y-134907158D01*
X191309022Y-131907159D02*
X189720117Y-131907159D01*
X192214569Y-134110000D02*
X192214569Y-132704316D01*
X188765086Y-132487438D02*
G75*
G02*
X188814554Y-132704315I-450615J-216862D01*
G01*
X188765086Y-132487438D02*
G75*
G02*
X189467859Y-131838859I450515J216878D01*
G01*
X188814571Y-134110000D02*
G75*
G02*
X188765086Y-134326878I-500000J0D01*
G01*
X189467859Y-134975457D02*
G75*
G02*
X188765091Y-134326879I-252258J431697D01*
G01*
X189467859Y-134975457D02*
G75*
G02*
X189720118Y-134907158I252262J-431713D01*
G01*
X189720117Y-131907159D02*
G75*
G02*
X189467859Y-131838859I4J500009D01*
G01*
X191309022Y-134907158D02*
G75*
G02*
X191561280Y-134975457I-3J-500009D01*
G01*
X191561281Y-131838859D02*
G75*
G02*
X191309023Y-131907158I-252261J431710D01*
G01*
X191561281Y-131838859D02*
G75*
G02*
X192264054Y-132487438I252258J-431701D01*
G01*
X192214569Y-132704316D02*
G75*
G02*
X192264054Y-132487438I499990J2D01*
G01*
X192264054Y-134326878D02*
G75*
G02*
X191561281Y-134975455I-450515J-216877D01*
G01*
X192264054Y-134326878D02*
G75*
G02*
X192214569Y-134110001I450505J216876D01*
G01*
%TO.C,D22*%
X106414572Y-132204316D02*
X106414572Y-133610000D01*
X107320119Y-134407158D02*
X108909023Y-134407158D01*
X108909023Y-131407159D02*
X107320118Y-131407159D01*
X109814570Y-133610000D02*
X109814570Y-132204316D01*
X106365087Y-131987438D02*
G75*
G02*
X106414555Y-132204315I-450615J-216862D01*
G01*
X106365087Y-131987438D02*
G75*
G02*
X107067860Y-131338859I450515J216878D01*
G01*
X106414572Y-133610000D02*
G75*
G02*
X106365087Y-133826878I-500000J0D01*
G01*
X107067860Y-134475457D02*
G75*
G02*
X106365092Y-133826879I-252258J431697D01*
G01*
X107067860Y-134475457D02*
G75*
G02*
X107320119Y-134407158I252262J-431713D01*
G01*
X107320118Y-131407159D02*
G75*
G02*
X107067860Y-131338859I4J500009D01*
G01*
X108909023Y-134407158D02*
G75*
G02*
X109161281Y-134475457I-3J-500009D01*
G01*
X109161282Y-131338859D02*
G75*
G02*
X108909024Y-131407158I-252261J431710D01*
G01*
X109161282Y-131338859D02*
G75*
G02*
X109864055Y-131987438I252258J-431701D01*
G01*
X109814570Y-132204316D02*
G75*
G02*
X109864055Y-131987438I499990J2D01*
G01*
X109864055Y-133826878D02*
G75*
G02*
X109161282Y-134475455I-450515J-216877D01*
G01*
X109864055Y-133826878D02*
G75*
G02*
X109814570Y-133610001I450505J216876D01*
G01*
%TO.C,D20*%
X108120001Y-47547158D02*
X108120001Y-48952842D01*
X109025548Y-49750000D02*
X110614452Y-49750000D01*
X110614452Y-46750001D02*
X109025547Y-46750001D01*
X111519999Y-48952842D02*
X111519999Y-47547158D01*
X108070516Y-47330280D02*
G75*
G02*
X108119984Y-47547157I-450615J-216862D01*
G01*
X108070516Y-47330280D02*
G75*
G02*
X108773289Y-46681701I450515J216878D01*
G01*
X108120001Y-48952842D02*
G75*
G02*
X108070516Y-49169720I-500000J0D01*
G01*
X108773289Y-49818299D02*
G75*
G02*
X108070521Y-49169721I-252258J431697D01*
G01*
X108773289Y-49818299D02*
G75*
G02*
X109025548Y-49750000I252262J-431713D01*
G01*
X109025547Y-46750001D02*
G75*
G02*
X108773289Y-46681701I4J500009D01*
G01*
X110614452Y-49750000D02*
G75*
G02*
X110866710Y-49818299I-3J-500009D01*
G01*
X110866711Y-46681701D02*
G75*
G02*
X110614453Y-46750000I-252261J431710D01*
G01*
X110866711Y-46681701D02*
G75*
G02*
X111569484Y-47330280I252258J-431701D01*
G01*
X111519999Y-47547158D02*
G75*
G02*
X111569484Y-47330280I499990J2D01*
G01*
X111569484Y-49169720D02*
G75*
G02*
X110866711Y-49818297I-450515J-216877D01*
G01*
X111569484Y-49169720D02*
G75*
G02*
X111519999Y-48952843I450505J216876D01*
G01*
%TO.C,D24*%
X106314571Y-88704316D02*
X106314571Y-90110000D01*
X107220118Y-90907158D02*
X108809022Y-90907158D01*
X108809022Y-87907159D02*
X107220117Y-87907159D01*
X109714569Y-90110000D02*
X109714569Y-88704316D01*
X106265086Y-88487438D02*
G75*
G02*
X106314554Y-88704315I-450615J-216862D01*
G01*
X106265086Y-88487438D02*
G75*
G02*
X106967859Y-87838859I450515J216878D01*
G01*
X106314571Y-90110000D02*
G75*
G02*
X106265086Y-90326878I-500000J0D01*
G01*
X106967859Y-90975457D02*
G75*
G02*
X106265091Y-90326879I-252258J431697D01*
G01*
X106967859Y-90975457D02*
G75*
G02*
X107220118Y-90907158I252262J-431713D01*
G01*
X107220117Y-87907159D02*
G75*
G02*
X106967859Y-87838859I4J500009D01*
G01*
X108809022Y-90907158D02*
G75*
G02*
X109061280Y-90975457I-3J-500009D01*
G01*
X109061281Y-87838859D02*
G75*
G02*
X108809023Y-87907158I-252261J431710D01*
G01*
X109061281Y-87838859D02*
G75*
G02*
X109764054Y-88487438I252258J-431701D01*
G01*
X109714569Y-88704316D02*
G75*
G02*
X109764054Y-88487438I499990J2D01*
G01*
X109764054Y-90326878D02*
G75*
G02*
X109061281Y-90975455I-450515J-216877D01*
G01*
X109764054Y-90326878D02*
G75*
G02*
X109714569Y-90110001I450505J216876D01*
G01*
%TO.C,D25*%
X149814571Y-46204316D02*
X149814571Y-47610000D01*
X150720118Y-48407158D02*
X152309022Y-48407158D01*
X152309022Y-45407159D02*
X150720117Y-45407159D01*
X153214569Y-47610000D02*
X153214569Y-46204316D01*
X149765086Y-45987438D02*
G75*
G02*
X149814554Y-46204315I-450615J-216862D01*
G01*
X149765086Y-45987438D02*
G75*
G02*
X150467859Y-45338859I450515J216878D01*
G01*
X149814571Y-47610000D02*
G75*
G02*
X149765086Y-47826878I-500000J0D01*
G01*
X150467859Y-48475457D02*
G75*
G02*
X149765091Y-47826879I-252258J431697D01*
G01*
X150467859Y-48475457D02*
G75*
G02*
X150720118Y-48407158I252262J-431713D01*
G01*
X150720117Y-45407159D02*
G75*
G02*
X150467859Y-45338859I4J500009D01*
G01*
X152309022Y-48407158D02*
G75*
G02*
X152561280Y-48475457I-3J-500009D01*
G01*
X152561281Y-45338859D02*
G75*
G02*
X152309023Y-45407158I-252261J431710D01*
G01*
X152561281Y-45338859D02*
G75*
G02*
X153264054Y-45987438I252258J-431701D01*
G01*
X153214569Y-46204316D02*
G75*
G02*
X153264054Y-45987438I499990J2D01*
G01*
X153264054Y-47826878D02*
G75*
G02*
X152561281Y-48475455I-450515J-216877D01*
G01*
X153264054Y-47826878D02*
G75*
G02*
X153214569Y-47610001I450505J216876D01*
G01*
%TO.C,D21*%
X188814571Y-46704316D02*
X188814571Y-48110000D01*
X189720118Y-48907158D02*
X191309022Y-48907158D01*
X191309022Y-45907159D02*
X189720117Y-45907159D01*
X192214569Y-48110000D02*
X192214569Y-46704316D01*
X188765086Y-46487438D02*
G75*
G02*
X188814554Y-46704315I-450615J-216862D01*
G01*
X188765086Y-46487438D02*
G75*
G02*
X189467859Y-45838859I450515J216878D01*
G01*
X188814571Y-48110000D02*
G75*
G02*
X188765086Y-48326878I-500000J0D01*
G01*
X189467859Y-48975457D02*
G75*
G02*
X188765091Y-48326879I-252258J431697D01*
G01*
X189467859Y-48975457D02*
G75*
G02*
X189720118Y-48907158I252262J-431713D01*
G01*
X189720117Y-45907159D02*
G75*
G02*
X189467859Y-45838859I4J500009D01*
G01*
X191309022Y-48907158D02*
G75*
G02*
X191561280Y-48975457I-3J-500009D01*
G01*
X191561281Y-45838859D02*
G75*
G02*
X191309023Y-45907158I-252261J431710D01*
G01*
X191561281Y-45838859D02*
G75*
G02*
X192264054Y-46487438I252258J-431701D01*
G01*
X192214569Y-46704316D02*
G75*
G02*
X192264054Y-46487438I499990J2D01*
G01*
X192264054Y-48326878D02*
G75*
G02*
X191561281Y-48975455I-450515J-216877D01*
G01*
X192264054Y-48326878D02*
G75*
G02*
X192214569Y-48110001I450505J216876D01*
G01*
%TO.C,D26*%
X188814571Y-89704316D02*
X188814571Y-91110000D01*
X189720118Y-91907158D02*
X191309022Y-91907158D01*
X191309022Y-88907159D02*
X189720117Y-88907159D01*
X192214569Y-91110000D02*
X192214569Y-89704316D01*
X188765086Y-89487438D02*
G75*
G02*
X188814554Y-89704315I-450615J-216862D01*
G01*
X188765086Y-89487438D02*
G75*
G02*
X189467859Y-88838859I450515J216878D01*
G01*
X188814571Y-91110000D02*
G75*
G02*
X188765086Y-91326878I-500000J0D01*
G01*
X189467859Y-91975457D02*
G75*
G02*
X188765091Y-91326879I-252258J431697D01*
G01*
X189467859Y-91975457D02*
G75*
G02*
X189720118Y-91907158I252262J-431713D01*
G01*
X189720117Y-88907159D02*
G75*
G02*
X189467859Y-88838859I4J500009D01*
G01*
X191309022Y-91907158D02*
G75*
G02*
X191561280Y-91975457I-3J-500009D01*
G01*
X191561281Y-88838859D02*
G75*
G02*
X191309023Y-88907158I-252261J431710D01*
G01*
X191561281Y-88838859D02*
G75*
G02*
X192264054Y-89487438I252258J-431701D01*
G01*
X192214569Y-89704316D02*
G75*
G02*
X192264054Y-89487438I499990J2D01*
G01*
X192264054Y-91326878D02*
G75*
G02*
X191561281Y-91975455I-450515J-216877D01*
G01*
X192264054Y-91326878D02*
G75*
G02*
X192214569Y-91110001I450505J216876D01*
G01*
%TO.C,D27*%
X149414572Y-132057158D02*
X149414572Y-133462842D01*
X150320119Y-134260000D02*
X151909023Y-134260000D01*
X151909023Y-131260001D02*
X150320118Y-131260001D01*
X152814570Y-133462842D02*
X152814570Y-132057158D01*
X149365087Y-131840280D02*
G75*
G02*
X149414555Y-132057157I-450615J-216862D01*
G01*
X149365087Y-131840280D02*
G75*
G02*
X150067860Y-131191701I450515J216878D01*
G01*
X149414572Y-133462842D02*
G75*
G02*
X149365087Y-133679720I-500000J0D01*
G01*
X150067860Y-134328299D02*
G75*
G02*
X149365092Y-133679721I-252258J431697D01*
G01*
X150067860Y-134328299D02*
G75*
G02*
X150320119Y-134260000I252262J-431713D01*
G01*
X150320118Y-131260001D02*
G75*
G02*
X150067860Y-131191701I4J500009D01*
G01*
X151909023Y-134260000D02*
G75*
G02*
X152161281Y-134328299I-3J-500009D01*
G01*
X152161282Y-131191701D02*
G75*
G02*
X151909024Y-131260000I-252261J431710D01*
G01*
X152161282Y-131191701D02*
G75*
G02*
X152864055Y-131840280I252258J-431701D01*
G01*
X152814570Y-132057158D02*
G75*
G02*
X152864055Y-131840280I499990J2D01*
G01*
X152864055Y-133679720D02*
G75*
G02*
X152161282Y-134328297I-450515J-216877D01*
G01*
X152864055Y-133679720D02*
G75*
G02*
X152814570Y-133462843I450505J216876D01*
G01*
%TD*%
M02*
