0
SECTION
2
HEADER
9
$INSUNITS
70
4
9
$ACADVER
1
AC1014
9
$HANDSEED
5
FFFF
0
ENDSEC
0
SECTION
2
TABLES
0
TABLE
2
VPORT
5
8
100
AcDbSymbolTable
0
ENDTAB
0
TABLE
2
LTYPE
5
5
100
AcDbSymbolTable
0
LTYPE
5
14
100
AcDbSymbolTableRecord
100
AcDbLinetypeTableRecord
2
BYBLOCK
70
0
0
LTYPE
5
15
100
AcDbSymbolTableRecord
100
AcDbLinetypeTableRecord
2
BYLAYER
70
0
0
LTYPE
5
16
100
AcDbSymbolTableRecord
100
AcDbLinetypeTableRecord
2
DASHED
70
0
3
Dashed __ __ __ __ __ __ __ __ __ __ __ __ __ _
72
65
73
2
40
0.75
49
0.5
74
0
49
-0.25
74
0
0
ENDTAB
0
TABLE
2
LAYER
5
2
100
AcDbSymbolTable
70
2
0
LAYER
5
50
100
AcDbSymbolTableRecord
100
AcDbLayerTableRecord
2
0
70
0
62
7
6
CONTINUOUS
0
ENDTAB
0
TABLE
2
STYLE
5
3
100
AcDbSymbolTable
70
1
0
STYLE
5
11
100
AcDbSymbolTableRecord
100
AcDbTextStyleTableRecord
2
STANDARD
70
0
0
ENDTAB
0
TABLE
2
VIEW
5
6
100
AcDbSymbolTable
70
0
0
ENDTAB
0
TABLE
2
UCS
5
7
100
AcDbSymbolTable
70
0
0
ENDTAB
0
TABLE
2
APPID
5
9
100
AcDbSymbolTable
70
2
0
APPID
5
12
100
AcDbSymbolTableRecord
100
AcDbRegAppTableRecord
2
ACAD
70
0
0
ENDTAB
0
TABLE
2
DIMSTYLE
5
A
100
AcDbSymbolTable
70
1
0
ENDTAB
0
TABLE
2
BLOCK_RECORD
5
1
100
AcDbSymbolTable
70
1
0
BLOCK_RECORD
5
1F
100
AcDbSymbolTableRecord
100
AcDbBlockTableRecord
2
*MODEL_SPACE
0
BLOCK_RECORD
5
1B
100
AcDbSymbolTableRecord
100
AcDbBlockTableRecord
2
*PAPER_SPACE
0
ENDTAB
0
ENDSEC
0
SECTION
2
BLOCKS
0
BLOCK
5
20
100
AcDbEntity
100
AcDbBlockBegin
2
*MODEL_SPACE
0
ENDBLK
5
21
100
AcDbEntity
100
AcDbBlockEnd
0
BLOCK
5
1C
100
AcDbEntity
100
AcDbBlockBegin
2
*PAPER_SPACE
0
ENDBLK
5
1D
100
AcDbEntity
100
AcDbBlockEnd
0
ENDSEC
0
SECTION
2
ENTITIES
0
LWPOLYLINE
5
100
100
AcDbEntity
8
0
100
AcDbPolyline
90
6
70
1
43
0.0
10
0
20
99.589445159859039
10
99.589445159859039
20
99.589445159859039
10
99.589445159859039
20
0
10
88.269135621702446
20
0
10
69.069211728471828
20
0
10
0
20
0
0
LWPOLYLINE
5
101
100
AcDbEntity
8
0
100
AcDbPolyline
90
16
70
1
43
0.0
10
52.913815424724291
20
5.9102608687481126
42
-0.11265175081536333
10
52.864316186959208
20
6.1271633548242113
10
52.864316186959208
20
7.5327494476747887
42
-0.11265175081537065
10
52.913815424724305
20
7.7496519337508953
42
0.74010554011191299
10
52.211014748946702
20
8.3982536907425356
42
-0.13300436665181706
10
51.958712068168083
20
8.3299557288940136
10
50.369823156799583
20
8.3299557288940136
42
-0.13295001671067
10
50.117627286953237
20
8.3982536907425356
42
0.74010554011191865
10
49.414826611175641
20
7.7496519337508873
42
-0.112628642243429
10
49.464325848940746
20
7.5327494476748047
10
49.464325848940746
20
6.1271633548242113
42
-0.11265175081536714
10
49.414826611175641
20
5.9102608687481171
42
0.74007813393972144
10
50.117627286953244
20
5.2616743704610602
42
-0.13295001671067
10
50.369823156799583
20
5.3299723323095662
10
51.958712068168083
20
5.3299723323095822
42
-0.13300436665181706
10
52.211014748946695
20
5.2616743704610656
42
0.74007813393971655
0
LWPOLYLINE
5
102
100
AcDbEntity
8
0
100
AcDbPolyline
90
16
70
1
43
0.0
10
92.313591263051478
20
48.262832559643499
42
-0.11264788772491485
10
92.264092025286374
20
48.479727416367268
10
92.264092025286345
20
49.88542032015016
42
-0.11265175081536986
10
92.31359126305145
20
50.102322806226255
42
0.73991378593914925
10
91.61079058727384
20
50.750817752285599
42
-0.13299765316971821
10
91.358503165199792
20
50.682512161084787
10
89.769598995126714
20
50.682512161084794
42
-0.13295106806220575
10
89.517403125280339
20
50.750817752285577
42
0.73988411702456802
10
88.814617708207379
20
50.10232280622624
42
-0.11262864224343348
10
88.864116945972484
20
49.885420320150153
10
88.864116945972512
20
48.479727416367282
42
-0.11264788772492358
10
88.814617708207422
20
48.262832559643485
42
0.74007584394174497
10
89.517403125280396
20
47.614230802651832
42
-0.13295001671065737
10
89.769598995126699
20
47.68252876450034
10
91.358503165199807
20
47.682528764500361
42
-0.13299660213479619
10
91.610790587273826
20
47.614230802651818
42
0.74010554011192475
0
LWPOLYLINE
5
103
100
AcDbEntity
8
0
100
AcDbPolyline
90
16
70
1
43
0.0
10
92.313591263051421
20
91.262590762677647
42
-0.11264981926804306
10
92.264092025286345
20
91.479489434077578
10
92.264092025286345
20
92.885182337860485
42
-0.11264981926804209
10
92.313591263051478
20
93.102081009260402
42
0.73991378593915424
10
91.610790587273826
20
93.750575955319775
42
-0.13299660213477907
10
91.358503165199849
20
93.682277993471246
10
89.769598995126728
20
93.682277993471274
42
-0.13295001671067441
10
89.517403125280381
20
93.750575955319732
42
0.73988411702457424
10
88.814617708207379
20
93.102081009260402
42
-0.11262671111243867
10
88.864116945972512
20
92.885182337860485
10
88.864116945972512
20
91.479489434077578
42
-0.11264981926805057
10
88.814617708207408
20
91.262590762677632
42
0.74006214227456169
10
89.517403125280396
20
90.613996635038319
42
-0.13295001671065743
10
89.769598995126699
20
90.68229459688682
10
91.358503165199807
20
90.682294596886805
42
-0.13299660213479181
10
91.61079058727384
20
90.613996635038333
42
0.74009183649546295
0
LWPOLYLINE
5
104
100
AcDbEntity
8
0
100
AcDbPolyline
90
16
70
1
43
0.0
10
53.313807107453698
20
91.76258799544172
42
-0.11264981926803457
10
53.264307869688608
20
91.979486666841638
10
53.264307869688608
20
93.38517957062453
42
-0.11264981926805057
10
53.313807107453748
20
93.602078242024476
42
0.7399137859391427
10
52.611006431676103
20
94.250573188083834
42
-0.13299660213477468
10
52.358719009602126
20
94.182275226235319
10
50.769814839528991
20
94.182275226235333
42
-0.13295001671067447
10
50.517618969682644
20
94.250573188083834
42
0.73988411702455747
10
49.814833552609663
20
93.602078242024476
42
-0.11262671111244314
10
49.86433279037476
20
93.385179570624558
10
49.864332790374775
20
91.979486666841638
42
-0.11264981926804209
10
49.814833552609663
20
91.76258799544172
42
0.74006214227455014
10
50.517618969682651
20
91.113993867802407
42
-0.13295001671067
10
50.769814839528991
20
91.182291829650893
10
52.35871900960209
20
91.182291829650893
42
-0.13299660213479175
10
52.611006431676124
20
91.113993867802421
42
0.74009183649544463
0
LWPOLYLINE
5
105
100
AcDbEntity
8
0
100
AcDbPolyline
90
16
70
1
43
0.0
10
9.8140478569793324
20
49.262827025171639
42
-0.11264788772491492
10
9.7645486192142332
20
49.479721881895415
10
9.7645486192142315
20
50.8854147856783
42
-0.11265175081536631
10
9.8140478569793377
20
51.102317271754394
42
0.73989895087458957
10
9.1112548105540263
20
51.750812217813753
42
-0.13300541763398768
10
8.8589521297753961
20
51.682506626612948
10
7.2700632184069081
20
51.682506626612934
42
-0.13295106806219842
10
7.0178673485605847
20
51.750812217813767
42
0.73991378593915424
10
6.3150666727829652
20
51.102317271754401
42
-0.11262864224343749
10
6.3645659105480821
20
50.8854147856783
10
6.3645659105480821
20
49.479721881895422
42
-0.11264788772492729
10
6.3150666727829954
20
49.262827025171632
42
0.74010554011191299
10
7.0178673485605696
20
48.614225268179972
42
-0.13295001671067441
10
7.2700632184069072
20
48.682523230028487
10
8.8589521297754121
20
48.682523230028487
42
-0.1330043666518109
10
9.1112548105540121
20
48.614225268179979
42
0.74009069141814898
0
LWPOLYLINE
5
106
100
AcDbEntity
8
0
100
AcDbPolyline
90
16
70
1
43
0.0
10
9.9140457776616859
20
5.7630601453449337
42
-0.11265175081536714
10
9.864546539896585
20
5.9799626314210315
10
9.864546539896585
20
7.3856555352039033
42
-0.11265175081536333
10
9.9140457776616664
20
7.6025580212800028
42
0.73989895087461344
10
9.2112527312363781
20
8.2510529673393567
42
-0.1330043666518054
10
8.9589500504577799
20
8.1827550054908507
10
7.3700611390892758
20
8.1827550054908507
42
-0.13295001671067
10
7.1178652692429285
20
8.2510529673393602
42
0.73991378593912471
10
6.4150645934653339
20
7.6025580212800019
42
-0.11262864224342531
10
6.464563831230433
20
7.3856555352039202
10
6.4645638312304161
20
5.9799626314210315
42
-0.11265175081535944
10
6.415064593465301
20
5.7630601453449595
42
0.74007813393973254
10
7.1178652692429374
20
5.1144736470578991
42
-0.13295001671067
10
7.3700611390892758
20
5.1827716089064033
10
8.9589500504577639
20
5.1827716089064033
42
-0.13300436665181828
10
9.2112527312363746
20
5.1144736470578938
42
0.7400632871952878
0
LWPOLYLINE
5
107
100
AcDbEntity
8
0
100
AcDbPolyline
90
16
70
1
43
0.0
10
92.313591263051421
20
5.2630629125808612
42
-0.11265175081536333
10
92.264092025286345
20
5.4799653986569608
10
92.264092025286345
20
6.8856583024398326
42
-0.11265175081537065
10
92.313591263051478
20
7.102560788515925
42
0.7399137859391427
10
91.610790587273826
20
7.7510557345752842
42
-0.1329966021347791
10
91.358503165199849
20
7.6827577727267959
10
89.769598995126728
20
7.6827577727267791
42
-0.13295001671067
10
89.517403125280381
20
7.7510557345752922
42
0.73988411702459256
10
88.814617708207379
20
7.1025607885159303
42
-0.11262864224343269
10
88.864116945972512
20
6.8856583024398486
10
88.864116945972484
20
5.4799653986569599
42
-0.11265175081536358
10
88.814617708207422
20
5.2630629125808461
42
0.7400484416677503
10
89.517403125280396
20
4.6144764142938266
42
-0.13295001671065301
10
89.769598995126699
20
4.6827743761423326
10
91.358503165199807
20
4.6827743761423486
42
-0.13299660213479614
10
91.610790587273826
20
4.6144764142938381
42
0.74007813393970501
0
LWPOLYLINE
5
108
100
AcDbEntity
8
0
100
AcDbPolyline
90
16
70
1
43
0.0
10
65.313740693791488
20
64.262744008093847
42
-0.11264788772492333
10
65.264241456026411
20
64.479638864817616
10
65.264241456026411
20
65.885331768600508
42
-0.10942069752277304
10
65.31092796005035
20
66.096483089102421
42
0.74487919123846391
10
64.610940018013864
20
66.750729200735961
42
-0.1329976531697078
10
64.358652595939844
20
66.682423609535135
10
62.769748425866744
20
66.682423609535149
42
-0.13295106806220144
10
62.517552556020405
20
66.750729200735947
42
0.73988411702455847
10
61.814767138947452
20
66.102234254676588
42
-0.11265175081535872
10
61.864266376712536
20
65.885331768600508
10
61.864266376712528
20
64.479638864817616
42
-0.11264788772491595
10
61.814767138947445
20
64.262744008093847
42
0.74007584394174175
10
62.517552556020405
20
63.61414225110218
42
-0.13295001671065737
10
62.769748425866709
20
63.682440212950688
10
64.358652595939844
20
63.682440212950702
42
-0.13299660213479619
10
64.610940018013849
20
63.614142251102166
42
0.74010554011191876
0
LWPOLYLINE
5
109
100
AcDbEntity
8
0
100
AcDbPolyline
90
16
70
1
43
0.0
10
84.813632771590363
20
64.262744008093847
42
-0.11264788772492333
10
84.764133533825273
20
64.479638864817616
10
84.764133533825245
20
65.885331768600508
42
-0.10942069752205119
10
84.810820037848615
20
66.096483089101127
42
0.74487919123958435
10
84.110832095812754
20
66.750729200735961
42
-0.13299765316972254
10
83.858544673738692
20
66.682423609535135
10
82.269640503665599
20
66.682423609535149
42
-0.13295106806220144
10
82.017444633819252
20
66.750729200735947
42
0.73988411702455847
10
81.314659216746307
20
66.102234254676588
42
-0.11265175081535872
10
81.364158454511383
20
65.885331768600508
10
81.364158454511383
20
64.479638864817616
42
-0.11264788772491595
10
81.314659216746293
20
64.262744008093847
42
0.74007584394176407
10
82.017444633819295
20
63.61414225110218
42
-0.13295001671065737
10
82.269640503665599
20
63.682440212950688
10
83.858544673738692
20
63.682440212950702
42
-0.13299660213481093
10
84.110832095812754
20
63.614142251102166
42
0.74010554011191876
0
ARC
5
110
100
AcDbEntity
8
0
100
AcDbCircle
10
-24.86446352279534
20
6.6271654303297245
30
0
40
0.49999723276407038
210
-0
220
0
230
-1
100
AcDbArc
50
334.28995465987367
51
359.99944505960832
0
ARC
5
111
100
AcDbEntity
8
0
100
AcDbCircle
10
-23.963469446360964
20
6.1933467985287987
30
0
40
0.49999723276407571
210
0
220
0
230
-1
100
AcDbArc
50
154.28944921164509
51
300.30458557130811
0
ARC
5
112
100
AcDbEntity
8
0
100
AcDbCircle
10
-24.864463482342984
20
8.0329478658558386
30
0
40
0.49999723276406571
210
-0
220
0
230
-1
100
AcDbArc
50
-0.023054278793646112
51
24.93485365825244
0
ARC
5
113
100
AcDbEntity
8
0
100
AcDbCircle
10
-23.963479671548946
20
8.4665817045807064
30
0
40
0.49999723276406571
210
0
220
0
230
-1
100
AcDbArc
50
59.694057241209109
51
206.46717172504026
0
ARC
5
114
100
AcDbEntity
8
0
100
AcDbCircle
10
-23.458916710077755
20
9.3299501922216574
30
0
40
0.49999723276406383
210
0
220
-0
230
-1
100
AcDbArc
50
239.7008818645881
51
270.00537545812392
0
ARC
5
115
100
AcDbEntity
8
0
100
AcDbCircle
10
-23.458916710077755
20
5.3299723345100993
30
0
40
0.49999723276406532
210
0
220
0
230
-1
100
AcDbArc
50
89.994624541873989
51
120.29911813541189
0
ARC
5
116
100
AcDbEntity
8
0
100
AcDbCircle
10
-21.87004079309315
20
9.3299501908336904
30
0
40
0.4999972327640953
210
-0
220
0
230
-1
100
AcDbArc
50
270.00686451308513
51
300.29911845066914
0
ARC
5
117
100
AcDbEntity
8
0
100
AcDbCircle
10
-21.87004079309315
20
5.3299723358980664
30
0
40
0.49999723276408226
210
0
220
0
230
-1
100
AcDbArc
50
59.700881549330859
51
89.993135486914895
0
ARC
5
118
100
AcDbEntity
8
0
100
AcDbCircle
10
-21.365477437066559
20
6.1933405929247254
30
0
40
0.49999723276407165
210
0
220
-0
230
-1
100
AcDbArc
50
-120.30599481315831
51
25.711340042948734
0
ARC
5
119
100
AcDbEntity
8
0
100
AcDbCircle
10
-20.464486348647924
20
6.6271654303297245
30
0
40
0.49999723276407626
210
0
220
-0
230
-1
100
AcDbArc
50
180.00055494039165
51
205.71004534012627
0
ARC
5
120
100
AcDbEntity
8
0
100
AcDbCircle
10
-21.365467211150904
20
8.4665879109475455
30
0
40
0.49999723276407493
210
-0
220
0
230
-1
100
AcDbArc
50
-25.714040945864721
51
120.30735211673871
0
ARC
5
121
100
AcDbEntity
8
0
100
AcDbCircle
10
-20.464486348647924
20
8.0327418376974187
30
0
40
0.49999723276408553
210
0
220
0
230
-1
100
AcDbArc
50
154.2899546598747
51
179.99944505960832
0
LINE
5
122
100
AcDbEntity
8
0
100
AcDbLine
10
24.364466290054718
20
8.0327466804388603
30
0
11
24.364466290054718
21
6.627160587588282
31
0
0
LINE
5
123
100
AcDbEntity
8
0
100
AcDbLine
10
21.86998088924739
20
8.8299529616580852
30
0
11
23.458869800615911
21
8.8299529616580852
31
0
0
LINE
5
124
100
AcDbEntity
8
0
100
AcDbLine
10
20.964483581388546
20
6.627160587588282
30
0
11
20.964483581388546
21
8.0327466804388603
31
0
0
LWPOLYLINE
5
125
100
AcDbEntity
8
0
100
AcDbPolyline
90
16
70
1
43
0.0
10
80.31365767671366
20
6.2630573781090062
42
-0.11265175081536333
10
80.264158438948584
20
6.4799598641851039
10
80.264158438948584
20
7.885652767967974
42
-0.10942069752210874
10
80.310844942972011
20
8.0968040884687014
42
0.74487919123948754
10
79.610857000936079
20
8.7510502001034283
42
-0.1329966021347791
10
79.358569578862102
20
8.68275223825494
10
77.769665408788967
20
8.6827522382549223
42
-0.13295001671067
10
77.51746953894262
20
8.7510502001034354
42
0.73988411702459256
10
76.814684121869632
20
8.1025552540440735
42
-0.1126517508153556
10
76.864183359634723
20
7.8856527679679917
10
76.864183359634723
20
6.4799598641851039
42
-0.11265175081536358
10
76.814684121869675
20
6.2630573781089902
42
0.7400484416677503
10
77.517469538942635
20
5.6144708798219698
42
-0.13295001671065301
10
77.769665408788939
20
5.6827688416704758
10
79.35856957886206
20
5.6827688416704927
42
-0.13299660213479614
10
79.610857000936079
20
5.6144708798219822
42
0.74007813393970501
0
LWPOLYLINE
5
126
100
AcDbEntity
8
0
100
AcDbPolyline
90
16
70
1
43
0.0
10
46.438845156947693
20
64.262744008093847
42
-0.11264788772491964
10
46.38934591918261
20
64.479638864817616
10
46.389345919182617
20
65.885331768600508
42
-0.10942069752299721
10
46.43603242320679
20
66.096483089102819
42
0.74487919123812529
10
45.73604448117009
20
66.750729200735961
42
-0.13299765316969928
10
45.483757059096092
20
66.682423609535135
10
43.894852889022971
20
66.682423609535149
42
-0.13295106806219409
10
43.642657019176653
20
66.750729200735947
42
0.73988411702456414
10
42.939871602103665
20
66.102234254676588
42
-0.11265175081536236
10
42.989370839868755
20
65.885331768600508
10
42.989370839868748
20
64.479638864817616
42
-0.11264788772491964
10
42.939871602103644
20
64.262744008093847
42
0.74007584394174708
10
43.642657019176653
20
63.61414225110218
42
-0.13295001671067441
10
43.894852889022992
20
63.682440212950688
10
45.483757059096092
20
63.682440212950702
42
-0.13299660213478759
10
45.73604448117009
20
63.614142251102173
42
0.74010554011192475
0
LWPOLYLINE
5
127
100
AcDbEntity
8
0
100
AcDbPolyline
90
16
70
1
43
0.0
10
14.314022951855979
20
25.762957085260187
42
-0.11264788772491492
10
14.264523714090879
20
25.979851941983956
10
14.264523714090895
20
27.385544845766844
42
-0.10929062997129921
10
14.311095129347569
20
27.596464557884751
42
0.74506536591743877
10
13.61122990543069
20
28.250942277902293
42
-0.13300541763398768
10
13.358927224652057
20
28.182636686701489
10
11.770038313283568
20
28.182636686701471
42
-0.13295106806219842
10
11.517842443437248
20
28.250942277902311
42
0.73991378593915424
10
10.815041767659629
20
27.602447331842939
42
-0.11265175081535858
10
10.864541005424728
20
27.385544845766859
10
10.864541005424744
20
25.979851941983974
42
-0.11264788772491964
10
10.815041767659643
20
25.762957085260197
42
0.74010554011190666
10
11.517842443437232
20
25.114355328268523
42
-0.13295001671067441
10
11.770038313283571
20
25.182653290117027
10
13.35892722465206
20
25.182653290117042
42
-0.13300436665182266
10
13.611229905430681
20
25.114355328268534
42
0.74009069141815453
0
LWPOLYLINE
5
128
100
AcDbEntity
8
0
100
AcDbPolyline
90
16
70
1
43
0.0
10
65.313740693791488
20
45.262849163059052
42
-0.11264788772491485
10
65.264241456026411
20
45.479744019782814
10
65.264241456026411
20
46.885436923565706
42
-0.10942069752210874
10
65.310927960049753
20
47.096588244066453
42
0.74487919123949431
10
64.610940018013864
20
47.750834355701166
42
-0.13299765316970338
10
64.358652595939844
20
47.682528764500354
10
62.769748425866744
20
47.682528764500347
42
-0.13295106806220575
10
62.517552556020405
20
47.750834355701166
42
0.73988411702455192
10
61.814767138947452
20
47.102339409641807
42
-0.11265175081536248
10
61.864266376712536
20
46.885436923565706
10
61.864266376712528
20
45.479744019782835
42
-0.11264788772491595
10
61.814767138947431
20
45.262849163059052
42
0.74007584394173853
10
62.517552556020405
20
44.614247406067385
42
-0.13295001671065737
10
62.769748425866709
20
44.6825453679159
10
64.358652595939844
20
44.682545367915914
42
-0.13299660213479175
10
64.610940018013864
20
44.614247406067385
42
0.74010554011191299
0
LWPOLYLINE
5
129
100
AcDbEntity
8
0
100
AcDbPolyline
90
16
70
1
43
0.0
10
46.313845848756671
20
45.262849163059052
42
-0.11264788772491115
10
46.264346610991595
20
45.479744019782814
10
46.264346610991595
20
46.885436923565706
42
-0.10942069752271251
10
46.311033115015512
20
47.096588244067512
42
0.74487919123857793
10
45.61104517297909
20
47.750834355701166
42
-0.13299765316970233
10
45.35875775090507
20
47.682528764500354
10
43.769853580831956
20
47.682528764500347
42
-0.13295106806219842
10
43.517657710985624
20
47.750834355701173
42
0.73988411702455747
10
42.814872293912636
20
47.102339409641807
42
-0.11265175081536631
10
42.86437153167774
20
46.885436923565706
10
42.864371531677719
20
45.479744019782835
42
-0.11264788772491964
10
42.814872293912629
20
45.262849163059052
42
0.74007584394174386
10
43.517657710985631
20
44.614247406067385
42
-0.13295001671067441
10
43.769853580831963
20
44.6825453679159
10
45.358757750905063
20
44.682545367915914
42
-0.13299660213479061
10
45.61104517297909
20
44.614247406067413
42
0.74010554011192453
0
LWPOLYLINE
5
130
100
AcDbEntity
8
0
100
AcDbPolyline
90
16
70
1
43
0.0
10
27.313951003721897
20
45.262849163059052
42
-0.11264788772491492
10
27.264451765956792
20
45.479744019782814
10
27.264451765956814
20
46.885436923565713
42
-0.10929062997067161
10
27.311023181212928
20
47.096356635682511
42
0.74506536591840189
10
26.611157957296605
20
47.750834355701166
42
-0.13300541763398768
10
26.358855276517975
20
47.682528764500354
10
24.769966365149472
20
47.682528764500347
42
-0.13295106806219842
10
24.517770495303154
20
47.75083435570118
42
0.73991378593914314
10
23.814969819525544
20
47.102339409641807
42
-0.11265175081536631
10
23.864469057290645
20
46.885436923565706
10
23.864469057290645
20
45.479744019782835
42
-0.11264788772491964
10
23.814969819525533
20
45.262849163059059
42
0.74010554011191776
10
24.517770495303147
20
44.614247406067385
42
-0.13295001671067441
10
24.769966365149486
20
44.6825453679159
10
26.358855276517975
20
44.6825453679159
42
-0.13300436665181828
10
26.611157957296598
20
44.614247406067406
42
0.74009069141815453
0
LWPOLYLINE
5
131
100
AcDbEntity
8
0
100
AcDbPolyline
90
16
70
1
43
0.0
10
11.619442528103971
20
90.419795286750443
42
-0.11265070094286186
10
11.569935660986557
20
90.636693958150389
10
11.569935660986557
20
92.042287680353297
42
-0.11265070094285422
10
11.619442528103974
20
92.2591863517532
42
0.74009183649543897
10
10.91664185232637
20
92.907780479392542
42
-0.13295001671067
10
10.66444598248003
20
92.839482517544042
10
9.0754502601792471
20
92.839482517544042
42
-0.13295001671067447
10
8.8232543903328988
20
92.907780479392542
42
0.74007698877640493
10
8.1204613439076194
20
92.259186351753215
42
-0.11262671111244231
10
8.1699605816727203
20
92.042287680353297
10
8.1699605816727221
20
90.636693958150374
42
-0.11264981926803833
10
8.1204613439076159
20
90.419795286750428
42
0.7400769887764117
10
8.8232543903329095
20
89.771201159111115
42
-0.13295001671067
10
9.0754502601792471
20
89.83949912095963
10
10.66444598248003
20
89.839499120959601
42
-0.13295001671067
10
10.916641852326368
20
89.771201159111115
42
0.74009183649543897
0
LWPOLYLINE
5
132
100
AcDbEntity
8
0
100
AcDbPolyline
90
4
70
1
43
0.0
10
54.964295409345553
20
4.8299750995455106
10
47.364346626554401
20
4.8299750995455106
10
47.364346626554401
20
8.8299529616581012
10
54.964295409345553
20
8.8299529616581012
0
LWPOLYLINE
5
133
100
AcDbEntity
8
0
100
AcDbPolyline
90
4
70
1
43
0.0
10
94.364086506377291
20
47.182531531736274
10
86.764122464881495
20
47.182531531736274
10
86.764122464881538
20
51.182509393848861
10
94.364086506377291
20
51.182509393848861
0
LINE
5
134
100
AcDbEntity
8
0
100
AcDbLine
10
94.364086506377291
20
90.182297364122746
30
0
11
86.764122464881495
21
90.182297364122746
31
0
0
LINE
5
135
100
AcDbEntity
8
0
100
AcDbLine
10
94.364086506377291
20
94.182275226235319
30
0
11
94.364086506377291
21
90.182297364122746
31
0
0
LINE
5
136
100
AcDbEntity
8
0
100
AcDbLine
10
86.764122464881538
20
94.182275226235319
30
0
11
94.364086506377291
21
94.182275226235319
31
0
0
LWPOLYLINE
5
137
100
AcDbEntity
8
0
100
AcDbPolyline
90
4
70
1
43
0.0
10
55.364302350779582
20
90.682294596886805
10
47.764338309283822
20
90.682294596886805
10
47.764338309283801
20
94.682272458999407
10
55.364302350779582
20
94.682272458999407
0
LWPOLYLINE
5
138
100
AcDbEntity
8
0
100
AcDbPolyline
90
4
70
1
43
0.0
10
11.86453547095287
20
48.182525997264428
10
4.2645790588094101
20
48.182525997264428
10
4.264579058809427
20
52.182503859377015
10
11.86453547095287
20
52.182503859377007
0
LWPOLYLINE
5
139
100
AcDbEntity
8
0
100
AcDbPolyline
90
4
70
1
43
0.0
10
11.964533391635239
20
4.6827743761423495
10
4.3645769794917779
20
4.6827743761423495
10
4.3645769794917779
20
8.68275223825494
10
11.964533391635239
20
8.6827522382549223
0
LWPOLYLINE
5
140
100
AcDbEntity
8
0
100
AcDbPolyline
90
4
70
1
43
0.0
10
94.364086506377291
20
4.1827771433782601
10
86.764122464881495
20
4.1827771433782601
10
86.764122464881538
20
8.1827550054908507
10
94.364086506377291
20
8.1827550054908507
0
LWPOLYLINE
5
141
100
AcDbEntity
8
0
100
AcDbPolyline
90
4
70
1
43
0.0
10
32.249424786962791
20
43.899750933203805
10
19.049500893732173
20
43.899750933203805
10
19.049500893732187
20
57.09968245578672
10
32.249424786962791
20
57.099682455786734
0
LINE
5
142
100
AcDbEntity
8
0
100
AcDbLine
10
89.499107938449214
20
62.979647166525403
30
0
11
76.29918404521861
21
62.979647166525403
31
0
0
LINE
5
143
100
AcDbEntity
8
0
100
AcDbLine
10
89.499107938449214
20
76.179574874432163
30
0
11
89.499107938449214
21
62.979647166525403
31
0
0
LINE
5
144
100
AcDbEntity
8
0
100
AcDbLine
10
76.29918404521861
20
62.979647166525403
30
0
11
76.299184045218581
21
76.179574874432163
31
0
0
LINE
5
145
100
AcDbEntity
8
0
100
AcDbLine
10
86.764122464881495
20
76.179574874432163
30
0
11
89.499107938449214
21
76.179574874432163
31
0
0
LWPOLYLINE
5
146
100
AcDbEntity
8
0
100
AcDbPolyline
90
4
70
1
43
0.0
10
70.349220027067034
20
43.939751627347206
10
57.149280875131794
20
43.939751627347206
10
57.149280875131794
20
57.139683149930121
10
70.349220027067034
20
57.139683149930121
0
LWPOLYLINE
5
147
100
AcDbEntity
8
0
100
AcDbPolyline
90
4
70
1
43
0.0
10
51.349325182032231
20
62.939646472382009
10
38.149386030096998
20
62.939646472382009
10
38.14938603009702
20
76.139574180288776
10
51.349325182032231
20
76.139574180288761
0
LWPOLYLINE
5
148
100
AcDbEntity
8
0
100
AcDbPolyline
90
4
70
1
43
0.0
10
19.449492576461594
20
24.799858167486668
10
6.2495686832309749
20
24.799858167486668
10
6.2495686832309749
20
37.999789690069591
10
19.449492576461594
20
37.999789690069591
0
LWPOLYLINE
5
149
100
AcDbEntity
8
0
100
AcDbPolyline
90
4
70
1
43
0.0
10
51.349325182032231
20
43.939751627347206
10
38.149386030096998
20
43.939751627347206
10
38.14938603009702
20
57.139683149930121
10
51.349325182032231
20
57.139683149930121
0
LWPOLYLINE
5
150
100
AcDbEntity
8
0
100
AcDbPolyline
90
4
70
1
43
0.0
10
10.314548626995631
20
86.179519529713644
10
10.314548626995631
20
71.979597356278731
10
27.814451773738213
20
71.979597356278731
10
27.814451773738192
20
86.179519529713644
0
LWPOLYLINE
5
151
100
AcDbEntity
8
0
100
AcDbPolyline
90
4
70
1
43
0.0
10
85.269135621702432
20
5.4049688654832631
10
72.069211728471828
20
5.4049688654832631
10
72.069211728471828
20
18.604892758713881
10
85.269135621702432
20
18.604892758713881
0
LWPOLYLINE
5
152
100
AcDbEntity
8
0
100
AcDbPolyline
90
4
70
1
43
0.0
10
29.34944694041301
20
5.7749619349432066
10
16.149515417830091
20
5.7749619349432066
10
16.149515417830091
20
18.974893457526122
10
29.34944694041301
20
18.974893457526122
0
LINE
5
153
100
AcDbEntity
8
0
100
AcDbLine
10
70.369208930110261
20
62.979647166525403
30
0
11
57.169285036879664
21
62.979647166525403
31
0
0
LINE
5
154
100
AcDbEntity
8
0
100
AcDbLine
10
70.369208930110261
20
76.179574874432163
30
0
11
70.369208930110261
21
62.979647166525403
31
0
0
LINE
5
155
100
AcDbEntity
8
0
100
AcDbLine
10
57.169285036879664
20
62.979647166525403
30
0
11
57.169285036879664
21
76.179574874432163
31
0
0
LINE
5
156
100
AcDbEntity
8
0
100
AcDbLine
10
57.169285036879664
20
76.179574874432163
30
0
11
66.249633341239729
21
76.179574874432163
31
0
0
LINE
5
157
100
AcDbEntity
8
0
100
AcDbLine
10
28.249843651170149
20
78.549560689624542
30
0
11
66.249633341239729
21
78.549560689624542
31
0
0
LINE
5
158
100
AcDbEntity
8
0
100
AcDbLine
10
66.249633341239729
20
90.549494275962331
30
0
11
28.249843651170131
21
90.549494275962331
31
0
0
LINE
5
159
100
AcDbEntity
8
0
100
AcDbLine
10
28.249843651170131
20
90.549494275962331
30
0
11
28.249843651170149
21
78.549560689624542
31
0
0
LWPOLYLINE
5
160
100
AcDbEntity
8
0
100
AcDbPolyline
90
4
70
1
43
0.0
10
13.669930142077526
20
89.339501888195528
10
6.0699661005817678
20
89.339501888195528
10
6.0699661005817678
20
93.339479750308129
10
13.669930142077526
20
93.339479750308129
0
LINE
5
161
100
AcDbEntity
8
0
100
AcDbLine
10
32.349446940413017
20
4.8299750995455106
30
0
11
32.349446940413017
21
21.974893457526122
31
0
0
LINE
5
162
100
AcDbEntity
8
0
100
AcDbLine
10
22.449492576461594
20
21.974893457526122
30
0
11
22.449492576461594
21
38.939752002677245
31
0
0
LINE
5
163
100
AcDbEntity
8
0
100
AcDbLine
10
22.449492576461601
20
40.939751627347214
30
0
11
94.364086506377291
21
40.939751627347214
31
0
0
LINE
5
164
100
AcDbEntity
8
0
100
AcDbLine
10
69.069211728471828
20
4.8299750995455106
30
0
11
69.069211728471828
21
21.604892758713881
31
0
0
LINE
5
165
100
AcDbEntity
8
0
100
AcDbLine
10
22.449492576461594
20
21.974893457526122
30
0
11
32.349446940413017
21
21.974893457526122
31
0
0
LINE
5
166
100
AcDbEntity
8
0
100
AcDbLine
10
22.449492576461594
20
38.939752002677245
30
0
11
22.449492576461601
21
40.939751627347214
31
0
0
LINE
5
167
100
AcDbEntity
8
0
100
AcDbLine
10
54.964295409345553
20
4.8299750995455106
30
0
11
69.069211728471828
21
4.8299750995455106
31
0
0
LINE
5
168
100
AcDbEntity
8
0
100
AcDbLine
10
69.069211728471828
20
4.8299750995455106
30
0
11
47.364346626554401
21
4.8299750995455106
31
0
0
LINE
5
169
100
AcDbEntity
8
0
100
AcDbLine
10
47.364346626554401
20
4.8299750995455106
30
0
11
32.349446940413017
21
4.8299750995455106
31
0
0
LINE
5
170
100
AcDbEntity
8
0
100
AcDbLine
10
94.364086506377291
20
40.939751627347214
30
0
11
94.364086506377291
21
21.604892758713881
31
0
0
LINE
5
171
100
AcDbEntity
8
0
100
AcDbLine
10
69.069211728471828
20
21.604892758713881
30
0
11
94.364086506377291
21
21.604892758713881
31
0
0
LINE
5
172
100
AcDbEntity
8
0
100
AcDbLine
10
86.764122464881495
20
90.182297364122746
30
0
11
86.764122464881495
21
76.179574874432163
31
0
0
LINE
5
173
100
AcDbEntity
8
0
100
AcDbLine
10
86.764122464881538
20
94.182275226235319
30
0
11
86.764122464881538
21
99.589445159859039
31
0
0
LINE
5
174
100
AcDbEntity
8
0
100
AcDbLine
10
76.299184045218581
20
76.179574874432163
30
0
11
70.369208930110261
21
76.179574874432163
31
0
0
LINE
5
175
100
AcDbEntity
8
0
100
AcDbLine
10
66.249633341239729
20
78.549560689624542
30
0
11
66.249633341239729
21
76.179574874432163
31
0
0
LINE
5
176
100
AcDbEntity
8
0
100
AcDbLine
10
66.249633341239729
20
76.179574874432163
30
0
11
66.249633341239729
21
78.549560689624542
31
0
0
LINE
5
177
100
AcDbEntity
8
0
100
AcDbLine
10
66.249633341239729
20
99.589445159859039
30
0
11
66.249633341239729
21
90.549494275962331
31
0
0
ENDSEC
0
SECTION
2
OBJECTS
0
DICTIONARY
5
C
100
AcDbDictionary
3
ACAD_GROUP
350
D
3
ACAD_MLINESTYLE
350
17
0
DICTIONARY
5
D
100
AcDbDictionary
0
DICTIONARY
5
1A
330
C
100
AcDbDictionary
0
DICTIONARY
5
17
100
AcDbDictionary
0
ENDSEC
0
EOF
