<?xml version="1.0" standalone="no"?>
 <!DOCTYPE svg PUBLIC "-//W3C//DTD SVG 1.1//EN" 
 "http://www.w3.org/Graphics/SVG/1.1/DTD/svg11.dtd"> 
<svg
  xmlns:svg="http://www.w3.org/2000/svg"
  xmlns="http://www.w3.org/2000/svg"
  xmlns:xlink="http://www.w3.org/1999/xlink"
  xmlns:inkscape="http://www.inkscape.org/namespaces/inkscape"
  version="1.1"
  width="297.0022mm" height="210.0072mm" viewBox="0.0000 0.0000 297.0022 210.0072">
<title>SVG Image created as Anypad-Edge_Cuts.svg date 2026-07-02T12:50:13 </title>
  <desc>Image generated by PCBNEW </desc>
<g style="fill:#000000; fill-opacity:1.0000;stroke:#000000; stroke-opacity:1.0000;
stroke-linecap:round; stroke-linejoin:round;"
 transform="translate(0 0) scale(1 1)">
<path style="fill:none; 
stroke:#D0D2CD; stroke-width:0.0500; stroke-opacity:1; 
stroke-linecap:round; stroke-linejoin:round;fill:none"
d="M 99.9500,40.0000
199.5400,40.0000
199.5400,139.5900
99.9500,139.5900
Z" /> 
</g>
<g style="fill:none; 
stroke:#D0D2CD; stroke-width:0.1000; stroke-opacity:1; 
stroke-linecap:round; stroke-linejoin:round;">
<path d="M152.8146 133.4628 A0.5000 0.5000 0.0 0 0 152.8641 133.6797" />
<path d="M152.1613 134.3283 A0.5000 0.5000 0.0 0 0 152.8641 133.6797" />
<path d="M152.8641 131.8403 A0.5000 0.5000 0.0 0 0 152.8146 132.0572" />
<path d="M152.8641 131.8403 A0.5000 0.5000 0.0 0 0 152.1613 131.1917" />
<path d="M151.9090 131.2600 A0.5000 0.5000 0.0 0 0 152.1613 131.1917" />
<path d="M152.1613 134.3283 A0.5000 0.5000 0.0 0 0 151.9090 134.2600" />
<path d="M150.0679 131.1917 A0.5000 0.5000 0.0 0 0 150.3201 131.2600" />
<path d="M150.3201 134.2600 A0.5000 0.5000 0.0 0 0 150.0679 134.3283" />
<path d="M149.3651 133.6797 A0.5000 0.5000 0.0 0 0 150.0679 134.3283" />
<path d="M149.3651 133.6797 A0.5000 0.5000 0.0 0 0 149.4146 133.4628" />
<path d="M150.0679 131.1917 A0.5000 0.5000 0.0 0 0 149.3651 131.8403" />
<path d="M149.4146 132.0572 A0.5001 0.5001 0.0 0 0 149.3651 131.8403" />
<path d="M152.8146 133.4628
L152.8146 132.0572
" />
<path d="M151.9090 131.2600
L150.3201 131.2600
" />
<path d="M150.3201 134.2600
L151.9090 134.2600
" />
<path d="M149.4146 132.0572
L149.4146 133.4628
" />
<path d="M192.2146 91.1100 A0.5000 0.5000 0.0 0 0 192.2641 91.3269" />
<path d="M191.5613 91.9755 A0.5000 0.5000 0.0 0 0 192.2641 91.3269" />
<path d="M192.2641 89.4874 A0.5000 0.5000 0.0 0 0 192.2146 89.7043" />
<path d="M192.2641 89.4874 A0.5000 0.5000 0.0 0 0 191.5613 88.8389" />
<path d="M191.3090 88.9072 A0.5000 0.5000 0.0 0 0 191.5613 88.8389" />
<path d="M191.5613 91.9755 A0.5000 0.5000 0.0 0 0 191.3090 91.9072" />
<path d="M189.4679 88.8389 A0.5000 0.5000 0.0 0 0 189.7201 88.9072" />
<path d="M189.7201 91.9072 A0.5000 0.5000 0.0 0 0 189.4679 91.9755" />
<path d="M188.7651 91.3269 A0.5000 0.5000 0.0 0 0 189.4679 91.9755" />
<path d="M188.7651 91.3269 A0.5000 0.5000 0.0 0 0 188.8146 91.1100" />
<path d="M189.4679 88.8389 A0.5000 0.5000 0.0 0 0 188.7651 89.4874" />
<path d="M188.8146 89.7043 A0.5001 0.5001 0.0 0 0 188.7651 89.4874" />
<path d="M192.2146 91.1100
L192.2146 89.7043
" />
<path d="M191.3090 88.9072
L189.7201 88.9072
" />
<path d="M189.7201 91.9072
L191.3090 91.9072
" />
<path d="M188.8146 89.7043
L188.8146 91.1100
" />
<path d="M192.2146 48.1100 A0.5000 0.5000 0.0 0 0 192.2641 48.3269" />
<path d="M191.5613 48.9755 A0.5000 0.5000 0.0 0 0 192.2641 48.3269" />
<path d="M192.2641 46.4874 A0.5000 0.5000 0.0 0 0 192.2146 46.7043" />
<path d="M192.2641 46.4874 A0.5000 0.5000 0.0 0 0 191.5613 45.8389" />
<path d="M191.3090 45.9072 A0.5000 0.5000 0.0 0 0 191.5613 45.8389" />
<path d="M191.5613 48.9755 A0.5000 0.5000 0.0 0 0 191.3090 48.9072" />
<path d="M189.4679 45.8389 A0.5000 0.5000 0.0 0 0 189.7201 45.9072" />
<path d="M189.7201 48.9072 A0.5000 0.5000 0.0 0 0 189.4679 48.9755" />
<path d="M188.7651 48.3269 A0.5000 0.5000 0.0 0 0 189.4679 48.9755" />
<path d="M188.7651 48.3269 A0.5000 0.5000 0.0 0 0 188.8146 48.1100" />
<path d="M189.4679 45.8389 A0.5000 0.5000 0.0 0 0 188.7651 46.4874" />
<path d="M188.8146 46.7043 A0.5001 0.5001 0.0 0 0 188.7651 46.4874" />
<path d="M192.2146 48.1100
L192.2146 46.7043
" />
<path d="M191.3090 45.9072
L189.7201 45.9072
" />
<path d="M189.7201 48.9072
L191.3090 48.9072
" />
<path d="M188.8146 46.7043
L188.8146 48.1100
" />
<path d="M153.2146 47.6100 A0.5000 0.5000 0.0 0 0 153.2641 47.8269" />
<path d="M152.5613 48.4755 A0.5000 0.5000 0.0 0 0 153.2641 47.8269" />
<path d="M153.2641 45.9874 A0.5000 0.5000 0.0 0 0 153.2146 46.2043" />
<path d="M153.2641 45.9874 A0.5000 0.5000 0.0 0 0 152.5613 45.3389" />
<path d="M152.3090 45.4072 A0.5000 0.5000 0.0 0 0 152.5613 45.3389" />
<path d="M152.5613 48.4755 A0.5000 0.5000 0.0 0 0 152.3090 48.4072" />
<path d="M150.4679 45.3389 A0.5000 0.5000 0.0 0 0 150.7201 45.4072" />
<path d="M150.7201 48.4072 A0.5000 0.5000 0.0 0 0 150.4679 48.4755" />
<path d="M149.7651 47.8269 A0.5000 0.5000 0.0 0 0 150.4679 48.4755" />
<path d="M149.7651 47.8269 A0.5000 0.5000 0.0 0 0 149.8146 47.6100" />
<path d="M150.4679 45.3389 A0.5000 0.5000 0.0 0 0 149.7651 45.9874" />
<path d="M149.8146 46.2043 A0.5001 0.5001 0.0 0 0 149.7651 45.9874" />
<path d="M153.2146 47.6100
L153.2146 46.2043
" />
<path d="M152.3090 45.4072
L150.7201 45.4072
" />
<path d="M150.7201 48.4072
L152.3090 48.4072
" />
<path d="M149.8146 46.2043
L149.8146 47.6100
" />
<path d="M109.7146 90.1100 A0.5000 0.5000 0.0 0 0 109.7641 90.3269" />
<path d="M109.0613 90.9755 A0.5000 0.5000 0.0 0 0 109.7641 90.3269" />
<path d="M109.7641 88.4874 A0.5000 0.5000 0.0 0 0 109.7146 88.7043" />
<path d="M109.7641 88.4874 A0.5000 0.5000 0.0 0 0 109.0613 87.8389" />
<path d="M108.8090 87.9072 A0.5000 0.5000 0.0 0 0 109.0613 87.8389" />
<path d="M109.0613 90.9755 A0.5000 0.5000 0.0 0 0 108.8090 90.9072" />
<path d="M106.9679 87.8389 A0.5000 0.5000 0.0 0 0 107.2201 87.9072" />
<path d="M107.2201 90.9072 A0.5000 0.5000 0.0 0 0 106.9679 90.9755" />
<path d="M106.2651 90.3269 A0.5000 0.5000 0.0 0 0 106.9679 90.9755" />
<path d="M106.2651 90.3269 A0.5000 0.5000 0.0 0 0 106.3146 90.1100" />
<path d="M106.9679 87.8389 A0.5000 0.5000 0.0 0 0 106.2651 88.4874" />
<path d="M106.3146 88.7043 A0.5001 0.5001 0.0 0 0 106.2651 88.4874" />
<path d="M109.7146 90.1100
L109.7146 88.7043
" />
<path d="M108.8090 87.9072
L107.2201 87.9072
" />
<path d="M107.2201 90.9072
L108.8090 90.9072
" />
<path d="M106.3146 88.7043
L106.3146 90.1100
" />
<path d="M109.8146 133.6100 A0.5000 0.5000 0.0 0 0 109.8641 133.8269" />
<path d="M109.1613 134.4755 A0.5000 0.5000 0.0 0 0 109.8641 133.8269" />
<path d="M109.8641 131.9874 A0.5000 0.5000 0.0 0 0 109.8146 132.2043" />
<path d="M109.8641 131.9874 A0.5000 0.5000 0.0 0 0 109.1613 131.3389" />
<path d="M108.9090 131.4072 A0.5000 0.5000 0.0 0 0 109.1613 131.3389" />
<path d="M109.1613 134.4755 A0.5000 0.5000 0.0 0 0 108.9090 134.4072" />
<path d="M107.0679 131.3389 A0.5000 0.5000 0.0 0 0 107.3201 131.4072" />
<path d="M107.3201 134.4072 A0.5000 0.5000 0.0 0 0 107.0679 134.4755" />
<path d="M106.3651 133.8269 A0.5000 0.5000 0.0 0 0 107.0679 134.4755" />
<path d="M106.3651 133.8269 A0.5000 0.5000 0.0 0 0 106.4146 133.6100" />
<path d="M107.0679 131.3389 A0.5000 0.5000 0.0 0 0 106.3651 131.9874" />
<path d="M106.4146 132.2043 A0.5001 0.5001 0.0 0 0 106.3651 131.9874" />
<path d="M109.8146 133.6100
L109.8146 132.2043
" />
<path d="M108.9090 131.4072
L107.3201 131.4072
" />
<path d="M107.3201 134.4072
L108.9090 134.4072
" />
<path d="M106.4146 132.2043
L106.4146 133.6100
" />
<path d="M192.2146 134.1100 A0.5000 0.5000 0.0 0 0 192.2641 134.3269" />
<path d="M191.5613 134.9755 A0.5000 0.5000 0.0 0 0 192.2641 134.3269" />
<path d="M192.2641 132.4874 A0.5000 0.5000 0.0 0 0 192.2146 132.7043" />
<path d="M192.2641 132.4874 A0.5000 0.5000 0.0 0 0 191.5613 131.8389" />
<path d="M191.3090 131.9072 A0.5000 0.5000 0.0 0 0 191.5613 131.8389" />
<path d="M191.5613 134.9755 A0.5000 0.5000 0.0 0 0 191.3090 134.9072" />
<path d="M189.4679 131.8389 A0.5000 0.5000 0.0 0 0 189.7201 131.9072" />
<path d="M189.7201 134.9072 A0.5000 0.5000 0.0 0 0 189.4679 134.9755" />
<path d="M188.7651 134.3269 A0.5000 0.5000 0.0 0 0 189.4679 134.9755" />
<path d="M188.7651 134.3269 A0.5000 0.5000 0.0 0 0 188.8146 134.1100" />
<path d="M189.4679 131.8389 A0.5000 0.5000 0.0 0 0 188.7651 132.4874" />
<path d="M188.8146 132.7043 A0.5001 0.5001 0.0 0 0 188.7651 132.4874" />
<path d="M192.2146 134.1100
L192.2146 132.7043
" />
<path d="M191.3090 131.9072
L189.7201 131.9072
" />
<path d="M189.7201 134.9072
L191.3090 134.9072
" />
<path d="M188.8146 132.7043
L188.8146 134.1100
" />
<path d="M165.2146 75.1100 A0.5000 0.5000 0.0 0 0 165.2641 75.3269" />
<path d="M164.5613 75.9755 A0.5000 0.5000 0.0 0 0 165.2641 75.3269" />
<path d="M165.2640 73.4874 A0.5000 0.5000 0.0 0 0 165.2146 73.7043" />
<path d="M165.2641 73.4874 A0.5000 0.5000 0.0 0 0 164.5613 72.8389" />
<path d="M164.3090 72.9072 A0.5000 0.5000 0.0 0 0 164.5613 72.8389" />
<path d="M164.5613 75.9755 A0.5000 0.5000 0.0 0 0 164.3090 75.9072" />
<path d="M162.4679 72.8389 A0.5000 0.5000 0.0 0 0 162.7201 72.9072" />
<path d="M162.7201 75.9072 A0.5000 0.5000 0.0 0 0 162.4679 75.9755" />
<path d="M161.7651 75.3269 A0.5000 0.5000 0.0 0 0 162.4679 75.9755" />
<path d="M161.7651 75.3269 A0.5000 0.5000 0.0 0 0 161.8146 75.1100" />
<path d="M162.4679 72.8389 A0.5000 0.5000 0.0 0 0 161.7651 73.4874" />
<path d="M161.8146 73.7043 A0.5000 0.5000 0.0 0 0 161.7651 73.4874" />
<path d="M165.2146 73.7043
L165.2146 75.1100
" />
<path d="M164.3090 75.9072
L162.7201 75.9072
" />
<path d="M162.7201 72.9072
L164.3090 72.9072
" />
<path d="M161.8146 75.1100
L161.8146 73.7043
" />
<path d="M184.7146 75.1100 A0.5000 0.5000 0.0 0 0 184.7641 75.3269" />
<path d="M184.0613 75.9755 A0.5000 0.5000 0.0 0 0 184.7641 75.3269" />
<path d="M184.7640 73.4874 A0.5000 0.5000 0.0 0 0 184.7146 73.7043" />
<path d="M184.7641 73.4874 A0.5000 0.5000 0.0 0 0 184.0613 72.8389" />
<path d="M183.8090 72.9072 A0.5000 0.5000 0.0 0 0 184.0613 72.8389" />
<path d="M184.0613 75.9755 A0.5000 0.5000 0.0 0 0 183.8090 75.9072" />
<path d="M181.9679 72.8389 A0.5000 0.5000 0.0 0 0 182.2201 72.9072" />
<path d="M182.2201 75.9072 A0.5000 0.5000 0.0 0 0 181.9679 75.9755" />
<path d="M181.2651 75.3269 A0.5000 0.5000 0.0 0 0 181.9679 75.9755" />
<path d="M181.2651 75.3269 A0.5000 0.5000 0.0 0 0 181.3146 75.1100" />
<path d="M181.9679 72.8389 A0.5000 0.5000 0.0 0 0 181.2651 73.4874" />
<path d="M181.3146 73.7043 A0.5000 0.5000 0.0 0 0 181.2651 73.4874" />
<path d="M184.7146 73.7043
L184.7146 75.1100
" />
<path d="M183.8090 75.9072
L182.2201 75.9072
" />
<path d="M182.2201 72.9072
L183.8090 72.9072
" />
<path d="M181.3146 75.1100
L181.3146 73.7043
" />
<path d="M124.3146 132.9628 A0.5000 0.5000 0.0 0 0 124.3641 133.1797" />
<path d="M123.6613 133.8283 A0.5000 0.5000 0.0 0 0 124.3641 133.1797" />
<path d="M124.3640 131.3403 A0.5000 0.5000 0.0 0 0 124.3146 131.5572" />
<path d="M124.3641 131.3403 A0.5000 0.5000 0.0 0 0 123.6613 130.6917" />
<path d="M123.4090 130.7600 A0.5000 0.5000 0.0 0 0 123.6613 130.6917" />
<path d="M123.6613 133.8283 A0.5000 0.5000 0.0 0 0 123.4090 133.7600" />
<path d="M121.5679 130.6917 A0.5000 0.5000 0.0 0 0 121.8201 130.7600" />
<path d="M121.8201 133.7600 A0.5000 0.5000 0.0 0 0 121.5679 133.8283" />
<path d="M120.8651 133.1797 A0.5000 0.5000 0.0 0 0 121.5679 133.8283" />
<path d="M120.8651 133.1797 A0.5000 0.5000 0.0 0 0 120.9146 132.9628" />
<path d="M121.5679 130.6917 A0.5000 0.5000 0.0 0 0 120.8651 131.3403" />
<path d="M120.9146 131.5572 A0.5000 0.5000 0.0 0 0 120.8651 131.3403" />
<path d="M124.3146 131.5572
L124.3146 132.9628
" />
<path d="M123.4090 133.7600
L121.8201 133.7600
" />
<path d="M121.8201 130.7600
L123.4090 130.7600
" />
<path d="M120.9146 132.9628
L120.9146 131.5572
" />
<path d="M180.2146 133.1100 A0.5000 0.5000 0.0 0 0 180.2641 133.3269" />
<path d="M179.5613 133.9755 A0.5000 0.5000 0.0 0 0 180.2641 133.3269" />
<path d="M180.2640 131.4874 A0.5000 0.5000 0.0 0 0 180.2146 131.7043" />
<path d="M180.2641 131.4874 A0.5000 0.5000 0.0 0 0 179.5613 130.8389" />
<path d="M179.3090 130.9072 A0.5000 0.5000 0.0 0 0 179.5613 130.8389" />
<path d="M179.5613 133.9755 A0.5000 0.5000 0.0 0 0 179.3090 133.9072" />
<path d="M177.4679 130.8389 A0.5000 0.5000 0.0 0 0 177.7201 130.9072" />
<path d="M177.7201 133.9072 A0.5000 0.5000 0.0 0 0 177.4679 133.9755" />
<path d="M176.7651 133.3269 A0.5000 0.5000 0.0 0 0 177.4679 133.9755" />
<path d="M176.7651 133.3269 A0.5000 0.5000 0.0 0 0 176.8146 133.1100" />
<path d="M177.4679 130.8389 A0.5000 0.5000 0.0 0 0 176.7651 131.4874" />
<path d="M176.8146 131.7043 A0.5000 0.5000 0.0 0 0 176.7651 131.4874" />
<path d="M180.2146 131.7043
L180.2146 133.1100
" />
<path d="M179.3090 133.9072
L177.7201 133.9072
" />
<path d="M177.7201 130.9072
L179.3090 130.9072
" />
<path d="M176.8146 133.1100
L176.8146 131.7043
" />
<path d="M146.3396 75.1100 A0.5000 0.5000 0.0 0 0 146.3891 75.3269" />
<path d="M145.6863 75.9755 A0.5000 0.5000 0.0 0 0 146.3891 75.3269" />
<path d="M146.3890 73.4874 A0.5000 0.5000 0.0 0 0 146.3396 73.7043" />
<path d="M146.3891 73.4874 A0.5000 0.5000 0.0 0 0 145.6863 72.8389" />
<path d="M145.4340 72.9072 A0.5000 0.5000 0.0 0 0 145.6863 72.8389" />
<path d="M145.6863 75.9755 A0.5000 0.5000 0.0 0 0 145.4340 75.9072" />
<path d="M143.5929 72.8389 A0.5000 0.5000 0.0 0 0 143.8451 72.9072" />
<path d="M143.8451 75.9072 A0.5000 0.5000 0.0 0 0 143.5929 75.9755" />
<path d="M142.8901 75.3269 A0.5000 0.5000 0.0 0 0 143.5929 75.9755" />
<path d="M142.8901 75.3269 A0.5000 0.5000 0.0 0 0 142.9396 75.1100" />
<path d="M143.5929 72.8389 A0.5000 0.5000 0.0 0 0 142.8901 73.4874" />
<path d="M142.9396 73.7043 A0.5000 0.5000 0.0 0 0 142.8901 73.4874" />
<path d="M146.3396 73.7043
L146.3396 75.1100
" />
<path d="M145.4340 75.9072
L143.8451 75.9072
" />
<path d="M143.8451 72.9072
L145.4340 72.9072
" />
<path d="M142.9396 75.1100
L142.9396 73.7043
" />
<path d="M114.2146 113.6100 A0.5000 0.5000 0.0 0 0 114.2641 113.8269" />
<path d="M113.5613 114.4755 A0.5000 0.5000 0.0 0 0 114.2641 113.8269" />
<path d="M114.2640 111.9874 A0.5000 0.5000 0.0 0 0 114.2146 112.2043" />
<path d="M114.2641 111.9874 A0.5000 0.5000 0.0 0 0 113.5613 111.3389" />
<path d="M113.3090 111.4072 A0.5000 0.5000 0.0 0 0 113.5613 111.3389" />
<path d="M113.5613 114.4755 A0.5000 0.5000 0.0 0 0 113.3090 114.4072" />
<path d="M111.4679 111.3389 A0.5000 0.5000 0.0 0 0 111.7201 111.4072" />
<path d="M111.7201 114.4072 A0.5000 0.5000 0.0 0 0 111.4679 114.4755" />
<path d="M110.7651 113.8269 A0.5000 0.5000 0.0 0 0 111.4679 114.4755" />
<path d="M110.7651 113.8269 A0.5000 0.5000 0.0 0 0 110.8146 113.6100" />
<path d="M111.4679 111.3389 A0.5000 0.5000 0.0 0 0 110.7651 111.9874" />
<path d="M110.8146 112.2043 A0.5000 0.5000 0.0 0 0 110.7651 111.9874" />
<path d="M114.2146 112.2043
L114.2146 113.6100
" />
<path d="M113.3090 114.4072
L111.7201 114.4072
" />
<path d="M111.7201 111.4072
L113.3090 111.4072
" />
<path d="M110.8146 113.6100
L110.8146 112.2043
" />
<path d="M165.2146 94.1100 A0.5000 0.5000 0.0 0 0 165.2641 94.3269" />
<path d="M164.5613 94.9755 A0.5000 0.5000 0.0 0 0 165.2641 94.3269" />
<path d="M165.2640 92.4874 A0.5000 0.5000 0.0 0 0 165.2146 92.7043" />
<path d="M165.2641 92.4874 A0.5000 0.5000 0.0 0 0 164.5613 91.8389" />
<path d="M164.3090 91.9072 A0.5000 0.5000 0.0 0 0 164.5613 91.8389" />
<path d="M164.5613 94.9755 A0.5000 0.5000 0.0 0 0 164.3090 94.9072" />
<path d="M162.4679 91.8389 A0.5000 0.5000 0.0 0 0 162.7201 91.9072" />
<path d="M162.7201 94.9072 A0.5000 0.5000 0.0 0 0 162.4679 94.9755" />
<path d="M161.7651 94.3269 A0.5000 0.5000 0.0 0 0 162.4679 94.9755" />
<path d="M161.7651 94.3269 A0.5000 0.5000 0.0 0 0 161.8146 94.1100" />
<path d="M162.4679 91.8389 A0.5000 0.5000 0.0 0 0 161.7651 92.4874" />
<path d="M161.8146 92.7043 A0.5000 0.5000 0.0 0 0 161.7651 92.4874" />
<path d="M165.2146 92.7043
L165.2146 94.1100
" />
<path d="M164.3090 94.9072
L162.7201 94.9072
" />
<path d="M162.7201 91.9072
L164.3090 91.9072
" />
<path d="M161.8146 94.1100
L161.8146 92.7043
" />
<path d="M146.2146 94.1100 A0.5000 0.5000 0.0 0 0 146.2641 94.3269" />
<path d="M145.5613 94.9755 A0.5000 0.5000 0.0 0 0 146.2641 94.3269" />
<path d="M146.2640 92.4874 A0.5000 0.5000 0.0 0 0 146.2146 92.7043" />
<path d="M146.2641 92.4874 A0.5000 0.5000 0.0 0 0 145.5613 91.8389" />
<path d="M145.3090 91.9072 A0.5000 0.5000 0.0 0 0 145.5613 91.8389" />
<path d="M145.5613 94.9755 A0.5000 0.5000 0.0 0 0 145.3090 94.9072" />
<path d="M143.4679 91.8389 A0.5000 0.5000 0.0 0 0 143.7201 91.9072" />
<path d="M143.7201 94.9072 A0.5000 0.5000 0.0 0 0 143.4679 94.9755" />
<path d="M142.7651 94.3269 A0.5000 0.5000 0.0 0 0 143.4679 94.9755" />
<path d="M142.7651 94.3269 A0.5000 0.5000 0.0 0 0 142.8146 94.1100" />
<path d="M143.4679 91.8389 A0.5000 0.5000 0.0 0 0 142.7651 92.4874" />
<path d="M142.8146 92.7043 A0.5000 0.5000 0.0 0 0 142.7651 92.4874" />
<path d="M146.2146 92.7043
L146.2146 94.1100
" />
<path d="M145.3090 94.9072
L143.7201 94.9072
" />
<path d="M143.7201 91.9072
L145.3090 91.9072
" />
<path d="M142.8146 94.1100
L142.8146 92.7043
" />
<path d="M127.2146 94.1100 A0.5000 0.5000 0.0 0 0 127.2641 94.3269" />
<path d="M126.5613 94.9755 A0.5000 0.5000 0.0 0 0 127.2641 94.3269" />
<path d="M127.2640 92.4874 A0.5000 0.5000 0.0 0 0 127.2146 92.7043" />
<path d="M127.2641 92.4874 A0.5000 0.5000 0.0 0 0 126.5613 91.8389" />
<path d="M126.3090 91.9072 A0.5000 0.5000 0.0 0 0 126.5613 91.8389" />
<path d="M126.5613 94.9755 A0.5000 0.5000 0.0 0 0 126.3090 94.9072" />
<path d="M124.4679 91.8389 A0.5000 0.5000 0.0 0 0 124.7201 91.9072" />
<path d="M124.7201 94.9072 A0.5000 0.5000 0.0 0 0 124.4679 94.9755" />
<path d="M123.7651 94.3269 A0.5000 0.5000 0.0 0 0 124.4679 94.9755" />
<path d="M123.7651 94.3269 A0.5000 0.5000 0.0 0 0 123.8146 94.1100" />
<path d="M124.4679 91.8389 A0.5000 0.5000 0.0 0 0 123.7651 92.4874" />
<path d="M123.8146 92.7043 A0.5000 0.5000 0.0 0 0 123.7651 92.4874" />
<path d="M127.2146 92.7043
L127.2146 94.1100
" />
<path d="M126.3090 94.9072
L124.7201 94.9072
" />
<path d="M124.7201 91.9072
L126.3090 91.9072
" />
<path d="M123.8146 94.1100
L123.8146 92.7043
" />
<path d="M111.5200 48.9528 A0.5000 0.5000 0.0 0 0 111.5695 49.1697" />
<path d="M110.8667 49.8183 A0.5000 0.5000 0.0 0 0 111.5695 49.1697" />
<path d="M111.5695 47.3303 A0.5000 0.5000 0.0 0 0 111.5200 47.5472" />
<path d="M111.5695 47.3303 A0.5000 0.5000 0.0 0 0 110.8667 46.6817" />
<path d="M110.6145 46.7500 A0.5000 0.5000 0.0 0 0 110.8667 46.6817" />
<path d="M110.8667 49.8183 A0.5000 0.5000 0.0 0 0 110.6145 49.7500" />
<path d="M108.7733 46.6817 A0.5000 0.5000 0.0 0 0 109.0255 46.7500" />
<path d="M109.0255 49.7500 A0.5000 0.5000 0.0 0 0 108.7733 49.8183" />
<path d="M108.0705 49.1697 A0.5000 0.5000 0.0 0 0 108.7733 49.8183" />
<path d="M108.0705 49.1697 A0.5000 0.5000 0.0 0 0 108.1200 48.9528" />
<path d="M108.7733 46.6817 A0.5000 0.5000 0.0 0 0 108.0705 47.3303" />
<path d="M108.1200 47.5472 A0.5001 0.5001 0.0 0 0 108.0705 47.3303" />
<path d="M111.5200 48.9528
L111.5200 47.5472
" />
<path d="M110.6145 46.7500
L109.0255 46.7500
" />
<path d="M109.0255 49.7500
L110.6145 49.7500
" />
<path d="M108.1200 47.5472
L108.1200 48.9528
" />
</g> 
</svg>
