  0
SECTION
  2
HEADER
  9
$ANGBASE
  50
0.0
  9
$ANGDIR
  70
1
  9
$MEASUREMENT
  70
1
  9
$INSUNITS
  70
4
  0
ENDSEC
  0
SECTION
  2
TABLES
  0
TABLE
  2
LTYPE
  70
4
  0
LTYPE
  5
40F
  2
CONTINUOUS
  70
0
  3
Solid line
  72
65
  73
0
  40
0.0
  0
LTYPE
  5
410
  2
DASHDOT
 70
0
  3
Dash Dot ____ _ ____ _
 72
65
 73
4
 40
2.0
 49
1.25
 49
-0.25
 49
0.25
 49
-0.25
  0
LTYPE
  5
411
  2
DASHED
 70
0
  3
Dashed __ __ __ __ __
 72
65
 73
2
 40
0.75
 49
0.5
 49
-0.25
  0
LTYPE
  5
43B
  2
DOTTED
 70
0
  3
Dotted .  .  .  .
 72
65
 73
2
 40
0.2
 49
0.0
 49
-0.2
  0
ENDTAB
  0
TABLE
  2
STYLE
  70
4
  0
STYLE
  2
KICAD
  70
0
  40
0
  41
1
  42
1
  50
0
  71
0
  3
isocp.shx
  0
STYLE
  2
KICADB
  70
0
  40
0
  41
1
  42
1
  50
0
  71
0
  3
isocp.shx
  0
STYLE
  2
KICADI
  70
0
  40
0
  41
1
  42
1
  50
15
  71
0
  3
isocp.shx
  0
STYLE
  2
KICADBI
  70
0
  40
0
  41
1
  42
1
  50
15
  71
0
  3
isocp.shx
  0
ENDTAB
  0
TABLE
  2
LAYER
  70
2
  0
LAYER
  2
Edge.Cuts
  70
0
  62
254
  420
13685453
  6
CONTINUOUS
  0
LAYER
  2
F.Courtyard
  70
0
  62
6
  420
16721634
  6
CONTINUOUS
  0
ENDTAB
  0
ENDSEC
  0
SECTION
  2
ENTITIES
0
LINE
8
F.Courtyard
6
CONTINUOUS
10
194.4241370000000018
20
-137.5740610000000004
11
194.4376670000000047
21
-137.5875910000000033
0
LINE
8
F.Courtyard
6
CONTINUOUS
10
194.4376670000000047
20
-137.5875910000000033
11
194.4395700000000033
21
-137.5971580000000074
0
LINE
8
F.Courtyard
6
CONTINUOUS
10
194.4395700000000033
20
-137.5971580000000074
11
194.4395700000000033
21
-141.5971580000000074
0
LINE
8
F.Courtyard
6
CONTINUOUS
10
194.4395700000000033
20
-141.5971580000000074
11
194.4376670000000047
21
-141.6067249999999831
0
LINE
8
F.Courtyard
6
CONTINUOUS
10
194.4376670000000047
20
-141.6067249999999831
11
194.4241370000000018
21
-141.620254999999986
0
LINE
8
F.Courtyard
6
CONTINUOUS
10
194.4241370000000018
20
-141.620254999999986
11
194.4145699999999977
21
-141.6221579999999847
0
LINE
8
F.Courtyard
6
CONTINUOUS
10
194.4145699999999977
20
-141.6221579999999847
11
186.8145700000000033
21
-141.6221579999999847
0
LINE
8
F.Courtyard
6
CONTINUOUS
10
186.8145700000000033
20
-141.6221579999999847
11
186.8050029999999992
21
-141.620254999999986
0
LINE
8
F.Courtyard
6
CONTINUOUS
10
186.8050029999999992
20
-141.620254999999986
11
186.7914729999999963
21
-141.6067249999999831
0
LINE
8
F.Courtyard
6
CONTINUOUS
10
186.7914729999999963
20
-141.6067249999999831
11
186.7895699999999977
21
-141.5971580000000074
0
LINE
8
F.Courtyard
6
CONTINUOUS
10
186.7895699999999977
20
-141.5971580000000074
11
186.7895699999999977
21
-137.5971580000000074
0
LINE
8
F.Courtyard
6
CONTINUOUS
10
186.7895699999999977
20
-137.5971580000000074
11
186.7914729999999963
21
-137.5875910000000033
0
LINE
8
F.Courtyard
6
CONTINUOUS
10
186.7914729999999963
20
-137.5875910000000033
11
186.8050029999999992
21
-137.5740610000000004
0
LINE
8
F.Courtyard
6
CONTINUOUS
10
186.8050029999999992
20
-137.5740610000000004
11
186.8145700000000033
21
-137.5721580000000017
0
LINE
8
F.Courtyard
6
CONTINUOUS
10
186.8145700000000033
20
-137.5721580000000017
11
194.4145699999999977
21
-137.5721580000000017
0
LINE
8
F.Courtyard
6
CONTINUOUS
10
194.4145699999999977
20
-137.5721580000000017
11
194.4241370000000018
21
-137.5740610000000004
0
LINE
8
F.Courtyard
6
CONTINUOUS
10
186.8395699999999806
20
-137.6221579999999847
11
186.8395699999999806
21
-141.5721580000000017
0
LINE
8
F.Courtyard
6
CONTINUOUS
10
186.8395699999999806
20
-141.5721580000000017
11
194.389569999999992
21
-141.5721580000000017
0
LINE
8
F.Courtyard
6
CONTINUOUS
10
194.389569999999992
20
-141.5721580000000017
11
194.389569999999992
21
-137.6221579999999847
0
LINE
8
F.Courtyard
6
CONTINUOUS
10
194.389569999999992
20
-137.6221579999999847
11
186.8395699999999806
21
-137.6221579999999847
0
LINE
8
F.Courtyard
6
CONTINUOUS
10
112.0241379999999936
20
-137.0740610000000004
11
112.0376679999999965
21
-137.0875910000000033
0
LINE
8
F.Courtyard
6
CONTINUOUS
10
112.0376679999999965
20
-137.0875910000000033
11
112.0395709999999951
21
-137.0971580000000074
0
LINE
8
F.Courtyard
6
CONTINUOUS
10
112.0395709999999951
20
-137.0971580000000074
11
112.0395709999999951
21
-141.0971580000000074
0
LINE
8
F.Courtyard
6
CONTINUOUS
10
112.0395709999999951
20
-141.0971580000000074
11
112.0376679999999965
21
-141.1067249999999831
0
LINE
8
F.Courtyard
6
CONTINUOUS
10
112.0376679999999965
20
-141.1067249999999831
11
112.0241379999999936
21
-141.120254999999986
0
LINE
8
F.Courtyard
6
CONTINUOUS
10
112.0241379999999936
20
-141.120254999999986
11
112.0145709999999895
21
-141.1221579999999847
0
LINE
8
F.Courtyard
6
CONTINUOUS
10
112.0145709999999895
20
-141.1221579999999847
11
104.4145709999999951
21
-141.1221579999999847
0
LINE
8
F.Courtyard
6
CONTINUOUS
10
104.4145709999999951
20
-141.1221579999999847
11
104.405003999999991
21
-141.120254999999986
0
LINE
8
F.Courtyard
6
CONTINUOUS
10
104.405003999999991
20
-141.120254999999986
11
104.3914740000000023
21
-141.1067249999999831
0
LINE
8
F.Courtyard
6
CONTINUOUS
10
104.3914740000000023
20
-141.1067249999999831
11
104.3895709999999895
21
-141.0971580000000074
0
LINE
8
F.Courtyard
6
CONTINUOUS
10
104.3895709999999895
20
-141.0971580000000074
11
104.3895709999999895
21
-137.0971580000000074
0
LINE
8
F.Courtyard
6
CONTINUOUS
10
104.3895709999999895
20
-137.0971580000000074
11
104.3914740000000023
21
-137.0875910000000033
0
LINE
8
F.Courtyard
6
CONTINUOUS
10
104.3914740000000023
20
-137.0875910000000033
11
104.405003999999991
21
-137.0740610000000004
0
LINE
8
F.Courtyard
6
CONTINUOUS
10
104.405003999999991
20
-137.0740610000000004
11
104.4145709999999951
21
-137.0721580000000017
0
LINE
8
F.Courtyard
6
CONTINUOUS
10
104.4145709999999951
20
-137.0721580000000017
11
112.0145709999999895
21
-137.0721580000000017
0
LINE
8
F.Courtyard
6
CONTINUOUS
10
112.0145709999999895
20
-137.0721580000000017
11
112.0241379999999936
21
-137.0740610000000004
0
LINE
8
F.Courtyard
6
CONTINUOUS
10
104.4395710000000008
20
-137.1221579999999847
11
104.4395710000000008
21
-141.0721580000000017
0
LINE
8
F.Courtyard
6
CONTINUOUS
10
104.4395710000000008
20
-141.0721580000000017
11
111.989570999999998
21
-141.0721580000000017
0
LINE
8
F.Courtyard
6
CONTINUOUS
10
111.989570999999998
20
-141.0721580000000017
11
111.989570999999998
21
-137.1221579999999847
0
LINE
8
F.Courtyard
6
CONTINUOUS
10
111.989570999999998
20
-137.1221579999999847
11
104.4395710000000008
21
-137.1221579999999847
0
LINE
8
F.Courtyard
6
CONTINUOUS
10
155.0241379999999936
20
-136.9269029999999816
11
155.0376679999999965
21
-136.9404329999999845
0
LINE
8
F.Courtyard
6
CONTINUOUS
10
155.0376679999999965
20
-136.9404329999999845
11
155.0395709999999951
21
-136.9499999999999886
0
LINE
8
F.Courtyard
6
CONTINUOUS
10
155.0395709999999951
20
-136.9499999999999886
11
155.0395709999999951
21
-140.9499999999999886
0
LINE
8
F.Courtyard
6
CONTINUOUS
10
155.0395709999999951
20
-140.9499999999999886
11
155.0376679999999965
21
-140.9595669999999927
0
LINE
8
F.Courtyard
6
CONTINUOUS
10
155.0376679999999965
20
-140.9595669999999927
11
155.0241379999999936
21
-140.9730969999999957
0
LINE
8
F.Courtyard
6
CONTINUOUS
10
155.0241379999999936
20
-140.9730969999999957
11
155.0145709999999895
21
-140.9749999999999943
0
LINE
8
F.Courtyard
6
CONTINUOUS
10
155.0145709999999895
20
-140.9749999999999943
11
147.4145709999999951
21
-140.9749999999999943
0
LINE
8
F.Courtyard
6
CONTINUOUS
10
147.4145709999999951
20
-140.9749999999999943
11
147.405003999999991
21
-140.9730969999999957
0
LINE
8
F.Courtyard
6
CONTINUOUS
10
147.405003999999991
20
-140.9730969999999957
11
147.3914739999999881
21
-140.9595669999999927
0
LINE
8
F.Courtyard
6
CONTINUOUS
10
147.3914739999999881
20
-140.9595669999999927
11
147.3895709999999895
21
-140.9499999999999886
0
LINE
8
F.Courtyard
6
CONTINUOUS
10
147.3895709999999895
20
-140.9499999999999886
11
147.3895709999999895
21
-136.9499999999999886
0
LINE
8
F.Courtyard
6
CONTINUOUS
10
147.3895709999999895
20
-136.9499999999999886
11
147.3914739999999881
21
-136.9404329999999845
0
LINE
8
F.Courtyard
6
CONTINUOUS
10
147.3914739999999881
20
-136.9404329999999845
11
147.405003999999991
21
-136.9269029999999816
0
LINE
8
F.Courtyard
6
CONTINUOUS
10
147.405003999999991
20
-136.9269029999999816
11
147.4145709999999951
21
-136.9249999999999829
0
LINE
8
F.Courtyard
6
CONTINUOUS
10
147.4145709999999951
20
-136.9249999999999829
11
155.0145709999999895
21
-136.9249999999999829
0
LINE
8
F.Courtyard
6
CONTINUOUS
10
155.0145709999999895
20
-136.9249999999999829
11
155.0241379999999936
21
-136.9269029999999816
0
LINE
8
F.Courtyard
6
CONTINUOUS
10
147.4395710000000008
20
-136.9749999999999943
11
147.4395710000000008
21
-140.9249999999999829
0
LINE
8
F.Courtyard
6
CONTINUOUS
10
147.4395710000000008
20
-140.9249999999999829
11
154.9895709999999838
21
-140.9249999999999829
0
LINE
8
F.Courtyard
6
CONTINUOUS
10
154.9895709999999838
20
-140.9249999999999829
11
154.9895709999999838
21
-136.9749999999999943
0
LINE
8
F.Courtyard
6
CONTINUOUS
10
154.9895709999999838
20
-136.9749999999999943
11
147.4395710000000008
21
-136.9749999999999943
0
LINE
8
F.Courtyard
6
CONTINUOUS
10
185.3291380000000004
20
-127.1519029999999901
11
185.3426680000000033
21
-127.1654329999999931
0
LINE
8
F.Courtyard
6
CONTINUOUS
10
185.3426680000000033
20
-127.1654329999999931
11
185.344571000000002
21
-127.1749999999999972
0
LINE
8
F.Courtyard
6
CONTINUOUS
10
185.344571000000002
20
-127.1749999999999972
11
185.344571000000002
21
-140.375
0
LINE
8
F.Courtyard
6
CONTINUOUS
10
185.344571000000002
20
-140.375
11
185.3426680000000033
21
-140.3845670000000041
0
LINE
8
F.Courtyard
6
CONTINUOUS
10
185.3426680000000033
20
-140.3845670000000041
11
185.3291380000000004
21
-140.398097000000007
0
LINE
8
F.Courtyard
6
CONTINUOUS
10
185.3291380000000004
20
-140.398097000000007
11
185.3195709999999963
21
-140.4000000000000057
0
LINE
8
F.Courtyard
6
CONTINUOUS
10
185.3195709999999963
20
-140.4000000000000057
11
172.1195709999999792
21
-140.4000000000000057
0
LINE
8
F.Courtyard
6
CONTINUOUS
10
172.1195709999999792
20
-140.4000000000000057
11
172.1100040000000035
21
-140.398097000000007
0
LINE
8
F.Courtyard
6
CONTINUOUS
10
172.1100040000000035
20
-140.398097000000007
11
172.0964740000000006
21
-140.3845670000000041
0
LINE
8
F.Courtyard
6
CONTINUOUS
10
172.0964740000000006
20
-140.3845670000000041
11
172.094571000000002
21
-140.375
0
LINE
8
F.Courtyard
6
CONTINUOUS
10
172.094571000000002
20
-140.375
11
172.094571000000002
21
-127.1749999999999972
0
LINE
8
F.Courtyard
6
CONTINUOUS
10
172.094571000000002
20
-127.1749999999999972
11
172.0964740000000006
21
-127.1654329999999931
0
LINE
8
F.Courtyard
6
CONTINUOUS
10
172.0964740000000006
20
-127.1654329999999931
11
172.1100040000000035
21
-127.1519029999999901
0
LINE
8
F.Courtyard
6
CONTINUOUS
10
172.1100040000000035
20
-127.1519029999999901
11
172.1195709999999792
21
-127.1499999999999915
0
LINE
8
F.Courtyard
6
CONTINUOUS
10
172.1195709999999792
20
-127.1499999999999915
11
185.3195709999999963
21
-127.1499999999999915
0
LINE
8
F.Courtyard
6
CONTINUOUS
10
185.3195709999999963
20
-127.1499999999999915
11
185.3291380000000004
21
-127.1519029999999901
0
LINE
8
F.Courtyard
6
CONTINUOUS
10
172.1445709999999849
20
-127.1999999999999886
11
172.1445709999999849
21
-140.3499999999999943
0
LINE
8
F.Courtyard
6
CONTINUOUS
10
172.1445709999999849
20
-140.3499999999999943
11
185.2945709999999906
21
-140.3499999999999943
0
LINE
8
F.Courtyard
6
CONTINUOUS
10
185.2945709999999906
20
-140.3499999999999943
11
185.2945709999999906
21
-127.1999999999999886
0
LINE
8
F.Courtyard
6
CONTINUOUS
10
185.2945709999999906
20
-127.1999999999999886
11
172.1445709999999849
21
-127.1999999999999886
0
LINE
8
F.Courtyard
6
CONTINUOUS
10
129.4091379999999845
20
-126.7819029999999998
11
129.4226679999999874
21
-126.7954329999999885
0
LINE
8
F.Courtyard
6
CONTINUOUS
10
129.4226679999999874
20
-126.7954329999999885
11
129.424570999999986
21
-126.8049999999999926
0
LINE
8
F.Courtyard
6
CONTINUOUS
10
129.424570999999986
20
-126.8049999999999926
11
129.424570999999986
21
-140.0049999999999955
0
LINE
8
F.Courtyard
6
CONTINUOUS
10
129.424570999999986
20
-140.0049999999999955
11
129.4226679999999874
21
-140.0145669999999996
0
LINE
8
F.Courtyard
6
CONTINUOUS
10
129.4226679999999874
20
-140.0145669999999996
11
129.4091379999999845
21
-140.0280970000000025
0
LINE
8
F.Courtyard
6
CONTINUOUS
10
129.4091379999999845
20
-140.0280970000000025
11
129.3995709999999804
21
-140.0300000000000011
0
LINE
8
F.Courtyard
6
CONTINUOUS
10
129.3995709999999804
20
-140.0300000000000011
11
116.1995709999999917
21
-140.0300000000000011
0
LINE
8
F.Courtyard
6
CONTINUOUS
10
116.1995709999999917
20
-140.0300000000000011
11
116.1900040000000018
21
-140.0280970000000025
0
LINE
8
F.Courtyard
6
CONTINUOUS
10
116.1900040000000018
20
-140.0280970000000025
11
116.1764739999999989
21
-140.0145669999999996
0
LINE
8
F.Courtyard
6
CONTINUOUS
10
116.1764739999999989
20
-140.0145669999999996
11
116.1745710000000003
21
-140.0049999999999955
0
LINE
8
F.Courtyard
6
CONTINUOUS
10
116.1745710000000003
20
-140.0049999999999955
11
116.1745710000000003
21
-126.8049999999999926
0
LINE
8
F.Courtyard
6
CONTINUOUS
10
116.1745710000000003
20
-126.8049999999999926
11
116.1764739999999989
21
-126.7954329999999885
0
LINE
8
F.Courtyard
6
CONTINUOUS
10
116.1764739999999989
20
-126.7954329999999885
11
116.1900040000000018
21
-126.7819029999999998
0
LINE
8
F.Courtyard
6
CONTINUOUS
10
116.1900040000000018
20
-126.7819029999999998
11
116.1995709999999917
21
-126.7800000000000011
0
LINE
8
F.Courtyard
6
CONTINUOUS
10
116.1995709999999917
20
-126.7800000000000011
11
129.3995709999999804
21
-126.7800000000000011
0
LINE
8
F.Courtyard
6
CONTINUOUS
10
129.3995709999999804
20
-126.7800000000000011
11
129.4091379999999845
21
-126.7819029999999998
0
LINE
8
F.Courtyard
6
CONTINUOUS
10
116.2245709999999974
20
-126.8299999999999983
11
116.2245709999999974
21
-139.9799999999999898
0
LINE
8
F.Courtyard
6
CONTINUOUS
10
116.2245709999999974
20
-139.9799999999999898
11
129.3745710000000031
21
-139.9799999999999898
0
LINE
8
F.Courtyard
6
CONTINUOUS
10
129.3745710000000031
20
-139.9799999999999898
11
129.3745710000000031
21
-126.8299999999999983
0
LINE
8
F.Courtyard
6
CONTINUOUS
10
129.3745710000000031
20
-126.8299999999999983
11
116.2245709999999974
21
-126.8299999999999983
0
LINE
8
F.Courtyard
6
CONTINUOUS
10
119.509137999999993
20
-107.7569029999999941
11
119.5226679999999959
21
-107.770432999999997
0
LINE
8
F.Courtyard
6
CONTINUOUS
10
119.5226679999999959
20
-107.770432999999997
11
119.5245709999999946
21
-107.7800000000000011
0
LINE
8
F.Courtyard
6
CONTINUOUS
10
119.5245709999999946
20
-107.7800000000000011
11
119.5245709999999946
21
-120.9799999999999898
0
LINE
8
F.Courtyard
6
CONTINUOUS
10
119.5245709999999946
20
-120.9799999999999898
11
119.5226679999999959
21
-120.9895669999999939
0
LINE
8
F.Courtyard
6
CONTINUOUS
10
119.5226679999999959
20
-120.9895669999999939
11
119.509137999999993
21
-121.0030969999999968
0
LINE
8
F.Courtyard
6
CONTINUOUS
10
119.509137999999993
20
-121.0030969999999968
11
119.4995709999999889
21
-121.0049999999999955
0
LINE
8
F.Courtyard
6
CONTINUOUS
10
119.4995709999999889
20
-121.0049999999999955
11
106.2995710000000003
21
-121.0049999999999955
0
LINE
8
F.Courtyard
6
CONTINUOUS
10
106.2995710000000003
20
-121.0049999999999955
11
106.2900039999999962
21
-121.0030969999999968
0
LINE
8
F.Courtyard
6
CONTINUOUS
10
106.2900039999999962
20
-121.0030969999999968
11
106.2764739999999932
21
-120.9895669999999939
0
LINE
8
F.Courtyard
6
CONTINUOUS
10
106.2764739999999932
20
-120.9895669999999939
11
106.2745709999999946
21
-120.9799999999999898
0
LINE
8
F.Courtyard
6
CONTINUOUS
10
106.2745709999999946
20
-120.9799999999999898
11
106.2745709999999946
21
-107.7800000000000011
0
LINE
8
F.Courtyard
6
CONTINUOUS
10
106.2745709999999946
20
-107.7800000000000011
11
106.2764739999999932
21
-107.770432999999997
0
LINE
8
F.Courtyard
6
CONTINUOUS
10
106.2764739999999932
20
-107.770432999999997
11
106.2900039999999962
21
-107.7569029999999941
0
LINE
8
F.Courtyard
6
CONTINUOUS
10
106.2900039999999962
20
-107.7569029999999941
11
106.2995710000000003
21
-107.7549999999999955
0
LINE
8
F.Courtyard
6
CONTINUOUS
10
106.2995710000000003
20
-107.7549999999999955
11
119.4995709999999889
21
-107.7549999999999955
0
LINE
8
F.Courtyard
6
CONTINUOUS
10
119.4995709999999889
20
-107.7549999999999955
11
119.509137999999993
21
-107.7569029999999941
0
LINE
8
F.Courtyard
6
CONTINUOUS
10
106.3245709999999917
20
-107.8049999999999926
11
106.3245709999999917
21
-120.9549999999999983
0
LINE
8
F.Courtyard
6
CONTINUOUS
10
106.3245709999999917
20
-120.9549999999999983
11
119.4745709999999974
21
-120.9549999999999983
0
LINE
8
F.Courtyard
6
CONTINUOUS
10
119.4745709999999974
20
-120.9549999999999983
11
119.4745709999999974
21
-107.8049999999999926
0
LINE
8
F.Courtyard
6
CONTINUOUS
10
119.4745709999999974
20
-107.8049999999999926
11
106.3245709999999917
21
-107.8049999999999926
0
LINE
8
F.Courtyard
6
CONTINUOUS
10
132.3091379999999901
20
-88.6569029999999998
11
132.3226679999999931
21
-88.6704330000000027
0
LINE
8
F.Courtyard
6
CONTINUOUS
10
132.3226679999999931
20
-88.6704330000000027
11
132.3245709999999917
21
-88.6799999999999926
0
LINE
8
F.Courtyard
6
CONTINUOUS
10
132.3245709999999917
20
-88.6799999999999926
11
132.3245709999999917
21
-101.8799999999999955
0
LINE
8
F.Courtyard
6
CONTINUOUS
10
132.3245709999999917
20
-101.8799999999999955
11
132.3226679999999931
21
-101.8895669999999996
0
LINE
8
F.Courtyard
6
CONTINUOUS
10
132.3226679999999931
20
-101.8895669999999996
11
132.3091379999999901
21
-101.9030970000000025
0
LINE
8
F.Courtyard
6
CONTINUOUS
10
132.3091379999999901
20
-101.9030970000000025
11
132.299570999999986
21
-101.9050000000000011
0
LINE
8
F.Courtyard
6
CONTINUOUS
10
132.299570999999986
20
-101.9050000000000011
11
119.0995709999999974
21
-101.9050000000000011
0
LINE
8
F.Courtyard
6
CONTINUOUS
10
119.0995709999999974
20
-101.9050000000000011
11
119.0900039999999933
21
-101.9030970000000025
0
LINE
8
F.Courtyard
6
CONTINUOUS
10
119.0900039999999933
20
-101.9030970000000025
11
119.0764739999999904
21
-101.8895669999999996
0
LINE
8
F.Courtyard
6
CONTINUOUS
10
119.0764739999999904
20
-101.8895669999999996
11
119.0745709999999917
21
-101.8799999999999955
0
LINE
8
F.Courtyard
6
CONTINUOUS
10
119.0745709999999917
20
-101.8799999999999955
11
119.0745709999999917
21
-88.6799999999999926
0
LINE
8
F.Courtyard
6
CONTINUOUS
10
119.0745709999999917
20
-88.6799999999999926
11
119.0764739999999904
21
-88.6704330000000027
0
LINE
8
F.Courtyard
6
CONTINUOUS
10
119.0764739999999904
20
-88.6704330000000027
11
119.0900039999999933
21
-88.6569029999999998
0
LINE
8
F.Courtyard
6
CONTINUOUS
10
119.0900039999999933
20
-88.6569029999999998
11
119.0995709999999974
21
-88.6550000000000011
0
LINE
8
F.Courtyard
6
CONTINUOUS
10
119.0995709999999974
20
-88.6550000000000011
11
132.299570999999986
21
-88.6550000000000011
0
LINE
8
F.Courtyard
6
CONTINUOUS
10
132.299570999999986
20
-88.6550000000000011
11
132.3091379999999901
21
-88.6569029999999998
0
LINE
8
F.Courtyard
6
CONTINUOUS
10
119.1245709999999889
20
-88.7049999999999983
11
119.1245709999999889
21
-101.8549999999999898
0
LINE
8
F.Courtyard
6
CONTINUOUS
10
119.1245709999999889
20
-101.8549999999999898
11
132.2745709999999804
21
-101.8549999999999898
0
LINE
8
F.Courtyard
6
CONTINUOUS
10
132.2745709999999804
20
-101.8549999999999898
11
132.2745709999999804
21
-88.7049999999999983
0
LINE
8
F.Courtyard
6
CONTINUOUS
10
132.2745709999999804
20
-88.7049999999999983
11
119.1245709999999889
21
-88.7049999999999983
0
LINE
8
F.Courtyard
6
CONTINUOUS
10
151.4091379999999845
20
-88.6169029999999935
11
151.4226679999999874
21
-88.6304329999999965
0
LINE
8
F.Courtyard
6
CONTINUOUS
10
151.4226679999999874
20
-88.6304329999999965
11
151.424570999999986
21
-88.6400000000000006
0
LINE
8
F.Courtyard
6
CONTINUOUS
10
151.424570999999986
20
-88.6400000000000006
11
151.424570999999986
21
-101.8399999999999892
0
LINE
8
F.Courtyard
6
CONTINUOUS
10
151.424570999999986
20
-101.8399999999999892
11
151.4226679999999874
21
-101.8495669999999933
0
LINE
8
F.Courtyard
6
CONTINUOUS
10
151.4226679999999874
20
-101.8495669999999933
11
151.4091379999999845
21
-101.8630969999999962
0
LINE
8
F.Courtyard
6
CONTINUOUS
10
151.4091379999999845
20
-101.8630969999999962
11
151.3995709999999804
21
-101.8649999999999949
0
LINE
8
F.Courtyard
6
CONTINUOUS
10
151.3995709999999804
20
-101.8649999999999949
11
138.1995709999999917
21
-101.8649999999999949
0
LINE
8
F.Courtyard
6
CONTINUOUS
10
138.1995709999999917
20
-101.8649999999999949
11
138.1900039999999876
21
-101.8630969999999962
0
LINE
8
F.Courtyard
6
CONTINUOUS
10
138.1900039999999876
20
-101.8630969999999962
11
138.1764739999999847
21
-101.8495669999999933
0
LINE
8
F.Courtyard
6
CONTINUOUS
10
138.1764739999999847
20
-101.8495669999999933
11
138.174570999999986
21
-101.8399999999999892
0
LINE
8
F.Courtyard
6
CONTINUOUS
10
138.174570999999986
20
-101.8399999999999892
11
138.174570999999986
21
-88.6400000000000006
0
LINE
8
F.Courtyard
6
CONTINUOUS
10
138.174570999999986
20
-88.6400000000000006
11
138.1764739999999847
21
-88.6304329999999965
0
LINE
8
F.Courtyard
6
CONTINUOUS
10
138.1764739999999847
20
-88.6304329999999965
11
138.1900039999999876
21
-88.6169029999999935
0
LINE
8
F.Courtyard
6
CONTINUOUS
10
138.1900039999999876
20
-88.6169029999999935
11
138.1995709999999917
21
-88.6149999999999949
0
LINE
8
F.Courtyard
6
CONTINUOUS
10
138.1995709999999917
20
-88.6149999999999949
11
151.3995709999999804
21
-88.6149999999999949
0
LINE
8
F.Courtyard
6
CONTINUOUS
10
151.3995709999999804
20
-88.6149999999999949
11
151.4091379999999845
21
-88.6169029999999935
0
LINE
8
F.Courtyard
6
CONTINUOUS
10
138.2245709999999974
20
-88.664999999999992
11
138.2245709999999974
21
-101.8149999999999977
0
LINE
8
F.Courtyard
6
CONTINUOUS
10
138.2245709999999974
20
-101.8149999999999977
11
151.3745710000000031
21
-101.8149999999999977
0
LINE
8
F.Courtyard
6
CONTINUOUS
10
151.3745710000000031
20
-101.8149999999999977
11
151.3745710000000031
21
-88.664999999999992
0
LINE
8
F.Courtyard
6
CONTINUOUS
10
151.3745710000000031
20
-88.664999999999992
11
138.2245709999999974
21
-88.664999999999992
0
LINE
8
F.Courtyard
6
CONTINUOUS
10
170.4091379999999845
20
-88.6169029999999935
11
170.4226679999999874
21
-88.6304329999999965
0
LINE
8
F.Courtyard
6
CONTINUOUS
10
170.4226679999999874
20
-88.6304329999999965
11
170.424570999999986
21
-88.6400000000000006
0
LINE
8
F.Courtyard
6
CONTINUOUS
10
170.424570999999986
20
-88.6400000000000006
11
170.424570999999986
21
-101.8399999999999892
0
LINE
8
F.Courtyard
6
CONTINUOUS
10
170.424570999999986
20
-101.8399999999999892
11
170.4226679999999874
21
-101.8495669999999933
0
LINE
8
F.Courtyard
6
CONTINUOUS
10
170.4226679999999874
20
-101.8495669999999933
11
170.4091379999999845
21
-101.8630969999999962
0
LINE
8
F.Courtyard
6
CONTINUOUS
10
170.4091379999999845
20
-101.8630969999999962
11
170.3995709999999804
21
-101.8649999999999949
0
LINE
8
F.Courtyard
6
CONTINUOUS
10
170.3995709999999804
20
-101.8649999999999949
11
157.1995709999999917
21
-101.8649999999999949
0
LINE
8
F.Courtyard
6
CONTINUOUS
10
157.1995709999999917
20
-101.8649999999999949
11
157.1900039999999876
21
-101.8630969999999962
0
LINE
8
F.Courtyard
6
CONTINUOUS
10
157.1900039999999876
20
-101.8630969999999962
11
157.1764739999999847
21
-101.8495669999999933
0
LINE
8
F.Courtyard
6
CONTINUOUS
10
157.1764739999999847
20
-101.8495669999999933
11
157.174570999999986
21
-101.8399999999999892
0
LINE
8
F.Courtyard
6
CONTINUOUS
10
157.174570999999986
20
-101.8399999999999892
11
157.174570999999986
21
-88.6400000000000006
0
LINE
8
F.Courtyard
6
CONTINUOUS
10
157.174570999999986
20
-88.6400000000000006
11
157.1764739999999847
21
-88.6304329999999965
0
LINE
8
F.Courtyard
6
CONTINUOUS
10
157.1764739999999847
20
-88.6304329999999965
11
157.1900039999999876
21
-88.6169029999999935
0
LINE
8
F.Courtyard
6
CONTINUOUS
10
157.1900039999999876
20
-88.6169029999999935
11
157.1995709999999917
21
-88.6149999999999949
0
LINE
8
F.Courtyard
6
CONTINUOUS
10
157.1995709999999917
20
-88.6149999999999949
11
170.3995709999999804
21
-88.6149999999999949
0
LINE
8
F.Courtyard
6
CONTINUOUS
10
170.3995709999999804
20
-88.6149999999999949
11
170.4091379999999845
21
-88.6169029999999935
0
LINE
8
F.Courtyard
6
CONTINUOUS
10
157.2245709999999974
20
-88.664999999999992
11
157.2245709999999974
21
-101.8149999999999977
0
LINE
8
F.Courtyard
6
CONTINUOUS
10
157.2245709999999974
20
-101.8149999999999977
11
170.3745710000000031
21
-101.8149999999999977
0
LINE
8
F.Courtyard
6
CONTINUOUS
10
170.3745710000000031
20
-101.8149999999999977
11
170.3745710000000031
21
-88.664999999999992
0
LINE
8
F.Courtyard
6
CONTINUOUS
10
170.3745710000000031
20
-88.664999999999992
11
157.2245709999999974
21
-88.664999999999992
0
LINE
8
F.Courtyard
6
CONTINUOUS
10
194.4241370000000018
20
-94.5740610000000004
11
194.4376670000000047
21
-94.5875909999999891
0
LINE
8
F.Courtyard
6
CONTINUOUS
10
194.4376670000000047
20
-94.5875909999999891
11
194.4395700000000033
21
-94.5971579999999932
0
LINE
8
F.Courtyard
6
CONTINUOUS
10
194.4395700000000033
20
-94.5971579999999932
11
194.4395700000000033
21
-98.5971579999999932
0
LINE
8
F.Courtyard
6
CONTINUOUS
10
194.4395700000000033
20
-98.5971579999999932
11
194.4376670000000047
21
-98.6067249999999973
0
LINE
8
F.Courtyard
6
CONTINUOUS
10
194.4376670000000047
20
-98.6067249999999973
11
194.4241370000000018
21
-98.6202550000000002
0
LINE
8
F.Courtyard
6
CONTINUOUS
10
194.4241370000000018
20
-98.6202550000000002
11
194.4145699999999977
21
-98.6221579999999989
0
LINE
8
F.Courtyard
6
CONTINUOUS
10
194.4145699999999977
20
-98.6221579999999989
11
186.8145700000000033
21
-98.6221579999999989
0
LINE
8
F.Courtyard
6
CONTINUOUS
10
186.8145700000000033
20
-98.6221579999999989
11
186.8050029999999992
21
-98.6202550000000002
0
LINE
8
F.Courtyard
6
CONTINUOUS
10
186.8050029999999992
20
-98.6202550000000002
11
186.7914729999999963
21
-98.6067249999999973
0
LINE
8
F.Courtyard
6
CONTINUOUS
10
186.7914729999999963
20
-98.6067249999999973
11
186.7895699999999977
21
-98.5971579999999932
0
LINE
8
F.Courtyard
6
CONTINUOUS
10
186.7895699999999977
20
-98.5971579999999932
11
186.7895699999999977
21
-94.5971579999999932
0
LINE
8
F.Courtyard
6
CONTINUOUS
10
186.7895699999999977
20
-94.5971579999999932
11
186.7914729999999963
21
-94.5875909999999891
0
LINE
8
F.Courtyard
6
CONTINUOUS
10
186.7914729999999963
20
-94.5875909999999891
11
186.8050029999999992
21
-94.5740610000000004
0
LINE
8
F.Courtyard
6
CONTINUOUS
10
186.8050029999999992
20
-94.5740610000000004
11
186.8145700000000033
21
-94.5721580000000017
0
LINE
8
F.Courtyard
6
CONTINUOUS
10
186.8145700000000033
20
-94.5721580000000017
11
194.4145699999999977
21
-94.5721580000000017
0
LINE
8
F.Courtyard
6
CONTINUOUS
10
194.4145699999999977
20
-94.5721580000000017
11
194.4241370000000018
21
-94.5740610000000004
0
LINE
8
F.Courtyard
6
CONTINUOUS
10
186.8395699999999806
20
-94.6221579999999989
11
186.8395699999999806
21
-98.5721580000000017
0
LINE
8
F.Courtyard
6
CONTINUOUS
10
186.8395699999999806
20
-98.5721580000000017
11
194.389569999999992
21
-98.5721580000000017
0
LINE
8
F.Courtyard
6
CONTINUOUS
10
194.389569999999992
20
-98.5721580000000017
11
194.389569999999992
21
-94.6221579999999989
0
LINE
8
F.Courtyard
6
CONTINUOUS
10
194.389569999999992
20
-94.6221579999999989
11
186.8395699999999806
21
-94.6221579999999989
0
LINE
8
F.Courtyard
6
CONTINUOUS
10
111.9241370000000018
20
-93.5740610000000004
11
111.9376669999999905
21
-93.5875909999999891
0
LINE
8
F.Courtyard
6
CONTINUOUS
10
111.9376669999999905
20
-93.5875909999999891
11
111.9395699999999891
21
-93.5971579999999932
0
LINE
8
F.Courtyard
6
CONTINUOUS
10
111.9395699999999891
20
-93.5971579999999932
11
111.9395699999999891
21
-97.5971579999999932
0
LINE
8
F.Courtyard
6
CONTINUOUS
10
111.9395699999999891
20
-97.5971579999999932
11
111.9376669999999905
21
-97.6067249999999973
0
LINE
8
F.Courtyard
6
CONTINUOUS
10
111.9376669999999905
20
-97.6067249999999973
11
111.9241370000000018
21
-97.6202550000000002
0
LINE
8
F.Courtyard
6
CONTINUOUS
10
111.9241370000000018
20
-97.6202550000000002
11
111.9145699999999977
21
-97.6221579999999989
0
LINE
8
F.Courtyard
6
CONTINUOUS
10
111.9145699999999977
20
-97.6221579999999989
11
104.3145699999999891
21
-97.6221579999999989
0
LINE
8
F.Courtyard
6
CONTINUOUS
10
104.3145699999999891
20
-97.6221579999999989
11
104.3050029999999992
21
-97.6202550000000002
0
LINE
8
F.Courtyard
6
CONTINUOUS
10
104.3050029999999992
20
-97.6202550000000002
11
104.2914729999999963
21
-97.6067249999999973
0
LINE
8
F.Courtyard
6
CONTINUOUS
10
104.2914729999999963
20
-97.6067249999999973
11
104.2895699999999977
21
-97.5971579999999932
0
LINE
8
F.Courtyard
6
CONTINUOUS
10
104.2895699999999977
20
-97.5971579999999932
11
104.2895699999999977
21
-93.5971579999999932
0
LINE
8
F.Courtyard
6
CONTINUOUS
10
104.2895699999999977
20
-93.5971579999999932
11
104.2914729999999963
21
-93.5875909999999891
0
LINE
8
F.Courtyard
6
CONTINUOUS
10
104.2914729999999963
20
-93.5875909999999891
11
104.3050029999999992
21
-93.5740610000000004
0
LINE
8
F.Courtyard
6
CONTINUOUS
10
104.3050029999999992
20
-93.5740610000000004
11
104.3145699999999891
21
-93.5721580000000017
0
LINE
8
F.Courtyard
6
CONTINUOUS
10
104.3145699999999891
20
-93.5721580000000017
11
111.9145699999999977
21
-93.5721580000000017
0
LINE
8
F.Courtyard
6
CONTINUOUS
10
111.9145699999999977
20
-93.5721580000000017
11
111.9241370000000018
21
-93.5740610000000004
0
LINE
8
F.Courtyard
6
CONTINUOUS
10
104.3395699999999948
20
-93.6221579999999989
11
104.3395699999999948
21
-97.5721580000000017
0
LINE
8
F.Courtyard
6
CONTINUOUS
10
104.3395699999999948
20
-97.5721580000000017
11
111.889569999999992
21
-97.5721580000000017
0
LINE
8
F.Courtyard
6
CONTINUOUS
10
111.889569999999992
20
-97.5721580000000017
11
111.889569999999992
21
-93.6221579999999989
0
LINE
8
F.Courtyard
6
CONTINUOUS
10
111.889569999999992
20
-93.6221579999999989
11
104.3395699999999948
21
-93.6221579999999989
0
LINE
8
F.Courtyard
6
CONTINUOUS
10
151.4091379999999845
20
-69.6169029999999935
11
151.4226679999999874
21
-69.6304329999999965
0
LINE
8
F.Courtyard
6
CONTINUOUS
10
151.4226679999999874
20
-69.6304329999999965
11
151.424570999999986
21
-69.6400000000000006
0
LINE
8
F.Courtyard
6
CONTINUOUS
10
151.424570999999986
20
-69.6400000000000006
11
151.424570999999986
21
-82.8399999999999892
0
LINE
8
F.Courtyard
6
CONTINUOUS
10
151.424570999999986
20
-82.8399999999999892
11
151.4226679999999874
21
-82.8495669999999933
0
LINE
8
F.Courtyard
6
CONTINUOUS
10
151.4226679999999874
20
-82.8495669999999933
11
151.4091379999999845
21
-82.8630969999999962
0
LINE
8
F.Courtyard
6
CONTINUOUS
10
151.4091379999999845
20
-82.8630969999999962
11
151.3995709999999804
21
-82.8649999999999949
0
LINE
8
F.Courtyard
6
CONTINUOUS
10
151.3995709999999804
20
-82.8649999999999949
11
138.1995709999999917
21
-82.8649999999999949
0
LINE
8
F.Courtyard
6
CONTINUOUS
10
138.1995709999999917
20
-82.8649999999999949
11
138.1900039999999876
21
-82.8630969999999962
0
LINE
8
F.Courtyard
6
CONTINUOUS
10
138.1900039999999876
20
-82.8630969999999962
11
138.1764739999999847
21
-82.8495669999999933
0
LINE
8
F.Courtyard
6
CONTINUOUS
10
138.1764739999999847
20
-82.8495669999999933
11
138.174570999999986
21
-82.8399999999999892
0
LINE
8
F.Courtyard
6
CONTINUOUS
10
138.174570999999986
20
-82.8399999999999892
11
138.174570999999986
21
-69.6400000000000006
0
LINE
8
F.Courtyard
6
CONTINUOUS
10
138.174570999999986
20
-69.6400000000000006
11
138.1764739999999847
21
-69.6304329999999965
0
LINE
8
F.Courtyard
6
CONTINUOUS
10
138.1764739999999847
20
-69.6304329999999965
11
138.1900039999999876
21
-69.6169029999999935
0
LINE
8
F.Courtyard
6
CONTINUOUS
10
138.1900039999999876
20
-69.6169029999999935
11
138.1995709999999917
21
-69.6149999999999949
0
LINE
8
F.Courtyard
6
CONTINUOUS
10
138.1995709999999917
20
-69.6149999999999949
11
151.3995709999999804
21
-69.6149999999999949
0
LINE
8
F.Courtyard
6
CONTINUOUS
10
151.3995709999999804
20
-69.6149999999999949
11
151.4091379999999845
21
-69.6169029999999935
0
LINE
8
F.Courtyard
6
CONTINUOUS
10
138.2245709999999974
20
-69.664999999999992
11
138.2245709999999974
21
-82.8149999999999977
0
LINE
8
F.Courtyard
6
CONTINUOUS
10
138.2245709999999974
20
-82.8149999999999977
11
151.3745710000000031
21
-82.8149999999999977
0
LINE
8
F.Courtyard
6
CONTINUOUS
10
151.3745710000000031
20
-82.8149999999999977
11
151.3745710000000031
21
-69.664999999999992
0
LINE
8
F.Courtyard
6
CONTINUOUS
10
151.3745710000000031
20
-69.664999999999992
11
138.2245709999999974
21
-69.664999999999992
0
LINE
8
F.Courtyard
6
CONTINUOUS
10
170.4291379999999947
20
-69.5769030000000015
11
170.4426679999999976
21
-69.5904329999999902
0
LINE
8
F.Courtyard
6
CONTINUOUS
10
170.4426679999999976
20
-69.5904329999999902
11
170.4445709999999963
21
-69.5999999999999943
0
LINE
8
F.Courtyard
6
CONTINUOUS
10
170.4445709999999963
20
-69.5999999999999943
11
170.4445709999999963
21
-82.7999999999999972
0
LINE
8
F.Courtyard
6
CONTINUOUS
10
170.4445709999999963
20
-82.7999999999999972
11
170.4426679999999976
21
-82.8095670000000013
0
LINE
8
F.Courtyard
6
CONTINUOUS
10
170.4426679999999976
20
-82.8095670000000013
11
170.4291379999999947
21
-82.82309699999999
0
LINE
8
F.Courtyard
6
CONTINUOUS
10
170.4291379999999947
20
-82.82309699999999
11
170.4195709999999906
21
-82.8250000000000028
0
LINE
8
F.Courtyard
6
CONTINUOUS
10
170.4195709999999906
20
-82.8250000000000028
11
157.219571000000002
21
-82.8250000000000028
0
LINE
8
F.Courtyard
6
CONTINUOUS
10
157.219571000000002
20
-82.8250000000000028
11
157.2100039999999979
21
-82.82309699999999
0
LINE
8
F.Courtyard
6
CONTINUOUS
10
157.2100039999999979
20
-82.82309699999999
11
157.1964739999999949
21
-82.8095670000000013
0
LINE
8
F.Courtyard
6
CONTINUOUS
10
157.1964739999999949
20
-82.8095670000000013
11
157.1945709999999963
21
-82.7999999999999972
0
LINE
8
F.Courtyard
6
CONTINUOUS
10
157.1945709999999963
20
-82.7999999999999972
11
157.1945709999999963
21
-69.5999999999999943
0
LINE
8
F.Courtyard
6
CONTINUOUS
10
157.1945709999999963
20
-69.5999999999999943
11
157.1964739999999949
21
-69.5904329999999902
0
LINE
8
F.Courtyard
6
CONTINUOUS
10
157.1964739999999949
20
-69.5904329999999902
11
157.2100039999999979
21
-69.5769030000000015
0
LINE
8
F.Courtyard
6
CONTINUOUS
10
157.2100039999999979
20
-69.5769030000000015
11
157.219571000000002
21
-69.5750000000000028
0
LINE
8
F.Courtyard
6
CONTINUOUS
10
157.219571000000002
20
-69.5750000000000028
11
170.4195709999999906
21
-69.5750000000000028
0
LINE
8
F.Courtyard
6
CONTINUOUS
10
170.4195709999999906
20
-69.5750000000000028
11
170.4291379999999947
21
-69.5769030000000015
0
LINE
8
F.Courtyard
6
CONTINUOUS
10
157.2445709999999792
20
-69.625
11
157.2445709999999792
21
-82.7749999999999915
0
LINE
8
F.Courtyard
6
CONTINUOUS
10
157.2445709999999792
20
-82.7749999999999915
11
170.3945709999999849
21
-82.7749999999999915
0
LINE
8
F.Courtyard
6
CONTINUOUS
10
170.3945709999999849
20
-82.7749999999999915
11
170.3945709999999849
21
-69.625
0
LINE
8
F.Courtyard
6
CONTINUOUS
10
170.3945709999999849
20
-69.625
11
157.2445709999999792
21
-69.625
0
LINE
8
F.Courtyard
6
CONTINUOUS
10
189.5591379999999901
20
-69.5769030000000015
11
189.5726679999999931
21
-69.5904329999999902
0
LINE
8
F.Courtyard
6
CONTINUOUS
10
189.5726679999999931
20
-69.5904329999999902
11
189.5745709999999917
21
-69.5999999999999943
0
LINE
8
F.Courtyard
6
CONTINUOUS
10
189.5745709999999917
20
-69.5999999999999943
11
189.5745709999999917
21
-82.7999999999999972
0
LINE
8
F.Courtyard
6
CONTINUOUS
10
189.5745709999999917
20
-82.7999999999999972
11
189.5726679999999931
21
-82.8095670000000013
0
LINE
8
F.Courtyard
6
CONTINUOUS
10
189.5726679999999931
20
-82.8095670000000013
11
189.5591379999999901
21
-82.82309699999999
0
LINE
8
F.Courtyard
6
CONTINUOUS
10
189.5591379999999901
20
-82.82309699999999
11
189.549570999999986
21
-82.8250000000000028
0
LINE
8
F.Courtyard
6
CONTINUOUS
10
189.549570999999986
20
-82.8250000000000028
11
176.3495709999999974
21
-82.8250000000000028
0
LINE
8
F.Courtyard
6
CONTINUOUS
10
176.3495709999999974
20
-82.8250000000000028
11
176.3400039999999933
21
-82.82309699999999
0
LINE
8
F.Courtyard
6
CONTINUOUS
10
176.3400039999999933
20
-82.82309699999999
11
176.3264739999999904
21
-82.8095670000000013
0
LINE
8
F.Courtyard
6
CONTINUOUS
10
176.3264739999999904
20
-82.8095670000000013
11
176.3245709999999917
21
-82.7999999999999972
0
LINE
8
F.Courtyard
6
CONTINUOUS
10
176.3245709999999917
20
-82.7999999999999972
11
176.3245709999999917
21
-69.5999999999999943
0
LINE
8
F.Courtyard
6
CONTINUOUS
10
176.3245709999999917
20
-69.5999999999999943
11
176.3264739999999904
21
-69.5904329999999902
0
LINE
8
F.Courtyard
6
CONTINUOUS
10
176.3264739999999904
20
-69.5904329999999902
11
176.3400039999999933
21
-69.5769030000000015
0
LINE
8
F.Courtyard
6
CONTINUOUS
10
176.3400039999999933
20
-69.5769030000000015
11
176.3495709999999974
21
-69.5750000000000028
0
LINE
8
F.Courtyard
6
CONTINUOUS
10
176.3495709999999974
20
-69.5750000000000028
11
189.549570999999986
21
-69.5750000000000028
0
LINE
8
F.Courtyard
6
CONTINUOUS
10
189.549570999999986
20
-69.5750000000000028
11
189.5591379999999901
21
-69.5769030000000015
0
LINE
8
F.Courtyard
6
CONTINUOUS
10
176.3745710000000031
20
-69.625
11
176.3745710000000031
21
-82.7749999999999915
0
LINE
8
F.Courtyard
6
CONTINUOUS
10
176.3745710000000031
20
-82.7749999999999915
11
189.5245709999999804
21
-82.7749999999999915
0
LINE
8
F.Courtyard
6
CONTINUOUS
10
189.5245709999999804
20
-82.7749999999999915
11
189.5245709999999804
21
-69.625
0
LINE
8
F.Courtyard
6
CONTINUOUS
10
189.5245709999999804
20
-69.625
11
176.3745710000000031
21
-69.625
0
LINE
8
F.Courtyard
6
CONTINUOUS
10
127.8741379999999879
20
-59.5769029999999944
11
127.8876679999999908
21
-59.5904329999999973
0
LINE
8
F.Courtyard
6
CONTINUOUS
10
127.8876679999999908
20
-59.5904329999999973
11
127.8895709999999895
21
-59.5999999999999943
0
LINE
8
F.Courtyard
6
CONTINUOUS
10
127.8895709999999895
20
-59.5999999999999943
11
127.8895709999999895
21
-73.7999999999999972
0
LINE
8
F.Courtyard
6
CONTINUOUS
10
127.8895709999999895
20
-73.7999999999999972
11
127.8876679999999908
21
-73.8095670000000013
0
LINE
8
F.Courtyard
6
CONTINUOUS
10
127.8876679999999908
20
-73.8095670000000013
11
127.8741379999999879
21
-73.82309699999999
0
LINE
8
F.Courtyard
6
CONTINUOUS
10
127.8741379999999879
20
-73.82309699999999
11
127.864570999999998
21
-73.8250000000000028
0
LINE
8
F.Courtyard
6
CONTINUOUS
10
127.864570999999998
20
-73.8250000000000028
11
110.364570999999998
21
-73.8250000000000028
0
LINE
8
F.Courtyard
6
CONTINUOUS
10
110.364570999999998
20
-73.8250000000000028
11
110.3550039999999939
21
-73.82309699999999
0
LINE
8
F.Courtyard
6
CONTINUOUS
10
110.3550039999999939
20
-73.82309699999999
11
110.341473999999991
21
-73.8095670000000013
0
LINE
8
F.Courtyard
6
CONTINUOUS
10
110.341473999999991
20
-73.8095670000000013
11
110.3395709999999923
21
-73.7999999999999972
0
LINE
8
F.Courtyard
6
CONTINUOUS
10
110.3395709999999923
20
-73.7999999999999972
11
110.3395709999999923
21
-59.5999999999999943
0
LINE
8
F.Courtyard
6
CONTINUOUS
10
110.3395709999999923
20
-59.5999999999999943
11
110.341473999999991
21
-59.5904329999999973
0
LINE
8
F.Courtyard
6
CONTINUOUS
10
110.341473999999991
20
-59.5904329999999973
11
110.3550039999999939
21
-59.5769029999999944
0
LINE
8
F.Courtyard
6
CONTINUOUS
10
110.3550039999999939
20
-59.5769029999999944
11
110.364570999999998
21
-59.5749999999999957
0
LINE
8
F.Courtyard
6
CONTINUOUS
10
110.364570999999998
20
-59.5749999999999957
11
127.864570999999998
21
-59.5749999999999957
0
LINE
8
F.Courtyard
6
CONTINUOUS
10
127.864570999999998
20
-59.5749999999999957
11
127.8741379999999879
21
-59.5769029999999944
0
LINE
8
F.Courtyard
6
CONTINUOUS
10
110.3895709999999895
20
-59.625
11
110.3895709999999895
21
-73.7749999999999915
0
LINE
8
F.Courtyard
6
CONTINUOUS
10
110.3895709999999895
20
-73.7749999999999915
11
127.8395709999999923
21
-73.7749999999999915
0
LINE
8
F.Courtyard
6
CONTINUOUS
10
127.8395709999999923
20
-73.7749999999999915
11
127.8395709999999923
21
-59.625
0
LINE
8
F.Courtyard
6
CONTINUOUS
10
127.8395709999999923
20
-59.625
11
110.3895709999999895
21
-59.625
0
LINE
8
F.Courtyard
6
CONTINUOUS
10
141.3941379999999981
20
-51.2919029999999978
11
141.407668000000001
21
-51.3054330000000007
0
LINE
8
F.Courtyard
6
CONTINUOUS
10
141.407668000000001
20
-51.3054330000000007
11
141.4095709999999997
21
-51.3149999999999977
0
LINE
8
F.Courtyard
6
CONTINUOUS
10
141.4095709999999997
20
-51.3149999999999977
11
141.4095709999999997
21
-62.4749999999999943
0
LINE
8
F.Courtyard
6
CONTINUOUS
10
141.4095709999999997
20
-62.4749999999999943
11
141.407668000000001
21
-62.4845669999999984
0
LINE
8
F.Courtyard
6
CONTINUOUS
10
141.407668000000001
20
-62.4845669999999984
11
141.3941379999999981
21
-62.4980969999999942
0
LINE
8
F.Courtyard
6
CONTINUOUS
10
141.3941379999999981
20
-62.4980969999999942
11
141.384570999999994
21
-62.5
0
LINE
8
F.Courtyard
6
CONTINUOUS
10
141.384570999999994
20
-62.5
11
137.844571000000002
21
-62.5
0
LINE
8
F.Courtyard
6
CONTINUOUS
10
137.844571000000002
20
-62.5
11
137.8350039999999979
21
-62.4980969999999942
0
LINE
8
F.Courtyard
6
CONTINUOUS
10
137.8350039999999979
20
-62.4980969999999942
11
137.8214739999999949
21
-62.4845669999999984
0
LINE
8
F.Courtyard
6
CONTINUOUS
10
137.8214739999999949
20
-62.4845669999999984
11
137.8195709999999963
21
-62.4749999999999943
0
LINE
8
F.Courtyard
6
CONTINUOUS
10
137.8195709999999963
20
-62.4749999999999943
11
137.8195709999999963
21
-51.3149999999999977
0
LINE
8
F.Courtyard
6
CONTINUOUS
10
137.8195709999999963
20
-51.3149999999999977
11
137.8214739999999949
21
-51.3054330000000007
0
LINE
8
F.Courtyard
6
CONTINUOUS
10
137.8214739999999949
20
-51.3054330000000007
11
137.8350039999999979
21
-51.2919029999999978
0
LINE
8
F.Courtyard
6
CONTINUOUS
10
137.8350039999999979
20
-51.2919029999999978
11
137.844571000000002
21
-51.2899999999999991
0
LINE
8
F.Courtyard
6
CONTINUOUS
10
137.844571000000002
20
-51.2899999999999991
11
141.384570999999994
21
-51.2899999999999991
0
LINE
8
F.Courtyard
6
CONTINUOUS
10
141.384570999999994
20
-51.2899999999999991
11
141.3941379999999981
21
-51.2919029999999978
0
LINE
8
F.Courtyard
6
CONTINUOUS
10
137.8695710000000076
20
-51.3399999999999963
11
137.8695710000000076
21
-62.4499999999999957
0
LINE
8
F.Courtyard
6
CONTINUOUS
10
137.8695710000000076
20
-62.4499999999999957
11
141.3595709999999883
21
-62.4499999999999957
0
LINE
8
F.Courtyard
6
CONTINUOUS
10
141.3595709999999883
20
-62.4499999999999957
11
141.3595709999999883
21
-51.3399999999999963
0
LINE
8
F.Courtyard
6
CONTINUOUS
10
141.3595709999999883
20
-51.3399999999999963
11
137.8695710000000076
21
-51.3399999999999963
0
LINE
8
F.Courtyard
6
CONTINUOUS
10
111.9241370000000018
20
-51.5740610000000004
11
111.9376669999999905
21
-51.5875909999999962
0
LINE
8
F.Courtyard
6
CONTINUOUS
10
111.9376669999999905
20
-51.5875909999999962
11
111.9395699999999891
21
-51.5971580000000003
0
LINE
8
F.Courtyard
6
CONTINUOUS
10
111.9395699999999891
20
-51.5971580000000003
11
111.9395699999999891
21
-55.5971580000000003
0
LINE
8
F.Courtyard
6
CONTINUOUS
10
111.9395699999999891
20
-55.5971580000000003
11
111.9376669999999905
21
-55.6067249999999973
0
LINE
8
F.Courtyard
6
CONTINUOUS
10
111.9376669999999905
20
-55.6067249999999973
11
111.9241370000000018
21
-55.6202550000000002
0
LINE
8
F.Courtyard
6
CONTINUOUS
10
111.9241370000000018
20
-55.6202550000000002
11
111.9145699999999977
21
-55.6221579999999989
0
LINE
8
F.Courtyard
6
CONTINUOUS
10
111.9145699999999977
20
-55.6221579999999989
11
104.3145699999999891
21
-55.6221579999999989
0
LINE
8
F.Courtyard
6
CONTINUOUS
10
104.3145699999999891
20
-55.6221579999999989
11
104.3050029999999992
21
-55.6202550000000002
0
LINE
8
F.Courtyard
6
CONTINUOUS
10
104.3050029999999992
20
-55.6202550000000002
11
104.2914729999999963
21
-55.6067249999999973
0
LINE
8
F.Courtyard
6
CONTINUOUS
10
104.2914729999999963
20
-55.6067249999999973
11
104.2895699999999977
21
-55.5971580000000003
0
LINE
8
F.Courtyard
6
CONTINUOUS
10
104.2895699999999977
20
-55.5971580000000003
11
104.2895699999999977
21
-51.5971580000000003
0
LINE
8
F.Courtyard
6
CONTINUOUS
10
104.2895699999999977
20
-51.5971580000000003
11
104.2914729999999963
21
-51.5875909999999962
0
LINE
8
F.Courtyard
6
CONTINUOUS
10
104.2914729999999963
20
-51.5875909999999962
11
104.3050029999999992
21
-51.5740610000000004
0
LINE
8
F.Courtyard
6
CONTINUOUS
10
104.3050029999999992
20
-51.5740610000000004
11
104.3145699999999891
21
-51.5721579999999946
0
LINE
8
F.Courtyard
6
CONTINUOUS
10
104.3145699999999891
20
-51.5721579999999946
11
111.9145699999999977
21
-51.5721579999999946
0
LINE
8
F.Courtyard
6
CONTINUOUS
10
111.9145699999999977
20
-51.5721579999999946
11
111.9241370000000018
21
-51.5740610000000004
0
LINE
8
F.Courtyard
6
CONTINUOUS
10
104.3395699999999948
20
-51.6221579999999989
11
104.3395699999999948
21
-55.5721579999999946
0
LINE
8
F.Courtyard
6
CONTINUOUS
10
104.3395699999999948
20
-55.5721579999999946
11
111.889569999999992
21
-55.5721579999999946
0
LINE
8
F.Courtyard
6
CONTINUOUS
10
111.889569999999992
20
-55.5721579999999946
11
111.889569999999992
21
-51.6221579999999989
0
LINE
8
F.Courtyard
6
CONTINUOUS
10
111.889569999999992
20
-51.6221579999999989
11
104.3395699999999948
21
-51.6221579999999989
0
LINE
8
F.Courtyard
6
CONTINUOUS
10
194.4241370000000018
20
-51.5740610000000004
11
194.4376670000000047
21
-51.5875909999999962
0
LINE
8
F.Courtyard
6
CONTINUOUS
10
194.4376670000000047
20
-51.5875909999999962
11
194.4395700000000033
21
-51.5971580000000003
0
LINE
8
F.Courtyard
6
CONTINUOUS
10
194.4395700000000033
20
-51.5971580000000003
11
194.4395700000000033
21
-55.5971580000000003
0
LINE
8
F.Courtyard
6
CONTINUOUS
10
194.4395700000000033
20
-55.5971580000000003
11
194.4376670000000047
21
-55.6067249999999973
0
LINE
8
F.Courtyard
6
CONTINUOUS
10
194.4376670000000047
20
-55.6067249999999973
11
194.4241370000000018
21
-55.6202550000000002
0
LINE
8
F.Courtyard
6
CONTINUOUS
10
194.4241370000000018
20
-55.6202550000000002
11
194.4145699999999977
21
-55.6221579999999989
0
LINE
8
F.Courtyard
6
CONTINUOUS
10
194.4145699999999977
20
-55.6221579999999989
11
186.8145700000000033
21
-55.6221579999999989
0
LINE
8
F.Courtyard
6
CONTINUOUS
10
186.8145700000000033
20
-55.6221579999999989
11
186.8050029999999992
21
-55.6202550000000002
0
LINE
8
F.Courtyard
6
CONTINUOUS
10
186.8050029999999992
20
-55.6202550000000002
11
186.7914729999999963
21
-55.6067249999999973
0
LINE
8
F.Courtyard
6
CONTINUOUS
10
186.7914729999999963
20
-55.6067249999999973
11
186.7895699999999977
21
-55.5971580000000003
0
LINE
8
F.Courtyard
6
CONTINUOUS
10
186.7895699999999977
20
-55.5971580000000003
11
186.7895699999999977
21
-51.5971580000000003
0
LINE
8
F.Courtyard
6
CONTINUOUS
10
186.7895699999999977
20
-51.5971580000000003
11
186.7914729999999963
21
-51.5875909999999962
0
LINE
8
F.Courtyard
6
CONTINUOUS
10
186.7914729999999963
20
-51.5875909999999962
11
186.8050029999999992
21
-51.5740610000000004
0
LINE
8
F.Courtyard
6
CONTINUOUS
10
186.8050029999999992
20
-51.5740610000000004
11
186.8145700000000033
21
-51.5721579999999946
0
LINE
8
F.Courtyard
6
CONTINUOUS
10
186.8145700000000033
20
-51.5721579999999946
11
194.4145699999999977
21
-51.5721579999999946
0
LINE
8
F.Courtyard
6
CONTINUOUS
10
194.4145699999999977
20
-51.5721579999999946
11
194.4241370000000018
21
-51.5740610000000004
0
LINE
8
F.Courtyard
6
CONTINUOUS
10
186.8395699999999806
20
-51.6221579999999989
11
186.8395699999999806
21
-55.5721579999999946
0
LINE
8
F.Courtyard
6
CONTINUOUS
10
186.8395699999999806
20
-55.5721579999999946
11
194.389569999999992
21
-55.5721579999999946
0
LINE
8
F.Courtyard
6
CONTINUOUS
10
194.389569999999992
20
-55.5721579999999946
11
194.389569999999992
21
-51.6221579999999989
0
LINE
8
F.Courtyard
6
CONTINUOUS
10
194.389569999999992
20
-51.6221579999999989
11
186.8395699999999806
21
-51.6221579999999989
0
LINE
8
F.Courtyard
6
CONTINUOUS
10
155.4241370000000018
20
-51.0740610000000004
11
155.4376670000000047
21
-51.0875909999999962
0
LINE
8
F.Courtyard
6
CONTINUOUS
10
155.4376670000000047
20
-51.0875909999999962
11
155.4395700000000033
21
-51.0971580000000003
0
LINE
8
F.Courtyard
6
CONTINUOUS
10
155.4395700000000033
20
-51.0971580000000003
11
155.4395700000000033
21
-55.0971580000000003
0
LINE
8
F.Courtyard
6
CONTINUOUS
10
155.4395700000000033
20
-55.0971580000000003
11
155.4376670000000047
21
-55.1067249999999973
0
LINE
8
F.Courtyard
6
CONTINUOUS
10
155.4376670000000047
20
-55.1067249999999973
11
155.4241370000000018
21
-55.1202550000000002
0
LINE
8
F.Courtyard
6
CONTINUOUS
10
155.4241370000000018
20
-55.1202550000000002
11
155.4145699999999977
21
-55.1221579999999989
0
LINE
8
F.Courtyard
6
CONTINUOUS
10
155.4145699999999977
20
-55.1221579999999989
11
147.8145700000000033
21
-55.1221579999999989
0
LINE
8
F.Courtyard
6
CONTINUOUS
10
147.8145700000000033
20
-55.1221579999999989
11
147.8050029999999992
21
-55.1202550000000002
0
LINE
8
F.Courtyard
6
CONTINUOUS
10
147.8050029999999992
20
-55.1202550000000002
11
147.7914729999999963
21
-55.1067249999999973
0
LINE
8
F.Courtyard
6
CONTINUOUS
10
147.7914729999999963
20
-55.1067249999999973
11
147.7895699999999977
21
-55.0971580000000003
0
LINE
8
F.Courtyard
6
CONTINUOUS
10
147.7895699999999977
20
-55.0971580000000003
11
147.7895699999999977
21
-51.0971580000000003
0
LINE
8
F.Courtyard
6
CONTINUOUS
10
147.7895699999999977
20
-51.0971580000000003
11
147.7914729999999963
21
-51.0875909999999962
0
LINE
8
F.Courtyard
6
CONTINUOUS
10
147.7914729999999963
20
-51.0875909999999962
11
147.8050029999999992
21
-51.0740610000000004
0
LINE
8
F.Courtyard
6
CONTINUOUS
10
147.8050029999999992
20
-51.0740610000000004
11
147.8145700000000033
21
-51.0721579999999946
0
LINE
8
F.Courtyard
6
CONTINUOUS
10
147.8145700000000033
20
-51.0721579999999946
11
155.4145699999999977
21
-51.0721579999999946
0
LINE
8
F.Courtyard
6
CONTINUOUS
10
155.4145699999999977
20
-51.0721579999999946
11
155.4241370000000018
21
-51.0740610000000004
0
LINE
8
F.Courtyard
6
CONTINUOUS
10
147.8395699999999806
20
-51.1221579999999989
11
147.8395699999999806
21
-55.0721579999999946
0
LINE
8
F.Courtyard
6
CONTINUOUS
10
147.8395699999999806
20
-55.0721579999999946
11
155.389569999999992
21
-55.0721579999999946
0
LINE
8
F.Courtyard
6
CONTINUOUS
10
155.389569999999992
20
-55.0721579999999946
11
155.389569999999992
21
-51.1221579999999989
0
LINE
8
F.Courtyard
6
CONTINUOUS
10
155.389569999999992
20
-51.1221579999999989
11
147.8395699999999806
21
-51.1221579999999989
  0
ENDSEC
  0
EOF
