<?xml version="1.0" standalone="no"?>
 <!DOCTYPE svg PUBLIC "-//W3C//DTD SVG 1.1//EN" 
 "http://www.w3.org/Graphics/SVG/1.1/DTD/svg11.dtd"> 
<svg
  xmlns:svg="http://www.w3.org/2000/svg"
  xmlns="http://www.w3.org/2000/svg"
  xmlns:xlink="http://www.w3.org/1999/xlink"
  xmlns:inkscape="http://www.inkscape.org/namespaces/inkscape"
  version="1.1"
  width="297.0022mm" height="210.0072mm" viewBox="0.0000 0.0000 297.0022 210.0072">
<title>SVG Image created as Anypad-F_Courtyard.svg date 2026-07-02T12:50:13 </title>
  <desc>Image generated by PCBNEW </desc>
<g style="fill:#000000; fill-opacity:1.0000;stroke:#000000; stroke-opacity:1.0000;
stroke-linecap:round; stroke-linejoin:round;"
 transform="translate(0 0) scale(1 1)">
</g>
<g style="fill:none; 
stroke:#FF26E2; stroke-width:0.0500; stroke-opacity:1; 
stroke-linecap:round; stroke-linejoin:round;">
<path d="M154.9146 134.7600
L147.3146 134.7600
" />
<path d="M154.9146 130.7600
L154.9146 134.7600
" />
<path d="M147.3146 134.7600
L147.3146 130.7600
" />
<path d="M147.3146 130.7600
L154.9146 130.7600
" />
<path d="M194.3146 92.4072
L186.7146 92.4072
" />
<path d="M194.3146 88.4072
L194.3146 92.4072
" />
<path d="M186.7146 92.4072
L186.7146 88.4072
" />
<path d="M186.7146 88.4072
L194.3146 88.4072
" />
<path d="M194.3146 49.4072
L186.7146 49.4072
" />
<path d="M194.3146 45.4072
L194.3146 49.4072
" />
<path d="M186.7146 49.4072
L186.7146 45.4072
" />
<path d="M186.7146 45.4072
L194.3146 45.4072
" />
<path d="M155.3146 48.9072
L147.7146 48.9072
" />
<path d="M155.3146 44.9072
L155.3146 48.9072
" />
<path d="M147.7146 48.9072
L147.7146 44.9072
" />
<path d="M147.7146 44.9072
L155.3146 44.9072
" />
<path d="M111.8146 91.4072
L104.2146 91.4072
" />
<path d="M111.8146 87.4072
L111.8146 91.4072
" />
<path d="M104.2146 91.4072
L104.2146 87.4072
" />
<path d="M104.2146 87.4072
L111.8146 87.4072
" />
<path d="M111.9146 134.9072
L104.3146 134.9072
" />
<path d="M111.9146 130.9072
L111.9146 134.9072
" />
<path d="M104.3146 134.9072
L104.3146 130.9072
" />
<path d="M104.3146 130.9072
L111.9146 130.9072
" />
<path d="M194.3146 135.4072
L186.7146 135.4072
" />
<path d="M194.3146 131.4072
L194.3146 135.4072
" />
<path d="M186.7146 135.4072
L186.7146 131.4072
" />
<path d="M186.7146 131.4072
L194.3146 131.4072
" />
<path d="M132.1996 95.6900
L118.9996 95.6900
" />
<path d="M132.1996 82.4900
L132.1996 95.6900
" />
<path d="M118.9996 95.6900
L118.9996 82.4900
" />
<path d="M118.9996 82.4900
L132.1996 82.4900
" />
<path d="M189.4496 76.6100
L176.2496 76.6100
" />
<path d="M189.4496 63.4100
L189.4496 76.6100
" />
<path d="M176.2496 76.6100
L176.2496 63.4100
" />
<path d="M176.2496 63.4100
L189.4496 63.4100
" />
<path d="M170.2996 95.6500
L157.0996 95.6500
" />
<path d="M170.2996 82.4500
L170.2996 95.6500
" />
<path d="M157.0996 95.6500
L157.0996 82.4500
" />
<path d="M157.0996 82.4500
L170.2996 82.4500
" />
<path d="M151.2996 76.6500
L138.0996 76.6500
" />
<path d="M151.2996 63.4500
L151.2996 76.6500
" />
<path d="M138.0996 76.6500
L138.0996 63.4500
" />
<path d="M138.0996 63.4500
L151.2996 63.4500
" />
<path d="M119.3996 114.7900
L106.1996 114.7900
" />
<path d="M119.3996 101.5900
L119.3996 114.7900
" />
<path d="M106.1996 114.7900
L106.1996 101.5900
" />
<path d="M106.1996 101.5900
L119.3996 101.5900
" />
<path d="M151.2996 95.6500
L138.0996 95.6500
" />
<path d="M151.2996 82.4500
L151.2996 95.6500
" />
<path d="M138.0996 95.6500
L138.0996 82.4500
" />
<path d="M138.0996 82.4500
L151.2996 82.4500
" />
<path d="M110.2646 53.4100
L110.2646 67.6100
" />
<path d="M110.2646 53.4100
L127.7646 53.4100
" />
<path d="M127.7646 67.6100
L110.2646 67.6100
" />
<path d="M127.7646 67.6100
L127.7646 53.4100
" />
<path d="M185.2196 134.1850
L172.0196 134.1850
" />
<path d="M185.2196 120.9850
L185.2196 134.1850
" />
<path d="M172.0196 134.1850
L172.0196 120.9850
" />
<path d="M172.0196 120.9850
L185.2196 120.9850
" />
<path d="M129.2996 133.8150
L116.0996 133.8150
" />
<path d="M129.2996 120.6150
L129.2996 133.8150
" />
<path d="M116.0996 133.8150
L116.0996 120.6150
" />
<path d="M116.0996 120.6150
L129.2996 120.6150
" />
<path d="M170.3196 76.6100
L157.1196 76.6100
" />
<path d="M170.3196 63.4100
L170.3196 76.6100
" />
<path d="M157.1196 76.6100
L157.1196 63.4100
" />
<path d="M157.1196 63.4100
L170.3196 63.4100
" />
</g>
<g style="fill:none; 
stroke:#FF26E2; stroke-width:0.0400; stroke-opacity:1; 
stroke-linecap:round; stroke-linejoin:round;">
<path d="M128.2000 61.0400
L166.2000 61.0400
" />
<path d="M166.2000 61.0400
L166.2000 49.0400
" />
<path d="M166.2000 49.0400
L128.2000 49.0400
" />
<path d="M128.2000 49.0400
L128.2000 61.0400
" />
</g>
<g style="fill:none; 
stroke:#FF26E2; stroke-width:0.0500; stroke-opacity:1; 
stroke-linecap:round; stroke-linejoin:round;">
<path d="M113.6200 50.2500
L106.0200 50.2500
" />
<path d="M113.6200 46.2500
L113.6200 50.2500
" />
<path d="M106.0200 50.2500
L106.0200 46.2500
" />
<path d="M106.0200 46.2500
L113.6200 46.2500
" />
</g> 
</svg>
